<?xml version="1.0" encoding="utf-8"?>
<!-- Generator: Adobe Illustrator 21.0.0, SVG Export Plug-In . SVG Version: 6.00 Build 0)  -->
<svg version="1.1" id="Layer_1" xmlns="http://www.w3.org/2000/svg" xmlns:xlink="http://www.w3.org/1999/xlink" x="0px" y="0px"
	 viewBox="0 0 1600 1200" style="enable-background:new 0 0 1600 1200;" xml:space="preserve">
<style type="text/css">
	.st0{fill:#E8E8E8;}
	.st1{fill:#161616;}
	.st2{fill:#FFFFFF;}
	.st3{fill:#FFFFFF;stroke:#161616;stroke-width:3.5;}
	.st4{fill:#F07D42;}
	.st5{opacity:0.21;fill:#6D6C6C;enable-background:new    ;}
	.st6{opacity:0.25;fill:#6D6C6C;enable-background:new    ;}
	.st7{opacity:0.14;fill:#6D6C6C;enable-background:new    ;}
	.st8{opacity:0.18;fill:#6D6C6C;enable-background:new    ;}
	.st9{fill:#D6D6D6;}
	.st10{opacity:0.2;fill:#6D6C6C;enable-background:new    ;}
	.st11{opacity:0.19;fill:#6D6C6C;enable-background:new    ;}
	.st12{opacity:0.15;fill:#6D6C6C;enable-background:new    ;}
	.st13{opacity:0.22;fill:#6D6C6C;enable-background:new    ;}
	.st14{fill:#FFFFFF;stroke:#161616;stroke-width:2;}
	.st15{opacity:0.11;fill:#6D6C6C;enable-background:new    ;}
	.st16{opacity:0.17;fill:#6D6C6C;enable-background:new    ;}
	.st17{opacity:0.24;fill:#6D6C6C;enable-background:new    ;}
	.st18{opacity:0.45;fill:#371B9B;enable-background:new    ;}
	.st19{opacity:0.43;fill:#371B9B;enable-background:new    ;}
</style>
<title>pointing</title>
<g id="Page-1">
	<g id="hugo" transform="translate(127.000000, 84.000000)">
		<path id="Shape" class="st0" d="M28.4,912.2c49.2,2.2,98.4,3.3,147.6,3.2c1.9,0,1.9-3,0-3c-49.2,0.1-98.4-1-147.6-3.2
			C26.5,909.1,26.5,912.1,28.4,912.2z M179,837.8c7.7,28.9,14.9,58,21.5,87.2c0.4,1.9,3.3,1.1,2.9-0.8
			c-6.7-29.2-13.8-58.3-21.5-87.2C181.4,835.2,178.5,836,179,837.8z M313,840c-2.8,27.5-5.6,55.1-8.3,82.6c-0.2,1.9,2.8,1.9,3,0
			c2.8-27.5,5.6-55.1,8.3-82.6C316.1,838.1,313.1,838.1,313,840L313,840z"/>
		<path id="Shape_1_" class="st0" d="M201.3,927.7c17.5,3.1,35.2,4.5,53,4c17-0.5,35.6-1.8,51.8-7.2c1.8-0.6,1-3.5-0.8-2.9
			c-16.1,5.3-34.2,6.6-51,7.1c-17.5,0.5-35-0.9-52.2-3.9C200.2,924.4,199.4,927.3,201.3,927.7L201.3,927.7z M180.2,838.8
			c20.7,5.8,43.2,5.9,64.6,6c23,0.2,46-1.1,68.8-3.7c1.9-0.2,1.9-3.2,0-3c-22.2,2.6-44.5,3.8-66.8,3.7c-21.7-0.1-44.7-0.1-65.8-5.9
			C179.1,835.4,178.3,838.3,180.2,838.8L180.2,838.8z"/>
		<path id="Path" class="st0" d="M171.6,828.5c0.2,1.9,0.4,3.9,0.6,5.8c0.1,1.2,0.1,2.7,0.6,3.8c1.2,2.6,5.2,1.7,7.5,1.7
			c1.9,0,1.9-3,0-3h-3.4c-1.5,0-1.5-0.3-1.6-1.8c-0.2-2.2-0.4-4.3-0.6-6.5C174.4,826.6,171.4,826.5,171.6,828.5z"/>
		<path id="Shape_2_" class="st0" d="M173.6,830.1c25,2.9,50.1,4.3,75.3,4.5c12.4,0.1,24.8-0.1,37.3-0.5c6.2-0.2,12.4-0.5,18.6-0.8
			c2.9-0.1,6.9-1.1,9.8-0.5c3.5,0.6,3.3,3.6,3.7,6.7c0.3-0.6,0.7-1.2,1-1.8h-3.9c-1.9-0.4-2.7,2.5-0.8,2.9c2,0.4,3.5,0.4,5.4,0
			c0.9-0.2,1.2-1.1,1-1.8c-0.5-3.5-0.1-7.9-4.3-8.8c-2.5-0.6-5.6,0.1-8.2,0.2c-3.3,0.2-6.5,0.3-9.8,0.5c-14,0.6-28.1,1-42.2,1
			c-27.8,0-55.5-1.3-83.1-4.6C171.7,826.9,171.7,829.9,173.6,830.1L173.6,830.1z M195.3,902.8c8,10.5,17.4,19.6,28,27.4
			c1.6,1.1,3.1-1.5,1.5-2.6c-10.2-7.5-19.3-16.3-27-26.4C196.7,899.7,194.1,901.2,195.3,902.8L195.3,902.8z M188.6,872.3
			c15.6,22.5,34.8,42.2,57,58.3c1.6,1.1,3.1-1.5,1.5-2.6c-21.7-15.8-40.6-35.2-55.9-57.2C190.1,869.2,187.5,870.7,188.6,872.3z
			 M182.5,845.5c27,32,57,61.9,92.8,84.1c1.6,1,3.2-1.6,1.5-2.6c-35.6-22-65.4-51.7-92.2-83.6C183.4,841.9,181.3,844.1,182.5,845.5z
			 M211.2,843.8c25.7,29.9,54.2,58.3,86,81.7c1.6,1.1,3.1-1.5,1.5-2.6c-31.6-23.2-59.9-51.6-85.4-81.2
			C212,840.2,209.9,842.3,211.2,843.8L211.2,843.8z M244,845.9c17.4,21.3,37.4,40.3,59.6,56.6c1.6,1.1,3.1-1.5,1.5-2.6
			c-22-16.1-41.8-35-59-56.1C244.9,842.3,242.8,844.4,244,845.9z M270.8,844.8c11.2,12.6,24,23.4,38.2,32.5c1.6,1,3.1-1.6,1.5-2.6
			c-14-8.9-26.6-19.7-37.6-32C271.6,841.2,269.5,843.3,270.8,844.8L270.8,844.8z"/>
		<path id="Path_1_" class="st0" d="M132.4,680c6.5,13.7,10.9,28.1,13.4,43.1c0.1,0.7,0.8,1.1,1.4,1.1c0.6,0,3.8-0.1,4,0.9
			c0.1,0.4-1.9,2.7-2.1,3.2c-0.6,1.6-0.6,3.5,0,5.1c0.8,1.9,2.3,3.2,4.1,3.9c0.6,0.3,1.3,0.4,2,0.5c0.6,0.1,1.2,0.1,1.8,0
			c0.8-0.1,0.7,0-0.2,0.4c-1,1.5-2.4,1.7-2.8,3.9c-0.3,2.1,0.7,4.1,1.5,5.9c3.3,7,5.2,14.4,7.9,21.7c9.3,24.8,27.1,45.3,47.2,62.2
			c1.5,1.2,3.6-0.9,2.1-2.1c-20.7-17.4-39.1-38.7-47.8-64.8c-1.1-3.4-2.1-6.8-3.3-10.1c-1-2.9-2.9-5.9-3.8-8.8
			c-1-1.6-0.9-3.4,0.4-5.2l1.2-0.9c0.3-0.5,0.9-0.8,1.2-1.4c0.4-1.1,0.1-2.1-0.7-2.9c-1.3-1.3-3.3-0.6-5-1.1
			c-6.5-1.9-1.2-6.3-0.7-9.5c0.7-4.2-4.5-3.7-7.3-3.9c0.5,0.4,1,0.7,1.4,1.1c-2.5-15.2-7.1-29.9-13.7-43.8
			C134.2,676.7,131.6,678.2,132.4,680L132.4,680z"/>
		<path id="Path_2_" class="st0" d="M133.5,679.3c32.5,8.7,61,30.8,81.7,57c22,27.8,35.7,61.2,43.1,95.7c0.4,1.9,3.3,1.1,2.9-0.8
			c-7.5-35-21.5-68.8-43.8-97c-21-26.5-50-48.9-83-57.7C132.4,675.9,131.6,678.8,133.5,679.3z"/>
		<path id="Path_3_" class="st0" d="M145.3,691.7c39.8,38.7,70.5,86.2,89.4,138.5c0.7,1.8,3.6,1,2.9-0.8
			c-19.1-52.7-50-100.7-90.2-139.8C146.1,688.2,143.9,690.3,145.3,691.7L145.3,691.7z"/>
		<path id="Shape_3_" class="st0" d="M163,754.6c8.4,0.9,16.6,2.8,24.4,5.9c7.6,3,15.9,6.8,20.7,13.7c1.1,1.6,3.7,0.1,2.6-1.5
			c-4.8-6.9-12.3-10.8-19.9-14c-8.9-3.8-18.2-6.1-27.9-7.1C161.1,751.4,161.1,754.4,163,754.6L163,754.6z M177.9,699.8
			c-0.1,11.5,1.8,22.8,5.5,33.7c0.6,1.8,3.5,1,2.9-0.8c-3.6-10.6-5.4-21.6-5.4-32.9C180.9,697.9,177.9,697.9,177.9,699.8
			L177.9,699.8z M232.8,754.2c4.9-18.3,21.2-29.2,35.1-40.4c14.8-11.9,29.1-24.6,42.7-37.8c-0.8-0.5-1.7-1-2.5-1.5
			c-4.5,12.1-5.4,24.8-5.2,37.6c0.2,12.8,3.1,27.5-1,39.9c0.5-0.4,1-0.7,1.4-1.1c-3.2,0.2-6.4,0.5-9.6,0.7c-1,0.1-2,1.3-1.3,2.3
			c2.3,3.1,5,4.1,4.9,8.7c0,3.2-0.8,6.9-1.9,9.9c-1.1,3.1-4,5.2-5,8.1c-0.8,2.6,1.2,4.8,1.2,7.4c0.1,4.3-3,7.9-5.2,11.3
			c-2.1,3.2-4,6.5-5.7,9.9c-3.4,6.7-6.1,13.6-8.1,20.8c-0.5,1.9,2.4,2.7,2.9,0.8c2.5-8.9,6.1-17.5,10.8-25.5
			c3.2-5.4,9.2-11.7,8.5-18.5c-0.3-2.7-1.7-3.5-0.5-6.6c0.1-0.1,1.9-2.5,2-2.7c1.9-3.1,2.8-6.6,3.4-10.1c0.4-2.6,1.2-5.8,0.8-8.4
			c-0.6-3.7-3.4-4-5.5-6.8c-0.4,0.8-0.9,1.5-1.3,2.3c3.2-0.2,6.4-0.5,9.6-0.7c0.7-0.1,1.2-0.4,1.4-1.1c3.8-11.6,1.5-25.1,1.1-37.1
			c-0.4-13.7,0.1-27.5,5-40.5c0.6-1.5-1.5-2.4-2.5-1.5c-14.5,14.1-29.7,27.6-45.6,40.2c-13.6,10.8-28.3,21.8-33,39.4
			C229.4,755.3,232.3,756.1,232.8,754.2L232.8,754.2z"/>
		<path id="Path_4_" class="st0" d="M299.5,689c-9.8,17.1-19.8,34-29.2,51.3c-8.8,16-16.6,32.6-20.3,50.5c-0.4,1.9,2.5,2.7,2.9,0.8
			c3.8-18.3,11.9-35.1,20.9-51.4c9.2-16.7,18.9-33.1,28.3-49.7C303,688.9,300.4,687.3,299.5,689L299.5,689z"/>
		<path id="Shape_4_" class="st0" d="M270,716.8c1.3,5.7,1.9,11.4,1.7,17.2c-0.1,1.9,2.9,1.9,3,0c0.2-6.1-0.4-12-1.8-18
			C272.4,714.1,269.6,714.9,270,716.8z M286.3,697.7c1.1,4.3,1.3,8.5,0.8,12.8c-0.2,1.9,2.8,1.9,3,0c0.6-4.6,0.3-9.1-0.9-13.6
			C288.7,695.1,285.8,695.9,286.3,697.7L286.3,697.7z M287,717.6c5.9-3.5,12-6.6,18.3-9.2c1.8-0.7,1-3.6-0.8-2.9
			c-6.6,2.7-12.9,5.9-19.1,9.5C283.8,716,285.3,718.6,287,717.6z M261.2,767.8c3.8-3.2,7.6-6.3,11.5-9.3c4.1-3.2,8.6-7.5,13.6-9.5
			c1.8-0.7,1-3.6-0.8-2.9c-4.5,1.7-8.2,5-12,8c-4.9,3.8-9.7,7.6-14.4,11.6C257.6,766.9,259.7,769,261.2,767.8L261.2,767.8z
			 M145.4,711.7c7,0.7,14,1.4,21,2c1.9,0.2,1.9-2.8,0-3c-7-0.7-14-1.4-21-2C143.5,708.5,143.5,711.5,145.4,711.7z M328.9,911.2
			h481.7c1.9,0,1.9-3,0-3H328.9C326.9,908.2,326.9,911.2,328.9,911.2z M752.7,666.2V710c0,1.9,3,1.9,3,0v-43.8
			C755.7,664.3,752.7,664.3,752.7,666.2z M683.7,716.7h145.5c1.9,0,1.9-3,0-3H683.7C681.8,713.7,681.7,716.7,683.7,716.7z"/>
		<path id="Shape_5_" class="st0" d="M716.3,717.5v37.9c0,1.9,3,1.9,3,0v-37.9C719.3,715.5,716.3,715.5,716.3,717.5z M791.3,716.7
			v33.4c0,1.9,3,1.9,3,0v-33.4C794.3,714.8,791.3,714.8,791.3,716.7z M743.8,758.3h111.3c1.9,0,1.9-3,0-3H743.8
			C741.9,755.3,741.9,758.3,743.8,758.3z M659.9,940.2h245.7c1.9,0,1.9-3,0-3H659.9C658,937.2,658,940.2,659.9,940.2z M998.6,914.3
			h309.1c1.9,0,1.9-3,0-3H998.6C996.7,911.3,996.7,914.3,998.6,914.3z M1.7,965.5H249c1.9,0,1.9-3,0-3H1.7
			C-0.2,962.5-0.2,965.5,1.7,965.5z M167.9,995.5h201.9c1.9,0,1.9-3,0-3H167.9C165.9,992.5,165.9,995.5,167.9,995.5z M1191,140.5
			V56.9c0-1.9-3-1.9-3,0v83.6C1188,142.4,1191,142.4,1191,140.5z"/>
		<path id="Path_5_" class="st0" d="M1190.5,56.3h108.3c1.9,0,1.9-3,0-3h-108.3C1188.6,53.3,1188.6,56.3,1190.5,56.3z"/>
		<path id="Path_6_" class="st0" d="M1297.3,55c-0.2,28.3-0.4,56.6-0.7,84.9c0,1.9,3,1.9,3,0c0.2-28.3,0.4-56.6,0.7-84.9
			C1300.3,53.1,1297.3,53.1,1297.3,55z"/>
		<path id="Shape_6_" class="st0" d="M1191,142h106.8c1.9,0,1.9-3,0-3H1191C1189.1,139,1189.1,142,1191,142z M1193.9,62.7v70.4
			c0,1.9,3,1.9,3,0V62.7C1196.9,60.8,1193.9,60.8,1193.9,62.7z"/>
		<path id="Path_7_" class="st0" d="M1196.1,64.2h94.7c1.9,0,1.9-3,0-3h-94.7C1194.1,61.2,1194.1,64.2,1196.1,64.2z"/>
		<path id="Path_8_" class="st0" d="M1289.2,63.4l-0.3,69.1c0,1.9,3,1.9,3,0l0.3-69.1C1292.2,61.5,1289.2,61.5,1289.2,63.4z"/>
		<path id="Shape_7_" class="st0" d="M1196.7,135h93.3c1.9,0,1.9-3,0-3h-93.3C1194.8,132,1194.8,135,1196.7,135z M1196.1,114.3
			c11.5-4,23.6-0.4,34.8,2.9c11.4,3.3,22.6,7.3,33.5,11.9c1.8,0.7,2.6-2.2,0.8-2.9c-12.1-5.1-24.5-9.4-37.1-12.9
			c-10.7-2.9-22-5.7-32.8-1.9C1193.5,112,1194.3,114.9,1196.1,114.3z"/>
		<path id="Shape_8_" class="st0" d="M1234.1,117.7c18.9-1.1,36.6-8.7,55.3-10.8c1.9-0.2,1.9-3.2,0-3c-18.7,2.1-36.4,9.6-55.3,10.8
			C1232.1,114.9,1232.1,117.9,1234.1,117.7z M1269.9,81.1c-4.2-2.4-0.4-10.3,4.1-8.4c2.4,1,2.9,3.9,1.6,6c-1.4,2.3-4.3,2.7-6.7,2
			c-1.9-0.5-2.7,2.4-0.8,2.9c4,1.1,8.5-0.1,10.5-4c1.8-3.5,0.4-8.1-3.4-9.7c-7.8-3.3-14.2,9.7-6.8,13.8
			C1270,84.6,1271.6,82,1269.9,81.1L1269.9,81.1z M1239.3,54.3c0.1-1.7,0.2-3.4,0.7-5c0.4-1.3,1.4-4.4,2.9-5c2.7-1,3.7,8.5,3.9,10.3
			c0.2,1.9,3.2,1.9,3,0c-0.3-3.5-1.1-14.5-6.7-13.7c-2.4,0.3-4.1,3-5,5c-1.2,2.6-1.6,5.5-1.7,8.3
			C1236.3,56.2,1239.3,56.2,1239.3,54.3L1239.3,54.3z M1256.1,520.8v36.1c0,1.9,3,1.9,3,0v-36.1
			C1259.1,518.9,1256.1,518.9,1256.1,520.8z"/>
		<path id="Path_9_" class="st0" d="M1219.8,561.3h81.7c1.9,0,1.9-3,0-3h-81.7C1217.9,558.3,1217.9,561.3,1219.8,561.3z"/>
		<path id="Shape_9_" class="st0" d="M1231.3,562.2v17c0,1.9,3,1.9,3,0v-17C1234.3,560.3,1231.3,560.3,1231.3,562.2z M1275,563.1
			v20.2c0,1.9,3,1.9,3,0v-20.2C1278,561.1,1275,561.1,1275,563.1z"/>
		<path id="Path_10_" class="st0" d="M1253.8,587.2h56.7c1.9,0,1.9-3,0-3h-56.7C1251.9,584.2,1251.9,587.2,1253.8,587.2z"/>
		<path id="Path_11_" class="st1" d="M561.9,879.6c31.5-21.3,47.3-32,51.4-33.3c10-3.2,42.4-13.5,70.7,3.8
			c20.3,12.4,39,39.3,31.2,57.3c-5.6,12.8-22.7,16.8-38.2,20.5c-22.9,5.4-42.5,2.4-53.5-0.2c-4.3,4.2-11.2,9.8-20.9,13.5
			c-16.1,6.2-34.7,5.1-35.6,1.4c-0.4-1.9,3.6-5.6,23-13.2c-2.3-2.5-5.7-5.5-10.5-7.6c-14.2-6.5-28.4-0.2-31.1,1.1
			c13.9,8.1,16.9,12.3,16.2,14.6c-1.8,5.8-30.1,7.7-37.7-5.6c-0.8-1.3-3-5.8-1.2-14.3C529.3,902,542.3,892.9,561.9,879.6
			L561.9,879.6z"/>
		<path id="Shape_10_" class="st1" d="M699.1,901.8c3.2-6.6,17.6-5,23.2-4.4c7.2,0.8,13.6,1.5,19.4,6.6c4.4,3.8,10.8,12.1,8.5,18.8
			c-2.1,6.4-10,5.9-25.3,13.4c-2.6,1.3-27.6,13.6-25.9,21.7c0.7,3.3,5.2,3.2,19.5,9.3c12.4,5.2,19.7,8.4,25.8,15.4
			c3,3.5,9,10.4,7.4,17.4c-3,12.9-29.8,15.1-30.5,13.1c-0.6-1.7,18.2-6.4,18.4-15.2c0.2-6.7-10.3-12.1-16.9-15.6
			c-19.4-10.1-32.5-6.5-37.6-16.2c-2.9-5.5-1.3-11.4-1-12.5c1.5-5.4,5.7-10,26.2-20.3c18.7-9.4,27-11.6,26.9-15.8
			c-0.1-3.9-7.3-7.1-11.7-8.2c-12.4-3.3-21.5,4.5-25.7,0.1C698,907.4,698.1,904,699.1,901.8L699.1,901.8z M528.3,853.4l18.9,14.1
			c9-0.9,17.9-1.7,26.9-2.6c5.6-5.4,11.2-10.9,16.8-16.3c0.4,3.4,1.2,11.1,1.5,14.8c3.5,33.3,3.8,36.2,1.7,40
			c-6.9,12.3-30.2,17.3-43.6,8.7c-6.5-4.2-9-10.5-13.7-22.6C531.1,874.9,529.1,862.1,528.3,853.4L528.3,853.4z"/>
		<path id="Shape_11_" class="st2" d="M553.7,888c-1.5,3.1-4.8,5-8.2,4.4c-0.9-0.2-1.3,1.3-0.4,1.4c4.1,0.7,8.2-1.3,9.9-5.1
			C555.4,887.9,554.2,887.1,553.7,888L553.7,888z M567.6,887c3.3,3.2,7.7,4.6,12.2,3.9c1-0.1,0.5-1.6-0.4-1.4
			c-4,0.6-7.9-0.7-10.8-3.5C567.9,885.3,566.9,886.3,567.6,887L567.6,887z M562.3,896.5c-0.3,0-0.5-0.1-0.8-0.1
			c0.1-0.1,0.1-0.3,0.2-0.4c0.2,0.2,0.5,0.4,0.7,0.6c0-0.2-0.1-0.3-0.1-0.5c-0.3-0.9-1.7-0.5-1.4,0.4c0.5,2.2,1.3,5.6-1.4,6.7
			c-0.9,0.4-0.5,1.8,0.4,1.4c3.6-1.5,3.2-5.4,2.5-8.6c-0.5,0.1-1,0.3-1.4,0.4c0,0.2,0.1,0.3,0.1,0.5c0.1,0.3,0.4,0.6,0.7,0.6
			c2.6-0.2,0.5-3.8-0.7-1.7C560.6,896.5,561.8,897.3,562.3,896.5L562.3,896.5z"/>
		<path id="Shape_12_" class="st2" d="M561.3,897.2c0.5,1.7,0.6,3.6,1.7,5.1c0.9,1.2,2.3,1.8,3.8,1.5c0.9-0.2,0.5-1.6-0.4-1.4
			c-2.8,0.6-3.2-3.8-3.7-5.6C562.5,895.9,561.1,896.3,561.3,897.2z M556.5,898.6c-2.9-1.3-5.9-1.9-9.1-1.7c-1,0.1-1,1.6,0,1.5
			c2.9-0.2,5.7,0.3,8.3,1.5C556.6,900.3,557.4,899,556.5,898.6L556.5,898.6z M553.9,900.6c-2.5,0.2-4.7,1.2-6.4,2.9
			c-0.7,0.7,0.4,1.7,1.1,1.1c1.5-1.4,3.3-2.3,5.4-2.5C554.8,902,554.8,900.5,553.9,900.6z M568.2,897.9c2.9-1.1,5.8-1.5,8.9-1.2
			c1,0.1,1-1.4,0-1.5c-3.2-0.3-6.3,0.2-9.3,1.3C566.9,896.8,567.2,898.3,568.2,897.9L568.2,897.9z M570.2,900.6
			c2.2-0.3,4.3-0.1,6.4,0.7c0.9,0.3,1.3-1.1,0.4-1.4c-2.2-0.8-4.5-1-6.8-0.7C569.2,899.2,569.2,900.8,570.2,900.6z M546.6,883.6
			c1.5-0.9,3.3-0.9,4.8,0c0.8,0.5,1.6-0.8,0.8-1.3c-2-1.1-4.3-1.1-6.3,0C545,882.8,545.8,884.1,546.6,883.6z M567.6,881.6
			c1.5-0.8,3.2-1,5-0.8c0.9,0.1,1.4-1.3,0.4-1.4c-2.1-0.3-4.2,0-6.1,1C565.9,880.7,566.7,882,567.6,881.6L567.6,881.6z"/>
		<path id="Shape_13_" class="st1" d="M543.7,850.2c3.1-1.3,6.2-2.6,9.2-4c-0.6-0.4-1.1-0.8-1.7-1.3c-1.2,3.8-3,7.2-5.4,10.4
			c-0.6,0.8,0.4,2,1.3,1.7c3.4-1.3,6.8-2.5,10.2-3.8c1.3-0.5,0.8-2.7-0.6-2.2c-3.4,1.3-6.8,2.5-10.2,3.8c0.4,0.6,0.8,1.1,1.3,1.7
			c2.6-3.3,4.4-6.9,5.7-10.9c0.3-1-0.8-1.6-1.7-1.3c-3.1,1.3-6.2,2.6-9.2,4C541.2,848.9,542.4,850.8,543.7,850.2L543.7,850.2z
			 M548.7,832c2.1-1.2,4.2-2,6.5-2.5c-0.4-0.6-0.8-1.1-1.3-1.7c-0.9,2-2,4-3.3,5.8c-0.5,0.8,0.2,1.6,1,1.7c2.7,0.2,5.2-0.5,7.3-2.1
			c1.1-0.9,0-2.8-1.1-1.9c-1.8,1.4-3.8,2-6.1,1.8c0.3,0.6,0.6,1.1,1,1.7c1.3-1.9,2.4-3.8,3.3-5.8c0.4-0.9-0.3-1.9-1.3-1.7
			c-2.5,0.5-4.9,1.4-7.1,2.7C546.3,830.8,547.4,832.7,548.7,832z M565.2,856.2c-3.3-3.3,2.4-5.2,3-8.1c0.6-3.4-3.4-6.6,1.1-9.2
			c1.3-0.7,0.1-2.7-1.1-1.9c-1.6,0.9-2.9,2.3-3.3,4.2c-0.6,3.2,2.2,5.1-0.2,8c-1.1,1.4-2.4,1.8-2.8,3.7c-0.4,1.9,0.4,3.5,1.7,4.9
			C564.7,858.8,566.3,857.2,565.2,856.2L565.2,856.2z"/>
		<path id="Path_12_" class="st3" d="M841.3,570.7c-250.7,18.1-501.4,36.1-752,54.2C82.5,443.1,75.7,261.3,69,79.5l755.4-10.2
			C830,236.4,835.6,403.5,841.3,570.7z"/>
		<path id="Shape_14_" class="st1" d="M282,168h145.9c1.9,0,1.9-3,0-3H282C280.1,165,280.1,168,282,168z M336.6,180.3h150.3
			c1.9,0,1.9-3,0-3H336.6C334.6,177.3,334.6,180.3,336.6,180.3z M99.4,473.7c1.8,41.8,3.6,83.7,5.4,125.5c0.1,1.9,3.1,1.9,3,0
			c-1.8-41.8-3.6-83.7-5.4-125.5C102.3,471.8,99.3,471.8,99.4,473.7z M319.7,449.3h13c1.9,0,1.9-3,0-3h-13
			C317.8,446.3,317.8,449.3,319.7,449.3z M344,449.3h33.2c1.9,0,1.9-3,0-3H344C342.1,446.3,342.1,449.3,344,449.3z M402.3,447.7H442
			c1.9,0,1.9-3,0-3h-39.7C400.4,444.7,400.4,447.7,402.3,447.7z M337.6,470.3h48.6c1.9,0,1.9-3,0-3h-48.6
			C335.6,467.3,335.6,470.3,337.6,470.3z M361,459h56.7c1.9,0,1.9-3,0-3H361C359.1,456,359.1,459,361,459z M461.4,565.9h95.5
			c1.9,0,1.9-3,0-3h-95.5C459.5,562.9,459.5,565.9,461.4,565.9z M539.9,574h50.2c1.9,0,1.9-3,0-3h-50.2C538,571,538,574,539.9,574z
			 M583.6,561.8H633c1.9,0,1.9-3,0-3h-49.4C581.7,558.8,581.7,561.8,583.6,561.8z M667.8,290.7h91.5c1.9,0,1.9-3,0-3h-91.5
			C665.9,287.7,665.9,290.7,667.8,290.7z M639.5,295.5h29.1c1.9,0,1.9-3,0-3h-29.1C637.5,292.5,637.5,295.5,639.5,295.5z
			 M645.1,303.6H743c1.9,0,1.9-3,0-3h-97.9C643.2,300.6,643.2,303.6,645.1,303.6z M765.8,296.3h18.6c1.9,0,1.9-3,0-3h-18.6
			C763.8,293.3,763.8,296.3,765.8,296.3z M741.5,418.5H769c1.9,0,1.9-3,0-3h-27.5C739.5,415.5,739.5,418.5,741.5,418.5z
			 M723.7,426.6h29.9c1.9,0,1.9-3,0-3h-29.9C721.7,423.6,721.7,426.6,723.7,426.6z M738.2,434.7h59.1c1.9,0,1.9-3,0-3h-59.1
			C736.3,431.7,736.3,434.7,738.2,434.7z M775.5,425h17.8c1.9,0,1.9-3,0-3h-17.8C773.5,422,773.5,425,775.5,425z M363.6,300.3h41.9
			c1.9,0,1.9-3,0-3h-41.9C361.7,297.3,361.7,300.3,363.6,300.3z M394.1,308.9H456c1.9,0,1.9-3,0-3h-61.9
			C392.2,305.9,392.1,308.9,394.1,308.9z M448.4,297.4h35.2c1.9,0,1.9-3,0-3h-35.2C446.5,294.4,446.5,297.4,448.4,297.4z
			 M90.5,137.8l6.6,227.8c0.6,21.6,1.2,43.1,1.9,64.7c0.1,1.9,3.1,1.9,3,0l-6.6-227.8c-0.6-21.6-1.2-43.1-1.9-64.7
			C93.5,135.9,90.5,135.9,90.5,137.8z M817.4,385.9l4.5,150.5c0.1,1.9,3.1,1.9,3,0l-4.5-150.5C820.4,384,817.4,384,817.4,385.9
			L817.4,385.9z"/>
		<path id="Shape_15_" class="st4" d="M610.3,362.9c0.6,6.1,1.2,12.3,1.7,18.4c5.8-1.5,11.5-3.1,17.3-4.6
			c-0.8-6.1-1.5-12.3-2.3-18.4C621.4,359.8,615.9,361.4,610.3,362.9z M606.8,409.6c6-0.8,11.9-1.5,17.9-2.3
			c0.8,7.3,1.5,14.6,2.3,21.9c-5.4,0.2-10.8,0.4-16.1,0.6C609.5,423,608.2,416.3,606.8,409.6L606.8,409.6z M628.7,453.9
			c1.9,6.3,3.8,12.7,5.8,19c5.4-2.5,10.8-5,16.1-7.5c-1.7-5.6-3.5-11.1-5.2-16.7C639.9,450.5,634.3,452.2,628.7,453.9L628.7,453.9z"
			/>
		<path id="Path_13_" class="st4" d="M233.4,513.5c1.3,19.4,2.6,38.8,3.9,58.1c34-2.2,68-4.3,102-6.5c0.6-17.4,1.3-34.9,1.9-52.3
			C305.3,513.1,269.3,513.3,233.4,513.5L233.4,513.5z"/>
		<ellipse id="Oval" class="st4" cx="656.1" cy="112.9" rx="7.1" ry="5.9"/>
		<ellipse id="Oval_1_" class="st4" cx="173.6" cy="159.1" rx="5.9" ry="3.9"/>
		<ellipse id="Oval_2_" class="st4" cx="267.5" cy="270.7" rx="4.6" ry="5.4"/>
		<path id="Path_14_" class="st5" d="M225.3,141.4c1.8-0.3,5.3,16.4,13.9,46.7c11.3,39.9,22.5,72.1,30.6,94.1
			c-12.3,7.6-39.8,22.1-77.3,22.6c-26.5,0.3-47.4-6.5-59.8-11.7c24.3,2.7,43.9,2,57.6,0.7c21.7-2,17.9-4.3,34.3-5.1
			c6.8-0.3,15.7-0.3,24.8-5.8c3.3-2,5.7-4.2,7.3-5.8c-6.4-13.2-14.6-32.6-21.2-56.9C225,180.7,222.7,141.9,225.3,141.4L225.3,141.4z
			"/>
		<path id="Path_15_" class="st6" d="M319,249.9c1.6,12.7,4.5,26.9,9.3,42.1c13.7,43.2,36.8,74,54.2,93
			c-10.4,7.7-23.3,15.7-38.8,22.4c-47,20.3-90.9,17.3-114.4,13.7l-2.7-15.9c10,0.3,20.6,0.1,31.7-0.5c39.6-2.5,73.6-11.4,100.7-21.3
			c-8.6-14.6-14.8-27.2-19.1-36.7c-10.4-22.7-18.1-39.8-20.8-62.9C317.4,269.7,318.1,257.8,319,249.9L319,249.9z"/>
		<path id="Path_16_" class="st7" d="M636.9,316.1c1,22.8,3.4,41.7,5.5,55.3c4.9,31.2,8.5,52.8,21.3,77.1c8,15.1,17,26.2,23.5,33.4
			c-11.3,9.7-26.5,20.7-46,29.5c-49,22.3-95,17.8-116.5,14.2c-1.1-4.9-2.2-9.8-3.3-14.8c2.7,0.2,6.9,0.4,12,0.5
			c17,0.4,52.4,1,93-12.6c11.4-3.8,27.4-10.2,45.4-20.8c-7.1-9.5-14.1-20.8-20.2-33.9C627.5,392.3,632.3,342.1,636.9,316.1
			L636.9,316.1z"/>
		<path id="Path_17_" class="st8" d="M713.5,91.8c2,9.3,4.9,23.5,7.8,41.2c5.4,34.2,5,46.6,11.3,66.8c3.3,10.5,9.2,25.4,20.3,42.4
			c-9.3,7.6-20.9,15.5-35.2,22.1c-46.8,21.7-91.6,15.6-112.2,11.3c0.2-4,0.4-8,0.6-11.9c2.6,0.7,6.5,1.6,11.3,2.4
			c6.3,1,29.6,4.4,73.4-6.6c12.1-3,28.4-7.8,47.1-15.5c-3.6-6.4-8.9-16.4-13.7-29.2c-14-37.1-13.9-69.3-13.7-85.9
			C710.6,119.8,711.2,107.1,713.5,91.8L713.5,91.8z"/>
		<g id="Group" transform="translate(111.000000, 89.000000)">
			<path id="Path_18_" class="st1" d="M4.7,46.7c-9.9,52.4,0.1,105.4,10.1,157c0.4,1.9,3.3,1.1,2.9-0.8C7.8,151.9-2.1,99.4,7.6,47.5
				C7.9,45.7,5,44.8,4.7,46.7z"/>
			<path id="Shape_16_" class="st1" d="M7.5,46.3C21.8,55.9,39.1,57.6,56,56.4c19.3-1.4,38.4-5.5,57.5-8.7c1.9-0.3,1.1-3.2-0.8-2.9
				c-18.3,3-36.6,6.9-55.1,8.4C40.7,54.6,23.4,53.3,9,43.6C7.4,42.6,5.9,45.2,7.5,46.3L7.5,46.3z M111.5,49.8
				c2.8,47.8,10,96.6,34.2,138.6c1,1.7,3.6,0.2,2.6-1.5c-23.9-41.6-31-89.9-33.8-137.1C114.4,47.9,111.4,47.9,111.5,49.8z"/>
			<path id="Shape_17_" class="st1" d="M17.3,204.5c22.7,6.6,47.1,2.6,70.2,0.7c20.5-1.7,42.5-2.5,60.1-14.5
				c1.6-1.1,0.1-3.7-1.5-2.6c-17.7,12.1-39.9,12.5-60.5,14.2c-22.2,1.8-45.6,5.5-67.5-0.8C16.2,201.1,15.4,204,17.3,204.5
				L17.3,204.5z M55.7,70.7c-2-0.9,0.2-2.8,1.4-3.1c1.5-0.4,4.4-0.6,5.1,1.1c0.5,1.3-0.3,3-1.5,3.5c-1.9,0.9-4-0.2-5.3-1.5
				c-1.4-1.4-3.5,0.7-2.1,2.1c2.5,2.5,6.6,3.8,9.7,1.5c2.5-1.8,3.4-5.8,1.3-8.2c-2.4-2.7-7.5-2.4-10.2-0.4c-2.4,1.8-2.9,6.1,0.2,7.5
				C56,74.1,57.5,71.5,55.7,70.7L55.7,70.7z"/>
			<path id="Shape_18_" class="st1" d="M95.8,204.9c-7.2,36.5,0.5,73.4,8.3,109.2c0.4,1.9,3.3,1.1,2.9-0.8
				c-7.7-35.2-15.3-71.6-8.3-107.6C99.1,203.8,96.2,203,95.8,204.9L95.8,204.9z M137.1,166.6c23.1-4.4,46.5-6,69.9-5.1l-1.5-1.5
				c-4.7,48.2,15.9,94.1,40.9,134c1,1.6,3.6,0.1,2.6-1.5c-24.7-39.5-45.2-84.8-40.5-132.5c0.1-0.8-0.8-1.5-1.5-1.5
				c-23.7-0.9-47.4,0.8-70.7,5.2C134.4,164.1,135.2,167,137.1,166.6L137.1,166.6z"/>
			<path id="Shape_19_" class="st1" d="M105.7,316.2c48.6,5.7,97.9-1.6,142.9-20.8c1.8-0.8,0.2-3.3-1.5-2.6
				c-44.4,19-93.4,26-141.4,20.4C103.8,313,103.8,316,105.7,316.2L105.7,316.2z M155.9,178.9c0-0.1,0.3-0.6,0.3-0.8
				c0.1-0.4,0.4-0.8,0.7-1.1c0.6-0.5,1.3-0.9,2.1-1c1.5-0.2,2.9,0.6,3.3,2.1c0.3,1.2-0.2,2.8-1.6,3c-1.3,0.2-2.5-0.7-2.7-2
				c-0.3-1.9-3.2-1.1-2.9,0.8c0.5,3.5,5,5.2,7.9,3.5c3.2-1.9,3-6.8,0.3-9.1c-3-2.5-8-1.2-9.7,2.2c-0.8,1.7-0.8,4,1.1,5
				c1.5,0.8,3.7,0.1,4.1-1.8C159.1,177.8,156.2,177,155.9,178.9L155.9,178.9z M14.6,101.1c26.6,3.7,53-1.8,78.5-9.1
				c1.9-0.5,1.1-3.4-0.8-2.9c-25,7.1-50.9,12.7-76.9,9.1C13.5,97.9,12.7,100.8,14.6,101.1L14.6,101.1z M19.6,120.7
				c13.8,1.5,27.6,0.1,40.9-4.1c1.8-0.6,1.1-3.5-0.8-2.9c-13,4.1-26.5,5.4-40.1,4C17.7,117.5,17.7,120.5,19.6,120.7L19.6,120.7z
				 M19.6,144.9c26.4,3.1,53,1.2,78.6-5.5c1.9-0.5,1.1-3.4-0.8-2.9c-25.4,6.7-51.7,8.5-77.8,5.4C17.7,141.6,17.7,144.6,19.6,144.9z
				 M118.4,298.4c26.5,1.2,53-2,78.4-9.6c1.8-0.5,1.1-3.4-0.8-2.9c-25.2,7.5-51.3,10.7-77.6,9.5
				C116.4,295.3,116.4,298.3,118.4,298.4z M123.5,275.5c11.8-0.4,23.6-1.3,35.4-2.6c1.9-0.2,1.9-3.2,0-3
				c-11.8,1.3-23.5,2.2-35.4,2.6C121.6,272.6,121.6,275.6,123.5,275.5z M133.1,234.3c7.8,1,15.9-1,23.6-2.1
				c8.5-1.3,16.9-2.5,25.4-3.8c1.9-0.3,1.1-3.2-0.8-2.9c-7.8,1.2-15.7,2.4-23.5,3.5c-8.1,1.2-16.5,3.4-24.7,2.3
				C131.2,231,131.2,234,133.1,234.3z M486.5,10.1c-10.9,53.5-12,108.5-3.3,162.4c0.3,1.9,3.2,1.1,2.9-0.8
				c-8.6-53.3-7.4-107.9,3.3-160.8C489.8,9,486.9,8.2,486.5,10.1z"/>
			<path id="Path_19_" class="st1" d="M489.9,10.8c36.3-8.3,73.8-10,110.8-5c1.9,0.3,2.7-2.6,0.8-2.9C564-2.2,526-0.5,489.1,7.9
				C487.3,8.4,488.1,11.3,489.9,10.8L489.9,10.8z"/>
			<path id="Path_20_" class="st1" d="M599.8,3.1c-1.1,51.5-0.4,105.9,25.7,152c1,1.7,3.5,0.2,2.6-1.5
				C602.3,108,601.7,54.1,602.8,3.1C602.9,1.2,599.9,1.2,599.8,3.1L599.8,3.1z"/>
			<path id="Shape_20_" class="st1" d="M485.5,174.1c11.2,3.4,23.2,3.6,34.8,3.7c12.5,0.1,25-0.7,37.5-2.4
				c23.9-3.2,47.2-9.7,69.5-19.1c1.8-0.7,0.2-3.3-1.5-2.6c-22.3,9.4-45.8,15.8-69.8,18.9c-11.2,1.4-22.5,2.2-33.8,2.1
				c-11.9,0-24.4-0.1-35.8-3.6C484.4,170.7,483.7,173.6,485.5,174.1L485.5,174.1z M546.7,14c-3.4,1.2-4.9,5.1-3.7,8.4
				c1.4,3.7,5.7,4.6,8.9,2.4c3.1-2.2,4.1-6.6,1.1-9.4c-2.6-2.4-7.1-2.5-9.5,0.1c-1.3,1.4,0.8,3.5,2.1,2.1c3-3.2,8.9,1.3,4.8,4.5
				c-1.6,1.2-3.9,1.2-4.6-0.9c-0.5-1.6,0-3.8,1.7-4.4C549.3,16.2,548.5,13.3,546.7,14L546.7,14z M488,56.6
				c27.3,0.7,54.5,0.2,81.7-1.6c1.9-0.1,1.9-3.1,0-3c-27.2,1.8-54.5,2.4-81.7,1.6C486,53.6,486,56.6,488,56.6z M490.7,71.8
				c10.2,0.4,20.4,0.8,30.5,1.2c1.9,0.1,1.9-2.9,0-3c-10.2-0.4-20.4-0.8-30.5-1.2C488.7,68.7,488.7,71.7,490.7,71.8z M487.9,93
				c25.7,1.4,51.7,2.6,77-3c1.9-0.4,1.1-3.3-0.8-2.9c-25.1,5.5-50.8,4.3-76.2,2.9C486,89.9,486,92.9,487.9,93z M115.1,418.1
				c-2.3,20-3.1,40.1-2.4,60.2c0.1,1.9,3.1,1.9,3,0c-0.7-20.1,0.1-40.2,2.4-60.2C118.3,416.2,115.3,416.2,115.1,418.1z"/>
			<path id="Path_21_" class="st1" d="M116.1,419.3c35.6,0,71.3-0.5,106.9-1.6c1.9-0.1,1.9-3.1,0-3c-35.6,1.1-71.3,1.6-106.9,1.6
				C114.2,416.3,114.2,419.3,116.1,419.3z"/>
			<path id="Path_22_" class="st1" d="M222.7,416.3l0.9,52.1c0,1.9,3,1.9,3,0l-0.9-52.1C225.7,414.4,222.6,414.4,222.7,416.3z"/>
			<path id="Shape_21_" class="st1" d="M112.4,476.1c0.2,6.5,11.5,3.6,15.2,3.4c10.6-0.7,21.2-1.4,31.7-2.2
				c21.5-1.5,43-2.9,64.5-4.4c1.9-0.1,1.9-3.1,0-3c-18.3,1.2-36.5,2.5-54.8,3.7l-26.1,1.8c-2.6,0.2-27.5,2.6-27.6,0.7
				C115.4,474.2,112.4,474.2,112.4,476.1L112.4,476.1z M124.2,432.8c24-1.1,48-0.2,71.8,2.8c1.9,0.2,1.9-2.8,0-3
				c-23.8-3-47.8-3.9-71.8-2.8C122.2,429.9,122.2,432.9,124.2,432.8z M125.1,448c13.4-1,26.9-2.1,40.3-3.1c1.9-0.1,1.9-3.1,0-3
				c-13.4,1-26.9,2.1-40.3,3.1C123.2,445.1,123.2,448.1,125.1,448z M129.6,463.3c19.3-2.5,40.3-7.6,59.7-4.1
				c1.9,0.3,2.7-2.5,0.8-2.9c-19.8-3.6-40.8,1.4-60.5,4C127.8,460.6,127.7,463.6,129.6,463.3z M389.7,247.9
				c-15.9,56.6-13.9,117.2,5.6,172.7c0.6,1.8,3.5,1,2.9-0.8c-19.3-55-21.3-115-5.6-171.1C393.1,246.8,390.2,246,389.7,247.9
				L389.7,247.9z"/>
			<path id="Path_23_" class="st1" d="M391.7,248.9c44.5-0.2,88.8-6,131.9-17.3c1.9-0.5,1.1-3.4-0.8-2.9
				c-42.8,11.2-86.8,17-131.1,17.2C389.7,245.9,389.7,248.9,391.7,248.9z"/>
			<path id="Path_24_" class="st1" d="M522.8,229.8c-1.8,27.8-0.6,55.8,4.4,83.3c2.5,13.9,5.5,27.8,11,40.8
				c5.5,12.9,13.1,24.6,22,35.3c1.2,1.5,3.4-0.6,2.1-2.1c-9.1-10.9-16.8-23-22.2-36.2c-5.1-12.6-7.9-26.1-10.2-39.4
				c-4.8-26.9-5.9-54.4-4.2-81.7C525.9,227.9,522.9,227.9,522.8,229.8L522.8,229.8z"/>
			<path id="Shape_22_" class="st1" d="M395.7,422.2c56.6,4,115.7-2.4,165.3-31.6c1.7-1,0.2-3.6-1.5-2.6
				c-49.3,29-107.8,35.1-163.8,31.2C393.8,419,393.8,422,395.7,422.2z M455.9,257.9c-1.7-2.9,1.7-6.5,4.6-4.2
				c3.1,2.5-0.2,6.5-3.5,5.2c-1.8-0.7-2.6,2.2-0.8,2.9c2.7,1.1,6-0.1,7.6-2.5c1.8-2.7,1-6.1-1.5-8c-5.4-4.3-12.2,2.4-9,8.1
				C454.3,261.1,456.9,259.6,455.9,257.9L455.9,257.9z M392.7,292.4c29.9-0.5,59.8-2.6,89.6-6.2c1.9-0.2,1.9-3.2,0-3
				c-29.7,3.7-59.6,5.7-89.6,6.2C390.8,289.5,390.8,292.5,392.7,292.4z M493,272.3c0.9,4.6,1.8,9.3,2.7,13.9
				c0.4,1.9,3.3,1.1,2.9-0.8c-0.9-4.6-1.8-9.3-2.7-13.9C495.6,269.6,492.7,270.4,493,272.3z"/>
			<path id="Path_25_" class="st1" d="M495,271.9c5.5-0.8,11-1.6,16.6-2.5c1.9-0.3,1.1-3.2-0.8-2.9c-5.5,0.8-11,1.6-16.6,2.5
				C492.3,269.3,493.1,272.2,495,271.9z"/>
			<path id="Path_26_" class="st1" d="M510.7,268.5c0.8,4.3,1.5,8.6,2.3,12.8c0.3,1.9,3.2,1.1,2.9-0.8c-0.8-4.3-1.5-8.6-2.3-12.8
				C513.3,265.9,510.4,266.7,510.7,268.5z"/>
			<path id="Shape_23_" class="st1" d="M498.2,288.5c5.9-1.2,11.5-2.8,17.1-5c1.8-0.7,1-3.6-0.8-2.9c-5.6,2.1-11.3,3.8-17.1,5
				C495.5,286,496.3,288.9,498.2,288.5z M498.7,275.3c1.1,2.5,2.6,4.5,4.8,6.2c0.8,0.6,2.3,0.6,2.5-0.7c0.8-5.4,2.7-10.2,5.9-14.7
				c1.1-1.6-1.5-3.1-2.6-1.5c-3.3,4.6-5.4,9.8-6.2,15.4c0.8-0.2,1.7-0.4,2.5-0.7c-1.9-1.5-3.3-3.3-4.3-5.6
				C500.5,272,497.9,273.5,498.7,275.3L498.7,275.3z M499.8,318.2c-1.6,7.2-0.9,14.2,2,20.9c0.8,1.8,3.3,0.2,2.6-1.5
				c-2.6-5.9-3.1-12.3-1.7-18.6C503.1,317.1,500.2,316.3,499.8,318.2z"/>
			<path id="Path_27_" class="st1" d="M501.8,319.2c6-1,12-1.9,18-2.9l-1.8-1.8c-1,6.4-0.3,12.5,2.2,18.5c0.7,1.8,3.6,1,2.9-0.8
				c-2.3-5.4-3.1-11.1-2.2-16.9c0.2-1.2-0.6-2-1.8-1.8c-6,0.9-12,1.9-18,2.9C499.1,316.6,499.9,319.5,501.8,319.2L501.8,319.2z"/>
			<path id="Shape_24_" class="st1" d="M503.1,339.2c6.6-0.2,12.9-1.5,19.1-3.7c1.8-0.7,1-3.6-0.8-2.9c-5.9,2.2-12,3.4-18.3,3.6
				C501.2,336.2,501.2,339.2,503.1,339.2L503.1,339.2z M504,325.3c0.9,2.6,2.4,4.4,4.8,5.8c1.1,0.6,2.1-0.2,2.3-1.3
				c0.6-5.3,2-10.4,4.2-15.3c0.8-1.7-1.8-3.3-2.6-1.5c-2.4,5.4-3.9,11-4.6,16.8c0.8-0.4,1.5-0.9,2.3-1.3c-1.7-1-2.7-2.2-3.4-4.1
				C506.3,322.7,503.4,323.5,504,325.3L504,325.3z M506,364.6c0.7,6.7,2.5,13,5.5,19c0.8,1.7,3.4,0.2,2.6-1.5
				c-2.7-5.5-4.4-11.4-5-17.5C508.8,362.7,505.8,362.7,506,364.6z"/>
			<path id="Path_28_" class="st1" d="M507.4,364.3c7.7,0.7,14.9-0.7,21.8-4.1c-0.7-0.3-1.5-0.6-2.2-0.9c1.3,6.1,4,11.4,8.2,16.1
				c1.3,1.4,3.4-0.7,2.1-2.1c-3.8-4.3-6.2-9.1-7.4-14.7c-0.2-1-1.4-1.3-2.2-0.9c-6.4,3.1-13.2,4.3-20.3,3.7
				C505.5,361.2,505.5,364.2,507.4,364.3z"/>
			<path id="Shape_25_" class="st1" d="M514.2,384.7c7.8-2.9,15.5-6,23-9.4c1.8-0.8,0.2-3.4-1.5-2.6c-7.3,3.3-14.8,6.3-22.3,9.1
				C511.6,382.5,512.4,385.4,514.2,384.7z M512.6,369.6c2.4,2.1,7.9,9.3,10.7,4c1.3-2.4,1-5.7,1.8-8.4c1.2-3.8,3.2-7.3,5.8-10.3
				c1.2-1.5-0.9-3.6-2.1-2.1c-2.8,3.3-5,6.9-6.3,11.1c-0.6,1.9-1.1,3.9-1.4,5.9c-0.4,2.5-1.1,1.9-3,0.7c-1.2-0.8-2.3-2-3.4-3
				C513.3,366.2,511.2,368.3,512.6,369.6L512.6,369.6z M395.4,341.3c28-0.3,55.9-2.6,83.5-7c1.9-0.3,1.1-3.2-0.8-2.9
				c-27.4,4.3-55,6.6-82.7,6.8C393.5,338.3,393.5,341.3,395.4,341.3z M392.2,300.7c18.1,0.5,36.1-0.1,54.1-1.6c1.9-0.2,1.9-3.2,0-3
				c-18,1.5-36.1,2-54.1,1.6C390.3,297.6,390.3,300.6,392.2,300.7z M396.5,347.2c19,0.9,38,0.2,56.8-2.2c1.9-0.2,1.9-3.2,0-3
				c-18.9,2.3-37.9,3.1-56.8,2.2C394.6,344.1,394.6,347.1,396.5,347.2z M459.7,343.6c5.4,0.1,10.7-0.6,15.9-2.3
				c1.8-0.6,1-3.5-0.8-2.9c-4.9,1.6-9.9,2.3-15.1,2.2C457.8,340.6,457.8,343.6,459.7,343.6L459.7,343.6z M406.7,384.8
				c22.8-1.4,45.5-3.5,68.1-6.6c1.9-0.3,1.9-3.3,0-3c-22.6,3-45.3,5.2-68.1,6.6C404.7,381.9,404.7,384.9,406.7,384.8z M409.3,391.8
				h22.5c1.9,0,1.9-3,0-3h-22.5C407.4,388.8,407.4,391.8,409.3,391.8z M415.8,398.5c11.7-0.7,23.4-1.8,35.1-3.2
				c9.4-1.2,19.5-1.7,27.6-7.2c1.6-1.1,0.1-3.7-1.5-2.6c-8.5,5.8-19.9,6.1-29.8,7.2c-10.4,1.2-20.9,2.1-31.3,2.8
				C413.9,395.6,413.8,398.6,415.8,398.5L415.8,398.5z M530,317.7c18.2-0.9,36.3-3.3,54.2-7.1c-0.6-0.3-1.2-0.7-1.8-1
				c8.4,25,20.8,48.3,36.7,69.4c1.1,1.5,3.8,0,2.6-1.5c-15.7-20.8-28-43.9-36.4-68.6c-0.3-0.8-1-1.2-1.8-1
				c-17.6,3.8-35.4,6.1-53.4,7C528,314.8,528,317.8,530,317.7L530,317.7z"/>
			<path id="Shape_26_" class="st1" d="M533.1,402.1c2.7,3.8,4.9,7.8,6.8,12.1c0.2,0.6,1.1,0.9,1.7,0.7
				c14.7-4.9,29.2-10.3,43.4-16.4c7.2-3.1,14.3-6.3,21.4-9.7c3.4-1.6,6.8-3.3,10.1-5c2-1,4.3-1.6,5-3.8c0.2-0.6-0.1-1.4-0.7-1.7
				c-0.9-0.5-1.4-0.5-2.3,0c-0.6,0.3-0.9,1.1-0.7,1.7c0,0.1,0.1,0.2,0.1,0.3c0.5,1.9,3.4,1.1,2.9-0.8c0-0.1-0.1-0.2-0.1-0.3
				c-0.2,0.6-0.5,1.1-0.7,1.7h-0.7c-0.2-0.6-0.5-1.1-0.7-1.7c-0.6,1.8-6.9,3.7-8.6,4.6c-2.8,1.4-5.6,2.7-8.5,4.1
				c-6.7,3.2-13.5,6.2-20.4,9.1c-13.2,5.6-26.7,10.6-40.3,15.1c0.6,0.2,1.1,0.5,1.7,0.7c-1.8-4.3-4.1-8.3-6.8-12.1
				C534.6,399,532,400.5,533.1,402.1L533.1,402.1z M550.5,325.5c-0.2-1.3,2.2-2.5,3.1-1.6c1.2,1.2-0.8,3.4-2.2,2.9
				c-1.8-0.7-2.6,2.2-0.8,2.9c4.3,1.6,8.5-4.6,5.2-7.9c-1.5-1.5-3.8-1.4-5.6-0.5c-1.9,1-2.9,2.9-2.5,5
				C547.9,328.2,550.8,327.3,550.5,325.5z M107.4,245.5c11.1,0.2,22.3-0.3,33.3-1.8c11.5-1.6,22.9-4.9,34.6-4.4c1.9,0.1,1.9-2.9,0-3
				c-10.7-0.4-21.1,2.3-31.6,3.9c-12,1.9-24.2,2.6-36.4,2.3C105.5,242.5,105.5,245.5,107.4,245.5L107.4,245.5z M109,212.4
				c17,1.3,34-0.2,50.5-4.5c1.9-0.5,1.1-3.4-0.8-2.9c-16.3,4.2-32.9,5.7-49.7,4.4C107.1,209.3,107.1,212.3,109,212.4z M493.8,128.2
				c-1.7,11-3.1,22.9,3.8,32.5c1.1,1.6,3.7,0.1,2.6-1.5c-6.4-8.9-5-20-3.5-30.2C497,127.1,494.1,126.3,493.8,128.2z"/>
			<path id="Path_29_" class="st1" d="M494.7,128.1c23.8,0.9,47.6-1.4,70.8-6.9c-0.6-0.3-1.2-0.7-1.8-1c2.1,10.3,6.1,19.9,11.7,28.7
				c1,1.6,3.6,0.1,2.6-1.5c-5.5-8.6-9.3-18-11.4-28c-0.2-0.8-1.1-1.2-1.8-1c-22.9,5.4-46.4,7.7-70,6.8
				C492.8,125,492.8,128,494.7,128.1L494.7,128.1z"/>
			<path id="Shape_27_" class="st1" d="M500.1,160.6c25.8-0.8,51.3-4.6,76.1-11.4c1.9-0.5,1.1-3.4-0.8-2.9
				c-24.6,6.8-49.8,10.6-75.3,11.3C498.1,157.7,498.1,160.7,500.1,160.6L500.1,160.6z M852.7,859.1v33.8c-80,31.7-96.3,43-95.1,47.1
				c0.3,1,2.4,4,44.4-0.9c41.6-4.9,75.3-12,98.7-17.8c-4.1-23.1-8.3-46.2-12.4-69.3C876.4,854.4,864.5,856.8,852.7,859.1
				L852.7,859.1z"/>
		</g>
		<path id="Path_30_" class="st9" d="M999.6,469.8c-2.3,4.3-3.1,7.8-3.3,8.6c-14.3,60.8-33,96.7-45.2,167.2
			c-23.3,135.8-3.2,290.1-1.3,304.6c6.4,2.8,18.7,7,34.4,6.4c13.8-0.6,24.5-4.7,30.6-7.6c-2.3-44.3,0-99,15.3-159.3
			c18.7-73.9,42.4-98.4,63.7-184.8c15.8-64,34.1-138.5,2.5-160.6C1072.1,427.1,1015.4,439.7,999.6,469.8L999.6,469.8z"/>
		<path id="Path_31_" class="st10" d="M1054.9,501.7c-16,73-30.9,150.8-43.5,233.1c-11.9,77.4-20.8,151.5-27.4,221.9
			c10.1-2.1,20.1-4.2,30.2-6.3c-1.3-31.1,0.1-57.6,2.1-77.9c2.4-25.2,8.5-83.9,33-142.5c3.2-7.5,7.3-16.6,14-33.7
			c11.3-28.3,19.5-52.5,23.2-63.9c17.4-54.4,26.1-117.5,28.8-138.3C1095.1,496.5,1075,499.1,1054.9,501.7L1054.9,501.7z"/>
		<path id="Path_32_" class="st11" d="M1087.9,628.8c-39.2,51.1-57.5,97.4-66.7,128.5c-8.4,28.3-12.1,53.3-16.9,85.7
			c-6.8,46-9.4,84.8-10.5,112.4c6.6-1.6,13.1-3.3,19.7-4.9c-1.1-38.7,1.6-71.8,4.9-97.6c4-30.6,8.6-66.1,24.6-108.8
			c5.8-15.5,8.6-19.9,21.8-53.4C1075,664.5,1082.8,643,1087.9,628.8L1087.9,628.8z"/>
		<path id="Path_33_" class="st1" d="M1179.7,936.6c5.6,13.9,11.3,27.8,16.9,41.8c-47,29.9-69.2,47.3-66.7,52.4
			c3.1,6.3,43.7-6.2,121.8-37.3c-8.3-27-16.6-53.9-24.9-80.9L1179.7,936.6z"/>
		<path id="Path_34_" class="st9" d="M1141.1,471c24.5,22.4,23.7,53.8,26.8,105.8c0,0,7.6,127.9,33.1,230.7
			c6.4,25.7,18,65.6,39.5,113.4c-3.6,4.6-13.4,15.8-30.6,21.7c-17.6,6-32.6,2.8-38.2,1.3c-30.6-52.2-52.3-96.7-66.3-127.5
			c-64.9-142.2-70.1-217.1-70.1-256.2c0-40.2,0.7-88.4,30.6-104.5C1088.4,443.6,1121.4,453,1141.1,471z"/>
		<path id="Path_35_" class="st12" d="M1071.7,486.3c11.1,42.7,23.1,86.1,35.9,130.1c33.4,114.2,69.7,222.1,107.8,323.3
			c3.7-1.9,8.2-4.5,12.8-8c4.7-3.6,8.4-7.2,11.2-10.4c-5.2-12.1-12.4-29.6-20-51.1c-11.5-32.9-30.2-93.4-39.9-174
			c-9.3-77.4-14-116.1-13.6-140.5c0.3-20.1,2.1-61-23.9-83c-5.4-4.5-10.7-7.2-14.4-8.8C1108.9,471.4,1090.3,478.9,1071.7,486.3
			L1071.7,486.3z"/>
		<path id="Path_36_" class="st13" d="M1167.1,581.7c-4.6,46.5-6.1,108.8,5.1,180.8c11.3,72.4,31.8,131.5,50.3,174.5
			c5.7-4.7,11.4-9.4,17.1-14.2c-6.8-16.1-15.7-38.5-24.6-65.9c-17.1-52.7-24.5-93.8-30.9-130.7
			C1177.6,688.4,1170.8,639.5,1167.1,581.7L1167.1,581.7z"/>
		<path id="Path_37_" class="st14" d="M698.9,105.7c-4,2-9.5,5.5-13.8,11.5c-2.3,3.1-5.1,7.2-5.5,13c-0.1,2.3-0.4,7.3,2.8,10.6
			c0.9,1,3.3,2.9,15.1,2.5c10.5-0.4,15.8-0.6,18.5-3.4c5.2-5.4,3.3-15.6,0-21.7C710.8,108.5,700.6,106.1,698.9,105.7z"/>
		<path id="Path_38_" class="st14" d="M759.3,130.8c14.1,16.1,36.7,25.7,78.2,42.8C889.8,195.2,916,206,947,209.8
			c33.5,4.1,51.4-0.2,57.6,10.7c8.1,14.1-10.9,40.5-30.5,62.6c-14.6-3.2-29.7-7.2-45.3-12.4c-85.5-28.3-147.3-78.1-187.9-119.5
			c-5.1,1.1-13.8,2.2-23.7-0.8c-8.5-2.5-20.5-8.9-19.8-14c0.9-6.2,22.6-7.3,23.9-7.4c-6.6-2.7-16.1-7.3-26.4-14.8
			c-3-2.2-20.2-14.9-18.1-18.9c1.8-3.5,17.4,1.3,32.1,5.8c13.4,4.1,22.7,7,32.9,14C751.6,121.7,757.3,128.5,759.3,130.8z"/>
		<path id="Path_39_" class="st2" d="M690.1,106.8c2.4,2.7,2.9,6.3,5,9.1c1.8,2.5,4.4,4.3,7.1,5.8c8.1,4.5,16.7,8.2,25,12.3
			c1.4,0.7,3.2-1.2,1.8-2.4c-4.3-3.7-8.9-7-13.7-10c-1.6-1-3.2,1.6-1.5,2.6c4.6,2.9,9,6,13.1,9.5l1.8-2.4
			c-7.9-3.8-15.8-7.5-23.6-11.6c-3.7-1.9-7-4.1-8.9-7.9c-1.3-2.6-2-5.1-4-7.3C690.9,103.3,688.8,105.4,690.1,106.8L690.1,106.8z"/>
		<path id="Path_40_" class="st2" d="M697.9,117.3c4.6,2,9,4.6,13,7.7c1.5,1.2,3.6-0.9,2.1-2.1c-4.2-3.3-8.7-6-13.6-8.2
			C697.6,113.9,696.1,116.5,697.9,117.3z"/>
		<path id="Path_41_" class="st2" d="M686.1,105c3.8,6.1,8.8,11.1,14.7,15.1c1.6,1.1,3.1-1.5,1.5-2.6c-5.5-3.7-10.1-8.4-13.6-14.1
			C687.7,101.9,685.1,103.4,686.1,105z"/>
		<path id="Path_42_" class="st1" d="M690.6,113.2c2,2.7,4.2,5.2,6.7,7.4c1.8,1.6,9.7,7.3,5.6,10.2c-0.8,0.5,0,1.8,0.8,1.3
			c2.8-1.9,1.7-5.3,0-7.6c-1.3-1.7-3.1-3-4.8-4.5c-2.6-2.3-4.9-4.8-7-7.5C691.3,111.6,690,112.4,690.6,113.2L690.6,113.2z"/>
		<path id="Shape_28_" class="st1" d="M688.5,123.6c3,4.1,8.7,9.9,14.3,8.2c0.9-0.3,0.5-1.7-0.4-1.4c-4.8,1.5-10.1-4-12.6-7.5
			C689.2,122.1,687.9,122.8,688.5,123.6L688.5,123.6z M684.1,130.6c3.3,4.5,8.1,7.1,13.7,7.4c1,0.1,1-1.4,0-1.5
			c-5-0.3-9.4-2.7-12.4-6.7C684.8,129,683.5,129.8,684.1,130.6L684.1,130.6z M680.9,139.6c4.7,4.9,12.5,5,17.2,0
			c0.7-0.7-0.4-1.8-1.1-1.1c-4.1,4.4-10.9,4.3-15,0C681.3,137.8,680.2,138.9,680.9,139.6z M681.9,104.8c11.1,7.3,19.1,19.6,33,22
			c0.9,0.2,1.4-1.3,0.4-1.4c-13.7-2.3-21.7-14.6-32.6-21.8C681.8,102.9,681.1,104.2,681.9,104.8L681.9,104.8z"/>
		<path id="Path_43_" class="st10" d="M680.7,137.5c-3.6-4.9-0.6-15.4,8.1-25.3c9.8,5.7,19.5,11.5,29.3,17.2
			c-1.8,0-17.6,0.2-18.7,5.1c-0.2,0.8,0,2,1.5,3.7c5,2.4,13.4,5.6,24.2,5.9c5.6,0.1,10.5-0.6,14.3-1.5
			c20.4,20.6,56.3,51.7,109.1,74.3c46.4,19.8,88,25.5,115.5,27.1c-0.9,11.8-1.8,23.5-2.7,35.3c-45.3-12-106.7-34.8-167.7-80.6
			c-20.8-15.6-38.6-31.7-53.8-47.2c-14,2.3-22.7-0.1-28.2-2.9c-4.7-2.4-7.7-5.4-13.9-5.9c-4.1-0.3-7.6,0.7-12.1-1.5
			C685.1,141,682.2,139.5,680.7,137.5L680.7,137.5z"/>
		<path id="Path_44_" class="st7" d="M809.5,208.1c14,7.5,30.2,15.1,48.7,21.6c40.3,14.3,76.8,18.8,104.7,19.8
			c-0.4,10.2-0.7,20.5-1.1,30.7c-29-6.8-65.4-18.7-104-40.3C839.3,229.6,823.3,218.7,809.5,208.1L809.5,208.1z"/>
		<path id="Path_45_" class="st14" d="M967.6,236.6c-5.7,12.9-6,23.6-6.5,42.8c-0.4,14.5,0.6,30.1,8.4,71.1
			c9.5,49.6,14,57.6,15.5,83.9c1.2,20.6-0.4,37.5-1.9,48.7c12.6,6.9,33.7,16.3,61.3,18.4c48.8,3.7,84.9-17.8,97.3-26
			c1.5-31.4,3-62.9,4.6-94.3c-5.5-26.8-12-47.8-16.7-61.6c-14.8-43.5-28.6-64.1-19.8-85.9c4.9-12.1,14.6-19.5,21.3-23.6
			c-4.7-3.6-54-40.1-107.8-21.2C1017.7,190.8,982.3,203.3,967.6,236.6L967.6,236.6z"/>
		<path id="Path_46_" class="st11" d="M1023.1,188.8c15,24,23.4,45.2,28.2,60c0,0,23.5,71.4,6.3,167.2
			c-3.7,20.4-10.3,49.4-23.3,82.6c5,1.1,11,2,17.8,2.3c0,0,10.5,0.5,22.3-1c14.4-1.9,39.1-9.6,68.2-24.4l1.5-100.4
			c-7.4-28.3-14.9-51-20.5-66.9c-13.5-37.9-23-55.7-15.2-74.5c5.1-12.3,15.5-19.9,23.6-24.3c-10.6-7-30.2-17.9-57-22.1
			C1052.9,183.9,1034.7,186.3,1023.1,188.8L1023.1,188.8z"/>
		<path id="Path_47_" class="st15" d="M1036.8,186.5c16.1,19.8,34.9,48.7,46.5,86.8c32.9,108.8-21.2,204.2-33.7,225.1
			c10.5-0.1,22.8-1,36.2-3.6c23.9-4.6,43-12.8,56.7-20.1c0.5-31.2,1-62.4,1.5-93.5c-8.5-28.9-16.5-56.3-27.4-93.5
			c-7.4-25.5-13.2-46.4-2.3-63.1c5.3-8.1,12.7-12.6,18.3-15.2C1100.7,201.7,1068.7,194.1,1036.8,186.5z"/>
		<path id="Path_48_" class="st14" d="M1029.4,390.8c-0.3-21.4-0.5-42.7-0.8-64.1c51.3-2.6,102.6-5.2,154-7.8
			c1.8,19.8,3.6,39.6,5.5,59.4C1135.2,382.5,1082.3,386.6,1029.4,390.8z"/>
		<path id="Path_49_" class="st14" d="M1013.8,383.8v-23.4c65.9-4.9,131.8-9.9,197.7-14.8c0.5,9.6,1,19.3,1.6,28.9
			C1146.7,377.5,1080.2,380.7,1013.8,383.8z"/>
		<path id="Path_50_" class="st14" d="M1019.3,348.6c0.8,11.5,1.6,22.9,2.3,34.4c61-4.9,121.9-9.9,182.9-14.8
			c0.5-10.4,1-20.8,1.6-31.3C1143.8,340.8,1081.5,344.7,1019.3,348.6L1019.3,348.6z"/>
		<path id="Path_51_" class="st14" d="M1004.4,374.4c1.8,45.6,3.6,91.2,5.5,136.8c68-7.6,136-15.1,204-22.7l6.3-134.4
			C1148.2,360.9,1076.3,367.6,1004.4,374.4L1004.4,374.4z"/>
		<path id="Shape_29_" class="st1" d="M1016,392.2c30.9-4.1,61.8-7,92.9-8.8c1.4-0.1,1.4-2.3,0-2.3c-31.1,1.8-62.1,4.7-92.9,8.8
			C1014.6,390.1,1014.6,392.4,1016,392.2z M1050.5,398.3c23.7-3,47.4-6.1,71.2-9.1c1.4-0.2,1.4-2.4,0-2.3c-23.7,3-47.4,6.1-71.2,9.1
			C1049.1,396.3,1049.1,398.5,1050.5,398.3z M1164.4,462.3c-0.4,6.3-0.4,12.7,0.2,19c0.1,1.4,2.4,1.4,2.3,0
			c-0.6-6.3-0.7-12.7-0.2-19C1166.8,460.9,1164.5,460.9,1164.4,462.3z"/>
		<path id="Path_52_" class="st1" d="M1165.4,462.5c12.4,0.3,24.7-0.4,37-2l-1.1-1.1c-0.2,5.8,0,11.5,0.4,17.2
			c0.1,1.4,2.4,1.4,2.3,0c-0.5-5.7-0.6-11.5-0.4-17.2c0-0.6-0.5-1.2-1.1-1.1c-12.3,1.6-24.6,2.2-37,2
			C1163.9,460.2,1163.9,462.4,1165.4,462.5L1165.4,462.5z"/>
		<path id="Shape_30_" class="st1" d="M1166.3,483.1c12.3,0.2,24.4-1.1,36.4-3.8c1.4-0.3,0.8-2.5-0.6-2.2
			c-11.8,2.6-23.7,3.9-35.8,3.7C1164.9,480.8,1164.9,483,1166.3,483.1L1166.3,483.1z M1171,469.5c7.6,0.5,15.1,0.1,22.7-1.1
			c1.4-0.2,0.8-2.4-0.6-2.2c-7.3,1.2-14.7,1.5-22.1,1C1169.6,467.1,1169.6,469.4,1171,469.5L1171,469.5z M1175.8,475.8
			c7.9-0.2,15.5-1.7,23-4.4c1.3-0.5,0.8-2.7-0.6-2.2c-7.2,2.7-14.7,4.1-22.4,4.4C1174.4,473.5,1174.3,475.8,1175.8,475.8z"/>
		<path id="Path_53_" class="st10" d="M1036.7,506c1.8-42.2,3.6-84.4,5.3-126.7c58.4-4.7,116.9-9.3,175.3-14c-1.3,40-2.7,80-4,120
			C1154.4,492.2,1095.6,499.1,1036.7,506z"/>
		<path id="Path_54_" class="st10" d="M1195.3,338c0.3,11.6-0.3,25.4-3.3,40.7c-7.4,37.6-25.2,64.7-37.3,80
			c8.2,10.9,16.4,21.8,24.7,32.7l-75.3,8.7c4-45.8,8-91.6,12-137.3c-1.3-6-2.7-12-4-18C1139.8,342.4,1167.6,340.2,1195.3,338
			L1195.3,338z"/>
		<path id="Path_55_" class="st14" d="M1125.7,207.4c20.9-2.8,45.8,45.2,55.7,79.7c11.4,39.7,6.4,74,2.3,92.1
			c-8,35.5-24.6,60.5-35,74c1.6,5.3,5.3,19.7-0.8,35.5c-9,23.1-33.4,34.2-35.3,32.1c-0.6-0.7,0.6-3.6,10.1-14.5
			c-2,2.1-16.4,16.4-32.6,13c-2.8-0.6-6.3-1.3-8.3-4.1c-4.7-6.8,3.1-22.2,19.7-39.3c-18.1,4.5-22.9,3.3-23.8,1.3
			c-2.3-4.8,16.2-18.4,22.9-23.4c9.9-7.3,18.8-12.3,24.9-15.4c17.1-35.5,16.2-63.2,14.7-76.2c-2.2-19.2-9.4-40.1-10.8-44.1
			c-4-11.5-5.9-14.1-13.9-34.8c-12.9-33.2-12.9-38.9-12.4-43.3C1104.9,226.8,1113.8,209,1125.7,207.4L1125.7,207.4z"/>
		<path id="Shape_31_" class="st1" d="M1082.2,512.4c11.1-6.3,20.8-14.4,28.9-24.2c1.2-1.5-0.9-3.6-2.1-2.1
			c-7.9,9.6-17.4,17.6-28.3,23.8C1079,510.7,1080.5,513.3,1082.2,512.4L1082.2,512.4z M1092,519.1c11-5.7,20.4-13.6,28-23.4
			c1.2-1.5-1.4-3-2.6-1.5c-7.2,9.4-16.4,16.9-26.9,22.3C1088.8,517.4,1090.3,520,1092,519.1z"/>
		<path id="Path_56_" class="st16" d="M1117.3,212.2c-19.9,17.3,61.3,93.2,47.4,179.4c-9.5,59.1-48.9,97.7-48.9,97.7
			c-11,11-31.7,24.5-29.2,29.2c1.8,3.4,14.3,0.3,18.8-1.1c8.5-2.6,14.4-7,17.7-9.9c-5,5.6-10.7,12.5-9.5,13.9
			c1.7,1.8,15.9-5.6,24.8-16c15.4-18,13.2-43,11.7-53.2c3.6-4.7,8.3-11.3,13.1-19.7c4.4-7.5,17.1-30.9,22.6-62.7
			c9.7-56.3-10.2-100.7-18.2-118.1c-7.2-15.5-19.4-41.2-37.9-42.3C1127.3,209.1,1121.2,208.8,1117.3,212.2L1117.3,212.2z"/>
		<path id="Path_57_" class="st13" d="M1184.7,368.2c-5.4,15.7-11.8,32.2-19.4,49.5c-5.4,12.3-10.9,23.8-16.5,34.7
			c-2.8,9-8.1,22.5-18.6,36.4c-11,14.6-23.1,23.5-31.2,28.6c2.3,0.1,5.1-0.1,8.2-0.9c7.8-1.8,13-6.1,15.6-8.7
			c-3,3.8-6.1,7.5-9.1,11.3c2.4-0.4,6.2-1.1,10.4-3c22-9.9,26.6-36.8,26.9-38.6c0.8-4.9,1.3-13.3-1.7-23.7
			c7.2-8.5,16.3-21.2,23.6-38.3C1181,396.7,1183.7,379.8,1184.7,368.2z"/>
		<path id="Path_58_" class="st4" d="M944.6,141.6c-16.1,18.4-5,44.1-3.5,47.6c5.6,13,20.1,31.5,38.5,30c13.4-1.2,21.9-12.5,24-15.5
			c14.8-21.3,9.9-62-15.1-72.5C974.7,125.4,955.7,128.8,944.6,141.6z"/>
		<path id="Path_59_" class="st14" d="M985.2,158c0.7,7.9,9,9.6,14.6,22.6c4,9.4,4,18.6,3.3,25.2c6.5,0.6,18.5,0.9,32.1-4.3
			c10.7-4.1,18.2-10,22.7-14.1c-2.1-4.7-5.2-11.6-8.9-19.8c-16-34.9-18.6-37.9-22.5-39.4C1010.9,122.3,983.9,143.3,985.2,158
			L985.2,158z"/>
		<path id="Path_60_" class="st14" d="M927.6,54.7c-3.4,4.8-5.5,10.7-5.8,36c-0.2,21.6,1,41.3,3,58.8l13.5-7.8
			c2,4.9,5.4,11.6,11.2,18.1c11.5,12.9,25.5,17.3,31.7,18.9c6.5-1.6,22.7-6.6,35-21.9c8.1-10.2,10.7-20.3,11.3-22.6
			c3.7-15.1,0.1-27.6-1.8-32.8c2.4-1.1,6.1-3.2,8.9-7c5.9-8,7.5-22.3,0.2-27.1c-5.4-3.6-15-1.5-22.2,5.9c-1.6-3.7-4.1-8.8-8.1-14.1
			c-1-1.3-8.5-11.1-17.7-16.2C969.1,32.7,939.8,37.5,927.6,54.7L927.6,54.7z"/>
		<path id="Path_61_" class="st4" d="M920.3,86.1c-4-0.7-11.4-2.8-14.9-8.9c-6-10.3,2.8-26,5-29.9c1.8-3.3,6.6-11.2,27-25.5
			c15.5-10.9,23.3-16.3,31.7-18.9c29.8-8.9,57.1,6.5,62.2,9.4c10.7,6.1,17.5,12.7,22.9,17.9c8.3,8,17.6,17.2,28,27.8
			c26.7,34.6,36.1,66.2,39.9,85.1c4.3,21.4,8.7,43.2-4.1,56c-12.8,12.8-36.2,10.2-50.5,4.1c-19.9-8.5-28.4-26.5-35-40.4
			c-11.2-23.8-11.9-46.6-10.8-61.4c10-2.9,15.1-12.3,12.8-19.4c-1.8-5.6-8.5-11.2-15.4-9.2c-5.3,1.5-9.1,7-8.8,13.4
			c-4.8-0.1-17.6-1.2-29.8-10.4c-8.9-6.7-13.4-14.7-15.5-19.1c-5.5,0.7-16.5,2.7-27.6,10.7C928.1,73.8,922.9,81.5,920.3,86.1
			L920.3,86.1z"/>
		<path id="Path_62_" class="st17" d="M986.5,105.2c12,14.5,15.8,29.8,15.8,29.8c3.9,17.2-1.7,31.8-4.2,37.7
			c6.3-4.8,12.7-9.6,19-14.4c4.4,14.6,8.7,29.1,13.1,43.7c3.3-0.3,10.1-1.5,16.9-6.3c5.2-3.7,8.3-8,10-10.7
			c-8.1-7.5-23.6-24.1-30.7-50.2c-3.4-12.6-3.9-23.8-3.5-32.2c9.1-3.7,13.8-12.6,11.9-20c-1.4-5.4-6.9-11.9-14-10.9
			c-5.9,0.9-10.8,6.7-10.7,13.8c-4.5,0-15.1-0.5-26.2-7.2c-11.5-6.9-17-16.5-19.1-20.6c0.5,19.2,6.4,30.3,11.7,36.9
			C980,99.1,981.6,99.3,986.5,105.2L986.5,105.2z"/>
		<path id="Shape_32_" class="st1" d="M940,101c-1.1,4-1,8.1,0.5,12c0.5,1.4,2.4,1.5,2.9,0c1.2-3.6,1.2-7.4,0.1-11
			c-0.6-1.8-3.5-1.1-2.9,0.8c1,3.2,0.9,6.3-0.1,9.5h2.9c-1.3-3.4-1.5-6.9-0.5-10.4C943.4,99.9,940.6,99.1,940,101z M936.4,94.8
			c2.6-1.6,5.8-1.3,8,0.8c1.4,1.3,3.5-0.8,2.1-2.1c-3.1-3-7.9-3.6-11.6-1.3C933.3,93.2,934.8,95.8,936.4,94.8z M947.2,120.2
			c1.9,0,1.9-3,0-3C945.2,117.2,945.2,120.2,947.2,120.2z M953.8,111.5v0.3c0,0.8,0.7,1.5,1.5,1.5s1.5-0.7,1.5-1.5v-0.3
			c0-0.8-0.7-1.5-1.5-1.5S953.8,110.6,953.8,111.5z M954.1,119c1.9,0,1.9-3,0-3C952.2,116,952.2,119,954.1,119z M912.9,105.6
			c-1.2,4-1.1,8.1,0.3,12c0.5,1.4,2.4,1.4,2.9,0c1.2-3.6,1.3-7.4,0.3-11c-0.5-1.9-3.4-1.1-2.9,0.8c0.9,3.2,0.8,6.3-0.3,9.4h2.9
			c-1.2-3.4-1.4-6.9-0.3-10.4C916.3,104.5,913.4,103.7,912.9,105.6z M911.2,98.1c2.1-1.1,5-0.6,6.4,1.4c1.1,1.5,3.7,0,2.6-1.5
			c-2.5-3.3-6.8-4.4-10.5-2.5C908,96.4,909.5,99,911.2,98.1z M944.9,152.5c7.7-1.4,14.4-5.5,19.4-11.6c0.9-1.1-0.7-2.7-1.6-1.6
			c-4.7,5.8-11,9.6-18.4,11C942.9,150.6,943.5,152.8,944.9,152.5z"/>
		<path id="Path_63_" class="st1" d="M960.5,139.5c1.8,0.6,3.3,1.5,4.6,2.8c1,1,2.6-0.6,1.6-1.6c-1.6-1.6-3.5-2.7-5.6-3.4
			C959.7,136.9,959.1,139.1,960.5,139.5z"/>
		<path id="Path_64_" class="st18" d="M1022.8,8.7c12.7,17.6,29,42.5,44.5,74.3c16.4,33.6,28.4,58.9,19.1,68.9
			c-12.3,13.3-54.8-7.8-61.6-11.3c1.4,9.1,4.9,23.6,15.2,38.1c5.2,7.3,14.3,20.2,31.1,26.2c10.1,3.6,19.1,3.4,22.6,3.1
			c4.7-0.3,10.1-0.7,16-3.9c0,0,7.7-4.1,12.9-12.5c7.9-12.8,3.7-30.1-1.9-51.8c-6.7-26-15.7-43.3-24.5-60.4c-2.2-4.2-4.8-9.1-9-14.8
			c-4.2-5.8-7.3-8.9-20.3-21.4c-19.3-18.7-22.3-21.4-28.1-25.3C1032.4,13.5,1026.7,10.6,1022.8,8.7z"/>
		<path id="Path_65_" class="st19" d="M998.7,178.8c0.8,2.3,2.6,8.8,0,16c-3.9,10.7-14.7,14.3-16.4,14.8c-12.3,4-27.8-2.3-38.2-16
			c1.4,3.6,4.5,10,10.9,15.6c3.2,2.8,11.9,10.3,24.2,9.4c2.1-0.2,15.6-1.2,21.8-12.9C1005.5,197.4,1004.5,187,998.7,178.8
			L998.7,178.8z"/>
	</g>
</g>
</svg>
