<?xml version="1.0" encoding="utf-8"?>
<!-- Generator: Adobe Illustrator 21.0.0, SVG Export Plug-In . SVG Version: 6.00 Build 0)  -->
<svg version="1.1" id="Layer_1" xmlns="http://www.w3.org/2000/svg" xmlns:xlink="http://www.w3.org/1999/xlink" x="0px" y="0px"
	 viewBox="0 0 1545 1052" style="enable-background:new 0 0 1545 1052;" xml:space="preserve">
<style type="text/css">
	.st0{fill:#E8E8E8;}
	.st1{fill:#F07D42;}
	.st2{fill:#161616;}
	.st3{fill:#FFFFFF;}
	.st4{opacity:0.12;fill:#6D6C6C;enable-background:new    ;}
	.st5{opacity:0.13;fill:#6D6C6C;enable-background:new    ;}
	.st6{opacity:0.1;fill:#6D6C6C;enable-background:new    ;}
	.st7{opacity:0.11;fill:#6D6C6C;enable-background:new    ;}
	.st8{fill:#D6D6D6;}
	.st9{fill:#FFFFFF;stroke:#161616;stroke-width:2;}
	.st10{fill:#161616;stroke:#161616;stroke-width:2;}
	.st11{opacity:0.22;fill:#6D6C6C;enable-background:new    ;}
	.st12{opacity:0.3935;fill:#808080;enable-background:new    ;}
	.st13{opacity:5.000000e-02;fill:#6D6C6C;enable-background:new    ;}
	.st14{opacity:0.14;fill:#6D6C6C;enable-background:new    ;}
</style>
<title>reading</title>
<g id="Page-1">
	<g id="pixeltrue-chatting-using-apps-1" transform="translate(25.000000, 20.000000)">
		<g id="Group">
			<path id="Path" class="st0" d="M103.2,754.1c68-33.7,146.2-20.3,217.7-7.6c38.1,6.8,76.1,13.1,114.7,16.3
				c41.3,3.5,82.8,4.2,124.2,2.2c80.1-4,158.8-19.8,237.8-32.9c79-13,159.6-23.2,239.6-13.7c77.9,9.3,153.9,42.2,233.3,35.6
				c8.9-0.7,17.7-2,26.5-3.8c1.9-0.4,1.1-3.3-0.8-2.9c-79.9,16.2-158.4-15.8-236.3-28.7c-78-12.9-157.3-5.8-234.9,6.1
				C744.3,737,664.5,754.4,583,760.5c-82.1,6.1-163.8,0.3-244.8-14c-69.3-12.3-144.1-28.5-212.9-5c-8.1,2.8-16,6.1-23.7,9.9
				C99.9,752.4,101.4,755,103.2,754.1z"/>
			<path id="Path_1_" class="st0" d="M1043.8,885.8c-3.7-7.8-24.9-58.2-5.6-57c1.1,0.1,1.6-1,1.4-1.9c-2.5-15.6-2.2-31.6,1-47.2
				c1.5-7.2,3.6-14.2,6.3-21c2.4-6.1,8.1-23.4,17.3-15.3c5.6,5,5,15.8,5.6,22.6c0.6,8,0.9,16,0.9,24.1c-0.1,16.2-1.5,32.4-4.2,48.4
				c-1.5,8.5-3.3,17-5.5,25.3c-1.2,4.5-2.5,8.9-3.8,13.3c-1.3,4-2.3,10.1-6.9,11.6c-1.8,0.6-1,3.5,0.8,2.9c6.4-2.2,7.8-9.8,9.5-15.5
				c2.9-9.4,5.3-19,7.3-28.7c3.8-19.2,5.8-38.8,5.8-58.4c0-10.2-0.5-20.4-1.5-30.5c-0.7-6.4-1.2-14.2-7-18.3
				c-13.9-9.8-21.3,17.1-24,25.8c-6.3,19.9-7.7,40.9-4.4,61.5c0.5-0.6,1-1.3,1.4-1.9c-12-0.7-11.7,13.6-10.2,21.6
				c2.6,13.8,7.1,27.2,13.2,39.9C1042.2,889.1,1044.7,887.5,1043.8,885.8L1043.8,885.8z"/>
			<path id="Path_2_" class="st0" d="M1074.1,803.5c-0.3-6.8,0.4-13.6,2.3-20.1c0.9-3.2,2.1-6.3,3.5-9.4c0.7-1.4,1.4-2.8,2.2-4.1
				c0.5-0.7,1.1-1.3,1.6-2c3-3,5.5-2.5,7.4,1.6c-0.3,1.9,2.3,2.7,2.9,0.8c2-6.6,5.9-14.8,13.9-15.2c8.5-0.4,10.8,8.2,11.1,15
				c0.7,13.1-1.6,26.5-5,39.1c-7,25.7-19.9,49.4-32.7,72.7c-0.9,1.7,1.7,3.2,2.6,1.5c15.9-29,32.3-59.1,36.9-92.2
				c1-7.4,1.7-15,1.1-22.5c-0.4-5.2-1.8-11-6.2-14.3c-4.2-3.1-9.9-2.8-14.3-0.4c-5.7,3.2-8.6,9.4-10.4,15.4c1,0.3,1.9,0.5,2.9,0.8
				c0.5-3.4-1.4-6.3-4.9-7.1c-3.8-0.9-7.1,1.6-9.2,4.6c-7.1,9.9-9.3,23.9-8.8,35.7C1071.1,805.4,1074.1,805.4,1074.1,803.5
				L1074.1,803.5z"/>
			<path id="Path_3_" class="st0" d="M1003.5,934.3c43-23.5,94-22,141.1-15.2c51.3,7.4,102.9,21,155,14.5
				c28.9-3.6,58.2-13.5,87.4-6.6c1.9,0.4,2.7-2.4,0.8-2.9c-25.3-6-50.7,0.3-75.7,4.6c-27.1,4.6-54.3,4.2-81.6,0.9
				c-51.2-6.1-101.7-20.3-153.7-17.6c-26,1.3-51.8,7.1-74.8,19.6C1000.3,932.6,1001.8,935.2,1003.5,934.3z"/>
			<path id="Path_4_" class="st0" d="M1135.2,865.4c38.3,3.5,75.5-7.7,112.5-16.1c19.5-4.4,39.3-8.2,59.3-8.4
				c20.9-0.3,41.4,3.9,61.9,7.4c21.8,3.8,43.8,6.6,65.8,2.5c1.9-0.4,1.1-3.2-0.8-2.9c-40.9,7.6-80.9-9.4-121.6-10.1
				c-38.1-0.6-74.8,11.6-111.7,19.3c-21.5,4.5-43.3,7.3-65.3,5.3C1133.3,862.3,1133.3,865.3,1135.2,865.4L1135.2,865.4z"/>
			<path id="Path_5_" class="st0" d="M246.1,732.5c-3.5-3.8-6.6-8.1-8.9-12.8c-1.1-2.3-2.1-4.6-2.8-7.1c-0.6-1.9-1.2-3.9-0.8-5.8
				c0.4-2.2,2.8-7.1,6.3-3.9c1.1,1,2.9,0,2.5-1.5c-5.5-19.8-6.8-39.9-8.2-60.3c-1.4-20.3-2.9-41.1,1.1-61.2c1-4.8,1.7-11.8,7.1-13.5
				c6.7-2.2,11.4,4.9,13.3,10.2c3.4,9.2,5.5,19.2,7.7,28.8c4.7,20.4,7.9,41.1,9.8,61.9c2,22.9,2.3,45.9,1,68.8c-0.1,1.9,2.9,1.9,3,0
				c2.7-46.6-1.5-93.6-12.7-138.9c-1.4-5.6-2.8-11.1-4.4-16.6c-1.3-4.4-2.7-8.9-5.6-12.4c-3.9-4.6-11.3-7.1-16.4-2.9
				c-3,2.5-4,6.7-4.8,10.3c-1.2,5.3-2.1,10.6-2.6,16c-1.2,11.5-1,23.1-0.4,34.7c1.4,25.5,2.5,51.4,9.3,76.1c0.8-0.5,1.7-1,2.5-1.5
				c-5.5-5.1-11.8,1.4-11.5,7.4c0.4,9.7,7.2,19.6,13.5,26.4C245.4,736.1,247.4,734,246.1,732.5L246.1,732.5z"/>
			<path id="Path_6_" class="st0" d="M275.5,646.1c-4.1-9.5-1.8-19.7,0.7-29.3c2.2-8.7,4.4-17.2,4.4-26.2c0.1-10.2-0.6-20.1,2-30.1
				c1.2-4.6,2.9-9,5-13.3c0.9-1.8,2-4.7,3.5-6c4.5-4,6.8,3.4,7.8,6.2c6.8,18.7,8,38.9,8.3,58.6c0.4,20.7-0.2,41.4-1.7,62
				c-1.7,23.7-4.7,47.3-8.8,70.8c-0.3,1.9,2.6,2.7,2.9,0.8c8.3-47,12.1-95,10.3-142.6c-0.4-11-1.3-22.1-3.5-32.9
				c-1-5.3-2.4-10.6-4.1-15.7c-1.2-3.5-2.4-8.3-5.6-10.6c-7-5.1-11.7,7.4-13.6,11.9c-3.9,9.1-5.8,18.8-5.8,28.7
				c0,6.6,0.5,13.2-0.2,19.8c-0.7,6.4-2.6,12.5-4.1,18.7c-2.6,10.3-4.5,20.7-0.2,30.8C273.6,649.3,276.3,647.8,275.5,646.1
				L275.5,646.1z"/>
			<path id="Path_7_" class="st0" d="M139.9,512.8c57-42.5,115.2-85.3,181.3-112.9c32.6-13.6,67.1-23.1,102.4-25.9
				c39-3.1,78.2,2.1,116,11.9c77.2,20.2,147.3,59.2,220.3,90.2c70.7,30.1,144.8,49.8,220.4,62.7c75.7,12.9,152.3,19.6,228.8,25.5
				c9.5,0.7,19,1.5,28.5,2.2c1.9,0.1,1.9-2.9,0-3c-78.3-5.9-156.7-11.9-234.3-24c-76.7-11.9-152.8-29.8-224.9-58.9
				c-73.2-29.5-142.4-68.8-218.1-91.9c-36.8-11.2-75-18.6-113.6-18.6c-35.5,0-70.6,6.8-104,18.4c-67.1,23.4-126.5,64.3-183.3,106.1
				c-7,5.2-14,10.4-21,15.6C136.8,511.4,138.3,514,139.9,512.8L139.9,512.8z"/>
			<path id="Path_8_" class="st0" d="M1002.7,537c61.3,1.3,120.5-16.5,179.3-31.5c30.2-7.7,60.6-14.8,91.6-18.1
				c30.9-3.4,62.1-2.6,92.7,3.2c34.6,6.5,67.9,19.1,98.2,36.9c1.7,1,3.2-1.6,1.5-2.6c-52.9-31-114.5-45.8-175.7-41.9
				c-62.4,3.9-121.9,24.4-182.5,38.2c-34.5,7.9-69.7,13.6-105.2,12.9C1000.8,534,1000.8,537,1002.7,537L1002.7,537z"/>
			<path id="Path_9_" class="st0" d="M1320.8,744.8c42.8-6.5,86.5-6.7,129.4-0.4c1.9,0.3,2.7-2.6,0.8-2.9
				c-43.5-6.3-87.5-6.1-131,0.4C1318.2,742.2,1318.9,745,1320.8,744.8z"/>
			<path id="Path_10_" class="st0" d="M4.1,653.1c32.3-39.2,67.3-76.2,104.7-110.5c1.4-1.3-0.7-3.4-2.1-2.1
				C69.2,574.8,34.2,611.7,2,651C0.8,652.5,2.8,654.6,4.1,653.1z"/>
			<path id="Path_11_" class="st0" d="M1166.1,108.1c-13.5,4.7-24.1-6.6-30.7-16.9c-6.5-10-11.2-20.9-11.2-33.1
				c0.1-22.9,15.4-43,36.6-51c19.6-7.3,43.5-3.4,58.7,11.4c15.7,15.3,19.7,39.1,9.8,58.5c-2.8,5.5-6.4,10.7-10,15.7
				c-2.1,2.9-4.1,6.1-7,8.4c-3.4,2.6-7.2,3.1-11.3,3.6c-14,1.7-28.1,3.2-42.2,4.8c-1.9,0.2-1.9,3.2,0,3c15.2-1.7,30.7-2.8,45.8-5.2
				c12.3-2,18.9-14.4,24.7-24.3c11.8-20.1,10.9-44.6-4.3-62.8c-15.1-18.1-41.7-24-63.7-16.5c-22.1,7.6-38.6,27.5-40.1,51.1
				c-0.9,14.9,5,28.6,13.3,40.6c7.2,10.4,18.7,20.2,32.2,15.5C1168.7,110.4,1167.8,107.5,1166.1,108.1L1166.1,108.1z"/>
			<path id="Path_12_" class="st0" d="M252.6,145.7c-4.2-10.3,6.8-18.7,16.1-19.4c9.9-0.7,19.4,3.5,29,5.3
				c18.1,3.5,36.7,2.1,54.2-3.7c16.8-5.6,33.2-14.8,51.3-15.2c18.6-0.3,35.2,10.7,54,8.4c9.1-1.1,17.9-4,27.1-4.7
				c8.5-0.7,21.3,0.9,24.3,10.6s-10.6,17.8-17.8,21.3c-8,3.9-16.9,6-25.7,6.1c-9.4,0-17.8-2.8-26.6-5.7c-8.1-2.7-16.1-4.3-24.6-4.1
				c-16.2,0.3-31.8,5.5-47.3,9.8c-9.6,2.7-19.4,5.2-29.4,6c-10.3,0.8-19.7-1-29.6-3.4c-9.8-2.4-18.4-1.5-28.3-0.1
				c-5.9,0.8-12.1,1.3-17.6-1.6c-4.9-2.6-8.9-7.2-7.7-13.1c0.4-1.9-2.5-2.7-2.9-0.8c-1.5,6.9,2.5,12.7,8.5,16.1
				c8.1,4.6,17.1,2.7,25.9,1.4c6.1-0.9,11.8-1.1,17.9,0.1c5.4,1.1,10.7,2.9,16.2,3.8c8.6,1.4,17.3,0.9,25.9-0.4
				c19.6-3.2,38.1-11.1,57.7-13.9c10.5-1.5,20.9-1.1,31.1,2c9.5,2.9,18.5,6.6,28.5,6.9c16.1,0.6,37.2-5.8,46.6-19.8
				c4.2-6.3,2.9-13.6-2.8-18.4c-6.3-5.5-15.1-6.4-23.1-5.6c-10.3,1-20.2,4.5-30.5,5c-11.5,0.6-22.1-3.8-33.1-6.6
				c-20.5-5.2-38.5,1.5-57.5,8.9c-11.6,4.5-23.2,8.2-35.7,9.3c-13.6,1.2-26.6-0.8-39.8-4.2c-9.4-2.4-20.2-4.9-29,0.6
				c-6.7,4.2-11.3,12.1-8.2,19.9C250.4,148.2,253.3,147.5,252.6,145.7L252.6,145.7z"/>
			<path id="Path_13_" class="st0" d="M1088.7,310.8c14.4-14,35.3-13.8,54.1-12c22,2.1,43.3,4.9,65.5,2.5
				c11.4-1.3,22.5-3.7,33.6-6.6c11.6-3,23.5-6.2,35.7-5.8c12.3,0.4,23.8,5.3,35.9,7c11,1.5,22.1,0.2,33-1.9
				c9.8-1.8,19.5-4.8,29.6-4.3c8.9,0.4,19.8,4.9,19,15.7c-0.8,10.1-12.2,17.1-21.3,18.6c-11.6,1.8-23.4-2.4-34.9-3.3
				c-21.6-1.7-37.9,12.8-58.4,16.5c-21.6,3.9-41.9-8-62.4-12.4c-25.2-5.3-49.1,5.7-73.7,9.7c-12.3,2-26.6,4.7-39,2.2
				c-6.1-1.3-11.9-4.3-14.9-10c-2.7-5.3-2.8-11.7,1.7-16c1.4-1.3-0.7-3.5-2.1-2.1c-5.8,5.5-5.5,14.2-1.5,20.8
				c4.8,7.9,14,10.6,22.7,11.1c25.6,1.5,50.6-7.2,75.2-12.4c13.7-2.9,26.3-1.9,39.7,1.9c11.2,3.2,22,7.6,33.5,9.7
				c10.9,2,21.4,1.4,31.8-2.4c10.9-3.9,21.1-10,32.5-12.6c21.6-4.9,45.9,11,65.3-4.2c6.5-5.1,11-13.3,7.9-21.5
				c-2.7-7.1-9.6-10.6-16.7-11.6c-9.2-1.4-18.1,0.6-27.1,2.5c-14.3,3-28.9,5.4-43.5,2.6c-12.6-2.4-24.5-6.9-37.6-6.3
				c-12.4,0.6-24.4,4.2-36.4,7.2c-15.2,3.8-30.7,6-46.4,6.3c-13.6,0.2-27-1.5-40.5-3c-21.3-2.4-45.6-3.9-62.2,12.2
				C1085.2,310,1087.3,312.1,1088.7,310.8L1088.7,310.8z"/>
			<path id="Path_14_" class="st0" d="M437.4,990.7c-4.5-4.1-8.4-8.7-11.6-13.9c-1.5-2.4-2.9-5-4-7.6c-0.6-1.5-1.6-3.7-1.4-5.4
				c0.3-2.9,3.1-7.3,6.5-4.6c1.3,1.1,3.2-0.2,2.4-1.8c-3.8-7.4-6.1-15.9-5.7-24.3c0.1-1.6,0.3-3.1,0.9-4.6c0.5-1.3,1.2-2.5,2.1-3.6
				c1.8-1.8,3.4-1.8,4.8,0.2c3.7,2.7,5.2,7.9,6.9,12c6.1,14.6,10.6,29.8,13.7,45.3c1-0.3,1.9-0.5,2.9-0.8
				c-2.7-7.5-4.8-15.2-6.1-23.1c-0.9-5.6-2.5-24.2,9-18c7.4,4,8.8,15.9,8.8,23.4c0.1,8.3-1.5,16.4-3.1,24.5
				c-0.4,1.9,2.5,2.7,2.9,0.8c2-10.3,4.1-21,2.8-31.6c-1-7.7-4.4-20-13.7-21.2c-7.4-0.9-10.4,6.6-10.6,12.7
				c-0.4,11.1,3.4,23.1,7.1,33.4c0.7,1.8,3.3,1.1,2.9-0.8c-2.3-11.6-5.5-23.1-9.5-34.2c-1.8-5-3.7-9.9-5.9-14.8
				c-1.6-3.7-3.2-9-7.1-11.1c-6.2-3.4-10.6,3.5-11.6,8.7c-1.8,9.5,1.5,20.4,5.7,28.8l2.4-1.8c-6.1-5.1-12.3,2.2-11.4,8.6
				c1.5,10.2,10.5,20.3,17.7,27.1C436.6,994.1,438.8,992,437.4,990.7L437.4,990.7z"/>
			<path id="Path_15_" class="st0" d="M317,238c22.2-4.5,44.8-9,67.6-7c21.9,1.9,42.6,9.7,63.8,15.1c41.4,10.4,84.3,14.1,126.9,14
				c24.4-0.1,48.7-1.3,73-3.3c1.9-0.2,1.9-3.2,0-3c-43.4,3.4-87.2,4.8-130.7,0.8c-22.1-2-44.1-5.5-65.7-10.7
				c-20.6-5-40.6-12.5-61.7-15.2c-24.9-3.2-49.7,1.6-74,6.5C314.3,235.5,315,238.4,317,238L317,238z"/>
			<path id="Path_16_" class="st0" d="M551,238.2c73.4-3.8,144.7-28.8,218.7-24.2c1.9,0.1,1.9-2.9,0-3
				c-73.9-4.6-145.3,20.5-218.7,24.2C549,235.3,549,238.3,551,238.2z"/>
			<path id="Path_17_" class="st0" d="M1154.8,737.4c-2.9-7.3-4.4-15-4.3-22.9c0-4,0.5-8,1.4-11.9c0.8-3.6,4.8-12.9,9.4-7
				c0.8,1,2.7,0.2,2.6-1.1c-1-8.6-0.8-17.2,0.8-25.7c0.7-3.7,1.7-7.4,3-11c0.8-2.2,1.6-4.6,2.7-6.7c1.6-3,3.4-3.8,6.4-5.3
				c5.4-2.5,5.5-9,6.8-14.2c1.8-7.1,3.9-14.3,8-20.4c2.4-3.6,6.9-9.4,11.8-8.1c3.9,1,5.3,5.2,6,8.8c1.6,7.9,0.5,16.7,0.1,24.7
				c-0.9,17.7-3.2,35.4-6.8,52.7c-4,19-9.7,37.6-16.8,55.7c-0.7,1.8,2.2,2.6,2.9,0.8c14.8-37.4,23.1-77.3,24.1-117.6
				c0.2-7.8,1.2-33.8-14.2-27.8c-6.5,2.6-10.9,10.5-13.5,16.6c-1.5,3.5-2.6,7.1-3.6,10.7c-1.5,5.5-1.5,12.3-6.8,15.5
				c-3.1,1.9-5.1,2.7-6.9,6.3c-2.1,4.1-3.6,8.8-4.8,13.3c-2.7,10.3-3.4,21-2.1,31.6c0.9-0.4,1.7-0.7,2.6-1.1c-2-2.5-5.3-3.1-8.2-1.8
				c-3.9,1.8-5.3,6.3-6.2,10.1c-2.8,12.1-1.6,24.8,2.9,36.4C1152.7,740,1155.6,739.2,1154.8,737.4L1154.8,737.4z"/>
			<path id="Path_18_" class="st0" d="M1126.4,732.2c-4.3-6.7-8.5-13.7-10.7-21.5c-1-3.6-1.6-7.3-1.4-11c0.3-4.1,2-7.3,3.4-11.1
				c2.2-6.1-1.3-11.9-2.7-17.8c-0.7-2.8-4.8-27.7,4-24.3c1.1,0.4,2.1-0.8,1.8-1.8c-2.9-12.9-5.9-26.6-1.8-39.5
				c1.8-5.7,9.1-20.5,16.6-13.7c4.6,4.2,7.2,12,9.3,17.6c9.2,25.3,13.2,53.4,15,80.2c0.1,1.9,3.1,1.9,3,0c-1.2-17.5-3.6-34.9-7.3-52
				c-3.2-15-6.7-31.7-15.4-44.7c-2.7-4-6.6-7.4-11.7-5.3c-5.4,2.2-9.1,8.8-11.2,13.8c-5.9,14.3-2.6,29.9,0.6,44.5
				c0.6-0.6,1.2-1.2,1.8-1.8c-5.3-2.1-8.5,3.9-9.3,8.4c-1.6,10,2.1,19.3,4.4,28.8c1.4,5.8-2.1,9.9-3.1,15.3
				c-0.8,3.8-0.6,7.6,0.1,11.4c1.7,9.5,6.9,18.2,12,26.3C1124.8,735.3,1127.4,733.8,1126.4,732.2L1126.4,732.2z"/>
			<path id="Path_19_" class="st0" d="M1206.8,681.9c2.7-9.3,5.5-18.6,11.2-26.5c5.5-7.6,11.9-14.8,18-21.9
				c3.2-3.6,6.4-7.2,9.9-10.5c1.8-1.7,3.6-3.5,5.9-4.7c4.5-2.4,7.5,0.7,8.7,4.8c2.7,9.4,0.5,19.6-1.9,28.9
				c-9.2,35.2-25.2,68.5-46.6,98c-1.1,1.6,1.5,3.1,2.6,1.5c19.7-27.1,34.7-57.4,44.3-89.5c2.3-7.7,4.6-15.6,5.4-23.6
				c0.7-6.5,0.9-15.5-3-21.1c-8.2-11.6-25.2,11.5-29.7,16.8c-5.8,6.8-12,13.6-17.1,21c-5.3,7.8-8,16.9-10.6,25.9
				C1203.3,682.9,1206.2,683.7,1206.8,681.9L1206.8,681.9z"/>
			<path id="Path_20_" class="st0" d="M1200.9,604.3c-3.8,46.6-13.8,92.4-29.7,136.3c-0.7,1.8,2.2,2.6,2.9,0.8
				c16-44.2,26-90.3,29.8-137.1C1204.1,602.4,1201.1,602.4,1200.9,604.3L1200.9,604.3z"/>
			<path id="Path_21_" class="st0" d="M1173.8,644.6c5.4,20.3,8.2,41,8.4,62c0,1.9,3,1.9,3,0c-0.2-21.2-3-42.3-8.5-62.8
				C1176.2,641.9,1173.3,642.7,1173.8,644.6z"/>
			<path id="Path_22_" class="st0" d="M1187.3,621.9c3.5,13.8,5.2,27.9,5.3,42.1c0,1.9,3,1.9,3,0c-0.1-14.5-1.9-28.9-5.4-42.9
				C1189.8,619.2,1186.8,620,1187.3,621.9L1187.3,621.9z"/>
			<path id="Path_23_" class="st0" d="M1178.8,729.8c7.7-6,14.6-12.9,20.6-20.5c1.2-1.5-0.9-3.6-2.1-2.1
				c-6.1,7.7-12.9,14.5-20.6,20.5C1175.3,728.9,1177.3,731,1178.8,729.8z"/>
			<path id="Path_24_" class="st0" d="M1126.8,589.9c8.7,36.3,15.5,73,20.2,110c0.2,1.9,3.2,1.9,3,0c-4.8-37.3-11.6-74.3-20.3-110.8
				C1129.3,587.2,1126.3,588,1126.8,589.9z"/>
			<path id="Path_25_" class="st0" d="M1114.8,624.3c8.8,5.3,16.3,12.1,22.3,20.5c1.1,1.6,3.7,0.1,2.6-1.5
				c-6.3-8.8-14.1-16-23.3-21.5C1114.7,620.7,1113.2,623.3,1114.8,624.3z"/>
			<path id="Path_26_" class="st0" d="M1153.2,645.2c-3.6,9-6.5,18.2-8.7,27.7c-0.4,1.9,2.4,2.7,2.9,0.8c2.2-9.4,5.1-18.7,8.7-27.7
				C1156.8,644.2,1153.8,643.4,1153.2,645.2z"/>
			<path id="Path_27_" class="st0" d="M1114.7,690.6c11,3.1,21.7,6.7,32.3,10.9c1.8,0.7,2.6-2.2,0.8-2.9
				c-10.6-4.2-21.4-7.8-32.3-10.9C1113.6,687.2,1112.8,690.1,1114.7,690.6z"/>
			<path id="Path_28_" class="st0" d="M1255.6,619.2c-13.3,46.3-50.1,81.8-61.9,128.7c-0.5,1.9,2.4,2.7,2.9,0.8
				c11.8-46.9,48.6-82.4,61.9-128.7C1259.1,618.1,1256.2,617.3,1255.6,619.2z"/>
			<path id="Path_29_" class="st0" d="M1228.8,638.7c-2.5,16.2-5.1,32.4-7.6,48.6c-0.3,1.9,2.6,2.7,2.9,0.8
				c2.5-16.2,5.1-32.4,7.6-48.6C1231.9,637.6,1229.1,636.8,1228.8,638.7z"/>
			<path id="Path_30_" class="st0" d="M1231.8,674.3c8.9-6.4,18.2-12.2,27.9-17.5c1.7-0.9,0.2-3.5-1.5-2.6c-9.7,5.2-19,11-27.9,17.5
				C1228.7,672.9,1230.2,675.5,1231.8,674.3z"/>
			<path id="Path_31_" class="st0" d="M1203.1,732.3c9.1-10.7,22.1-16.1,34.9-21.2c1.8-0.7,1-3.6-0.8-2.9
				c-13.2,5.3-26.7,10.9-36.2,22C1199.7,731.7,1201.8,733.8,1203.1,732.3z"/>
			<path id="Path_32_" class="st0" d="M1057.8,741.8c3.7,23.4,0.6,46.9-2.9,70.2c-3.4,22.9-6.8,45.9-10.2,68.8
				c-0.3,1.9,2.6,2.7,2.9,0.8c3.6-24.2,7.3-48.4,10.8-72.6c3.3-22.5,5.9-45.3,2.3-67.9C1060.3,739.1,1057.4,739.9,1057.8,741.8
				L1057.8,741.8z"/>
			<path id="Path_33_" class="st0" d="M1038.3,784.5c3.4,14,8,27.6,13.8,40.8c0.8,1.8,3.4,0.2,2.6-1.5c-5.6-13-10.1-26.3-13.5-40.1
				C1040.7,781.9,1037.8,782.7,1038.3,784.5L1038.3,784.5z"/>
			<path id="Path_34_" class="st0" d="M1068.3,756.1c-1.4,9.1-4.7,17.4-9.9,24.9c-1.1,1.6,1.5,3.1,2.6,1.5
				c5.3-7.7,8.8-16.4,10.2-25.7C1071.4,755,1068.6,754.2,1068.3,756.1L1068.3,756.1z"/>
			<path id="Path_35_" class="st0" d="M1109.7,757.6c-12.3,42.7-28,84.3-46.8,124.6c-0.8,1.7,1.8,3.3,2.6,1.5
				c18.9-40.5,34.7-82.4,47.1-125.3C1113.1,756.6,1110.2,755.8,1109.7,757.6L1109.7,757.6z"/>
			<path id="Path_36_" class="st0" d="M1101.8,755.8c-0.4,9.7-0.7,19.3-1.1,29c-0.1,1.9,2.9,1.9,3,0c0.4-9.7,0.7-19.3,1.1-29
				C1104.8,753.9,1101.8,753.9,1101.8,755.8z"/>
			<path id="Path_37_" class="st0" d="M1079.6,768.8c-5.4,22.6,0,46.2,3.2,68.8c0.3,1.9,3.2,1.1,2.9-0.8c-3.1-22-8.4-45.1-3.2-67.2
				C1082.9,767.7,1080.1,766.9,1079.6,768.8z"/>
			<path id="Path_38_" class="st0" d="M1075.2,860.9c9.7-2.4,18.7-6.5,26.8-12.3c1.6-1.1,0.1-3.7-1.5-2.6c-7.9,5.6-16.6,9.6-26.1,12
				C1072.4,858.4,1073.3,861.3,1075.2,860.9z"/>
			<path id="Path_39_" class="st0" d="M241.6,567.7c10.1,54.6,16.4,109.9,18.7,165.3c0.1,1.9,3.1,1.9,3,0
				c-2.3-55.8-8.6-111.3-18.8-166.1C244.1,565,241.3,565.8,241.6,567.7L241.6,567.7z"/>
			<path id="Path_40_" class="st0" d="M230.8,631.1c10.6,13.3,19.1,28,25.3,43.8c0.7,1.8,3.6,1,2.9-0.8c-6.4-16.3-15.1-31.4-26-45.1
				C231.8,627.5,229.6,629.6,230.8,631.1z"/>
			<path id="Path_41_" class="st0" d="M260.8,594.4c-3.6,14.9-6.3,30-8.2,45.2c-0.2,1.9,2.8,1.9,3,0c1.8-14.9,4.5-29.7,8.1-44.4
				C264,593.3,261.1,592.5,260.8,594.4L260.8,594.4z"/>
			<path id="Path_42_" class="st0" d="M292.1,540.7c1.8,65.3-1.4,130.6-9.6,195.4c-0.2,1.9,2.8,1.9,3,0
				c8.2-64.8,11.4-130.1,9.6-195.4C295,538.8,292,538.8,292.1,540.7z"/>
			<path id="Path_43_" class="st0" d="M275.4,609.4c7.2,17.1,12.2,35,14.9,53.4c0.3,1.9,3.2,1.1,2.9-0.8
				c-2.7-18.4-7.7-36.3-14.9-53.4C277.5,606.9,274.5,607.6,275.4,609.4z"/>
			<path id="Path_44_" class="st0" d="M286.9,722.5c4.3-8.4,10-15.7,17-22c1.4-1.3-0.7-3.4-2.1-2.1c-7.2,6.4-13.1,14-17.5,22.6
				C283.4,722.7,286,724.2,286.9,722.5z"/>
			<path id="Path_45_" class="st0" d="M282.5,551.8c2.6,8.3,5.5,16.4,8.7,24.5c0.7,1.8,3.6,1,2.9-0.8c-3.3-8-6.2-16.2-8.7-24.5
				C284.9,549.1,282,549.9,282.5,551.8z"/>
			<path id="Path_46_" class="st0" d="M67.8,945.8c65.6-6.4,132-4.4,197,6.2c18.3,3,36.6,6.7,54.7,11c1.9,0.4,2.7-2.4,0.8-2.9
				c-64.1-15.3-130-22.3-195.9-20.8c-18.9,0.5-37.8,1.6-56.6,3.5C65.8,942.9,65.8,945.9,67.8,945.8z"/>
			<path id="Path_47_" class="st0" d="M655.8,974.5c0.1-4.3,10.8-5.1,13.4-4.8c4.4,0.4,8.6,2.7,11,6.4c7.9,12.2-8.1,17.1-17.3,14.1
				c-1.8-0.6-2.6,2.3-0.8,2.9c6.4,2.2,14.9,1.9,20.1-3.2c4.4-4.3,3.5-11.2,0.2-15.9c-3.7-5.2-9.8-7.8-16.1-7.4
				c-4.4,0.3-13.4,2.3-13.5,7.9C652.8,976.4,655.8,976.4,655.8,974.5L655.8,974.5z"/>
			<path id="Path_48_" class="st0" d="M655.3,972.9c6.4-9,19.8-13.1,29.8-16.3c11.1-3.5,22.6-5.6,34.3-6.2c1.9-0.1,1.9-3.1,0-3
				c-13.1,0.7-26.1,3.1-38.5,7.4c-10,3.5-21.8,7.6-28.2,16.6C651.5,973,654.2,974.5,655.3,972.9L655.3,972.9z"/>
			<path id="Path_49_" class="st0" d="M720.8,950.8c7.7,0.9,13.9,6.9,15.4,14.4c0.4,1.9,3.3,1.1,2.9-0.8c-1.8-9-9.3-15.5-18.3-16.6
				C718.8,947.6,719,950.6,720.8,950.8L720.8,950.8z"/>
			<path id="Path_50_" class="st0" d="M724.5,947.7c11.2-7,22.1,2,24.4,13.3c0.4,1.9,3.3,1.1,2.9-0.8c-2.8-13.3-16-23.1-28.8-15.1
				C721.5,946.2,723,948.8,724.5,947.7z"/>
			<path id="Path_51_" class="st0" d="M737,967.3c6.2,2,12.8-1.5,15-7.5c0.7-1.8-2.2-2.6-2.9-0.8c-1.6,4.5-6.8,6.9-11.3,5.4
				C735.8,963.8,735,966.7,737,967.3L737,967.3z"/>
			<path id="Path_52_" class="st0" d="M654.8,971.4c-5.2,3-4.9,10.1-2.9,15c2.2,5.6,7.6,9.3,13.7,7.8c1.9-0.5,1.1-3.3-0.8-2.9
				c-4.7,1.1-8.5-1.9-10.1-6.1c-1.3-3.4-2.2-9,1.7-11.2C658,973,656.5,970.4,654.8,971.4L654.8,971.4z"/>
			<path id="Path_53_" class="st0" d="M656.3,982.8c-3-8.1,11.6-13,16.7-8.4c3.2,2.9,2.4,7.5-1,9.9c-1.5,1.1-3.4,1.9-5.3,1.5
				c-6.7-1.3-1.2-9,2.1-4.6c1.2,1.5,3.8,0,2.6-1.5c-3.9-5.1-12.5-2.5-10.9,4.4c1.7,7.6,12.5,4.9,15.8,0.2c4.6-6.6-0.4-14.6-8-14.7
				c-7.2-0.1-18.1,5.1-14.8,13.9C654,985.4,657,984.6,656.3,982.8L656.3,982.8z"/>
			<path id="Path_54_" class="st0" d="M680.2,990.6c21-4.5,41-12.2,59.6-22.9c1.7-1,0.2-3.6-1.5-2.6c-18.4,10.6-38.2,18.1-58.9,22.6
				C677.5,988.1,678.3,991,680.2,990.6z"/>
			<path id="Path_55_" class="st0" d="M736.5,943c17-14.3,34-31.3,55.8-37.8c1.8-0.6,1.1-3.4-0.8-2.9c-22.3,6.7-39.7,24-57.1,38.6
				C733,942.1,735.2,944.2,736.5,943L736.5,943z"/>
			<path id="Path_56_" class="st0" d="M792.2,906.3c11.2,3.8,19.3,13.8,20.5,25.6c0.2,1.9,3.2,1.9,3,0
				c-1.3-13.2-10.1-24.3-22.7-28.5C791.2,902.8,790.3,905.7,792.2,906.3z"/>
			<path id="Path_57_" class="st0" d="M751.7,962.7c20.5-9.1,40.9-18.6,61.1-28.5c1.7-0.8,0.2-3.4-1.5-2.6
				c-20.2,9.9-40.6,19.3-61.1,28.5C748.3,960.9,750,963.5,751.7,962.7z"/>
			<path id="Path_58_" class="st0" d="M723.7,949.1c0.7-0.5,1.4-0.9,2-1.4c0.7-0.5,1-1.3,0.5-2.1c-0.4-0.7-1.4-1-2.1-0.5
				s-1.4,0.9-2,1.4c-0.7,0.5-1,1.3-0.5,2.1C722,949.2,723,949.6,723.7,949.1z"/>
			<path id="Path_59_" class="st0" d="M427,924.3c1.9,22.4,6.9,44.3,15,65.2c0.7,1.8,3.6,1,2.9-0.8c-8-20.7-13.1-42.3-14.9-64.4
				C429.9,922.4,426.9,922.4,427,924.3L427,924.3z"/>
			<path id="Path_60_" class="st0" d="M421.8,969.2c6.2,3.2,11.7,7.4,16.6,12.5c1.3,1.4,3.4-0.7,2.1-2.1c-5-5.3-10.7-9.6-17.2-12.9
				C421.5,965.7,420,968.3,421.8,969.2L421.8,969.2z"/>
			<path id="Path_61_" class="st0" d="M443.6,954.2c-4.3,6.2-6.2,13.4-5.5,20.9c0.2,1.9,3.2,1.9,3,0c-0.6-7,1.1-13.5,5.1-19.4
				C447.3,954.2,444.6,952.7,443.6,954.2z"/>
			<path id="Path_62_" class="st0" d="M452.5,945.9c2.9,12.4,3.8,25,2.5,37.7c-0.2,1.9,2.8,1.9,3,0c1.2-12.9,0.3-25.8-2.7-38.5
				C455,943.3,452.1,944.1,452.5,945.9z"/>
			<path id="Path_63_" class="st0" d="M448.1,950.3c2.4,4.6,4.8,9.3,7.2,13.9c0.9,1.7,3.5,0.2,2.6-1.5c-2.4-4.6-4.8-9.3-7.2-13.9
				C449.9,947.1,447.3,948.6,448.1,950.3z"/>
		</g>
		<circle id="Oval" class="st1" cx="507.4" cy="306.8" r="16.9"/>
		<circle id="Oval_1_" class="st2" cx="1051.9" cy="671.6" r="12.2"/>
		<circle id="Oval_2_" class="st2" cx="1069.8" cy="655.2" r="5"/>
		<circle id="Oval_3_" class="st2" cx="261" cy="348" r="8.6"/>
		<circle id="Oval_4_" class="st1" cx="293.5" cy="365.8" r="9.4"/>
		<circle id="Oval_5_" class="st1" cx="589.8" cy="579.1" r="5.2"/>
		<circle id="Oval_6_" class="st1" cx="995.3" cy="84.8" r="9"/>
		<circle id="Oval_7_" class="st1" cx="1035.3" cy="118" r="6.8"/>
		<circle id="Oval_8_" class="st1" cx="1028.3" cy="626.6" r="7"/>
		<circle id="Oval_9_" class="st1" cx="559.8" cy="89.3" r="4.5"/>
		<path id="Path_64_" class="st1" d="M448.9,469.4c-1.2-1.6,0-4.4,1.5-5.3c1.9-1.2,4.5-0.6,6.5-0.1c2.1,0.5,4,1.5,6,2
			c2.6,0.7,5.5,1,8.1,0c2.8-1.1,4.2-3.3,4.8-6.1c0.6-2.4,0.4-5.4,2.4-7.3c1.9-1.9,4.9-2.1,7.4-2.1c6.4,0.1,12.7,3.7,16.2-3.7
			c1.8-4,2.1-8.4,6.5-10.7c5.3-2.8,11.7-0.4,16.9,1.4c1.8,0.6,2.6-2.2,0.8-2.9c-7.9-2.8-19.3-5.4-24.2,3.9c-0.8,1.6-1.3,3.4-1.9,5
			c-0.6,1.5-1.3,4.1-2.9,4.8c-1.8,0.8-5.1-0.1-7-0.4c-3.7-0.5-7.6-0.9-11.2,0.7c-3.6,1.7-4.8,4.6-5.5,8.4
			c-1.8,10.1-9.8,5.4-16.4,3.8c-3.6-0.9-7.5-0.6-10,2.4c-1.9,2.3-2.4,5.2-0.6,7.6C447.4,472.5,450,471,448.9,469.4L448.9,469.4z"/>
		<path id="Path_65_" class="st1" d="M472,485.6c1-5.8,5.5-9,11.3-8.7c3.2,0.1,6.7,1.2,9.9,0.2c2.2-0.7,3.9-2.2,4.8-4.3
			c2.1-4.6,2.1-8.5,6.6-11.9c3.8-2.9,8.3-3.8,12.9-2.7c2.9,0.7,6,2,9,0.9c3.2-1.2,4.7-4.9,7.6-6.8c3.7-2.4,8.2-3.2,12.4-3.9
			c1.9-0.3,1.1-3.2-0.8-2.9c-3.9,0.7-7.8,1.5-11.3,3.2c-1.6,0.8-3,1.7-4.3,2.9c-2.6,2.4-3.7,4.8-8,4.6c-3.7-0.1-6.6-1.9-10.5-1.4
			c-3.5,0.5-6.8,2-9.5,4.2c-2.5,2.1-4.5,4.8-5.5,8c-1.1,3.3-1.8,7.3-6.3,7.4c-2.1,0.1-4.2-0.4-6.3-0.5c-7.3-0.6-13.6,3.4-14.9,10.8
			C468.9,486.7,471.6,487.5,472,485.6L472,485.6z"/>
		<path id="Path_66_" class="st1" d="M999.2,457c6.5,1.2,9.9,9.7,17.3,6.9c4.3-1.6,6.9-5.6,11.9-5.7c5.5-0.1,8,4.5,12.7,6
			c7.8,2.5,14-6.1,21.5-4.7c6.8,1.3,11,9.5,18.6,7.3c1.9-0.5,1.1-3.4-0.8-2.9c-6.7,1.9-11.9-7.4-18.8-7.6c-3.1-0.1-6.1,1.2-8.8,2.4
			c-5.7,2.6-9.3,4.2-14.8,0.1c-5.5-4.2-11.8-4.8-17.7-0.9c-1.8,1.2-3.2,2.5-5.3,3.1c-3.1,0.9-5.1-0.7-7.4-2.6
			c-2.4-1.9-4.6-3.8-7.7-4.4C998,453.7,997.3,456.6,999.2,457L999.2,457z"/>
		<path id="Path_67_" class="st1" d="M1019.8,447.1c5.1,4.1,11-1.6,16.4,1.8c5.1,3.2,8,4.2,13.8,2.2c3.2-1.1,6.4-2.7,9.9-2.2
			c2.8,0.5,5,2.6,7.9,2.9c2.7,0.3,5-1.2,7.4-2.3c4.8-2.1,9.5-1.9,14,1c1.6,1.1,3.1-1.5,1.5-2.6c-4.7-3-10.1-3.8-15.4-1.8
			c-1.6,0.6-3.5,2.1-5.2,2.4c-2.5,0.4-4.5-0.7-6.7-1.7c-2-0.9-3.9-1.2-6.1-1c-2.8,0.3-5.4,1.5-8.1,2.3c-4.3,1.4-7.1,1.2-10.9-1.5
			c-2.1-1.5-4-2.3-6.6-2.2c-3,0.1-7.1,2.6-9.8,0.5C1020.3,443.8,1018.3,445.9,1019.8,447.1L1019.8,447.1z"/>
		<path id="Path_68_" class="st0" d="M689.8,536.8c0.4-5.3,6.5-5.1,9.7-3.3c1.6,0.9,2.9,2.2,4.2,3.5c2.3,2.2,4.5,4.7,7.4,6.1
			c5.4,2.4,8.7-0.5,13.2-3.1c14.2-8,24.7,18,39,8.9c0.8-0.5,0.1-1.8-0.8-1.3c-9.5,6.1-18.4-5.7-26.3-9.2c-2.6-1.2-5.4-1.9-8.2-1.4
			c-4.1,0.7-6.8,4.3-10.7,5.3c-9.2,2.5-12.7-10.5-21-11.4c-4-0.5-7.8,1.9-8.1,6C688.3,537.8,689.8,537.8,689.8,536.8L689.8,536.8z"
			/>
		<path id="Path_69_" class="st0" d="M943.7,594.1c1.8-7.1,7.9-10.8,15-10.2c3.6,0.3,6.5,0.2,8.9-2.9c2.8-3.7,2.9-8.7,6.3-12.2
			c4-4,10.1-5.2,15.5-6.2c0.9-0.2,0.5-1.6-0.4-1.4c-5,0.9-10.4,2-14.5,5.1c-3.9,3-4.9,7.1-6.8,11.4c-2.5,5.5-6.3,4.5-11.4,4.6
			c-2,0-3.9,0.5-5.7,1.3c-4.3,2-7.2,5.7-8.4,10.2C942,594.7,943.3,595.1,943.7,594.1L943.7,594.1z"/>
		<path id="Path_70_" class="st0" d="M977.8,588.5c0-5.1,3.1-10,8-11.6c3.5-1.2,7.2,0.2,10.7-1c5.6-2,8.4-9,14.7-9.3
			c1-0.1,1-1.6,0-1.5c-3.1,0.2-5.4,1.6-7.7,3.6c-1.8,1.6-3.4,3.5-5.5,4.7c-3.3,2.1-6.3,1.2-9.8,1.5c-7,0.6-12,6.8-12,13.6
			C976.3,589.5,977.8,589.5,977.8,588.5L977.8,588.5z"/>
		<path id="Path_71_" class="st2" d="M609.8,154.9c1.6,4.8,5.1,11.1,11.1,8.1c3.6-1.8,5.3-5.7,9.6-6.5c4.8-0.9,9.8,1.5,12.1,5.8
			c0.6,1.2,2.3,0.8,2.7-0.4c3-8.7,14-9.4,18.4-1.5c0.9,1.7,3.5,0.2,2.6-1.5c-5.7-10.4-20-8.9-23.8,2.2c0.9-0.1,1.8-0.2,2.7-0.4
			c-2.6-4.9-7.8-7.7-13.3-7.4c-2.5,0.1-4.9,0.8-6.9,2.3c-1.3,0.9-2.3,2.6-3.7,3.4s-5.8,0.2-7-1c-0.9-0.9-1.3-2.8-1.6-3.9
			C612,152.3,609.2,153.1,609.8,154.9L609.8,154.9z"/>
		<path id="Path_72_" class="st2" d="M653.5,141.7c1.9,1.5,3.7,1.5,6,0.8c3.1-0.9,5.1-2.8,7.8,0.7c0.9,1.2,1.2,2.8,2.4,3.9
			c2.2,2.2,5.4,2.5,8.4,2.2c3.5-0.3,13.5-2.7,13,3.8c-0.1,1.9,2.9,1.9,3,0c0.7-9.2-11.4-6.9-16.7-6.7c-3.9,0.1-5.7-1.5-7.5-4.7
			c-0.8-1.4-1.6-2.6-3.1-3.3c-3.4-1.5-8.6,3.1-11.2,1.1C654.2,138.4,652,140.5,653.5,141.7L653.5,141.7z"/>
		<path id="Path_73_" class="st2" d="M340.1,686.1c-1.1-3.5-0.9-7.1,1-10.2c2-3.2,5.1-4.2,8-6.1c3.7-2.5,5.1-5.9,5.7-10.2
			c0.3-2.3,0.3-4.6,0.9-6.9c1.1-4,3.6-5.8,7.3-7.4c3.4-1.4,6.5-2.6,8.7-5.7c1.1-1.6-1.5-3.1-2.6-1.5c-3.2,4.4-9.5,4.3-13.3,8
			c-3.8,3.8-3.2,9.2-4.1,14c-1.3,7.3-7.9,7.7-12,12.6c-3.3,4-4.1,9.4-2.5,14.2C337.9,688.7,340.8,687.9,340.1,686.1L340.1,686.1z"/>
		<path id="Path_74_" class="st2" d="M341.5,652.9c7.4-4.4,1.2-15.2,8.7-19.4c4-2.3,7.6-3.3,10.8-6.9c3.1-3.5,5.1-7.7,7.1-11.9
			c0.8-1.7-1.8-3.3-2.6-1.5c-2,4.2-4,8.4-7.2,11.8c-3.4,3.7-8,4.1-11.7,7.1c-5.5,4.5-1.1,14.8-6.7,18.2
			C338.4,651.3,339.9,653.8,341.5,652.9L341.5,652.9z"/>
		<path id="Path_75_" class="st2" d="M748,527.2c-6.1,0.7-11-4.7-10-10.8c1-5.8,6.5-10.3,12.3-10.7c4.7-0.3,10,1.6,12.2,6.1
			c2.4,4.9,0.2,11.6-4.9,13.5c-1.8,0.7-1,3.6,0.8,2.9c6.1-2.4,9.3-9,7.7-15.4c-1.9-7.4-10-11-17.2-10c-7,1-13.4,6.8-14.1,14
			c-0.7,7.4,5.6,14.1,13.1,13.3C750,530,750,527,748,527.2z"/>
		<path id="Path_76_" class="st3" d="M293,857.4c6.3-6.8,15.9-16.3,28.8-26c11.1-8.4,20.1-13.5,31.5-19.9
			c16.3-9.1,36.6-20.2,60.3-32.9c36.4-3.4,67-5.8,89.8-7.5c42.4-3.2,110.5-8.3,188.5-10.3c16.1-0.4,31.5-0.7,31.5-0.7
			c43.6-0.8,54.6-0.1,100.1-0.7c33.4-0.4,33.2-0.8,51.4-0.7c27.4,0.2,49.9,1.2,65.1,2.1c9.1,0.7,27.6,2.1,45.9,4.1
			c3.6,0.4,8.9,1,15.8,2.7c8.3,2.1,14.9,4.8,19.2,6.9c-5.4,8.2-10.9,16.4-16.4,24.7C986.5,826,968,851.5,949.8,876
			c-2.9,1.8-8.2,4.6-15.1,6.9c-14.7,4.8-27.2,3.7-31.5,3.4c-18-1.3-61.7-0.5-125.4,1.4c-28.3-0.7-56.7-1.4-85-2.1
			c-8.2,12.6-16.4,25.1-24.7,37.7c-54.8-3-109.6-5.9-164.5-8.9c11-12.1,21.9-24.2,32.9-36.3C455.3,871.1,374.1,864.2,293,857.4
			L293,857.4z"/>
		<path id="Path_77_" class="st2" d="M350.5,839.8c49.4,3.3,98.7,7.1,148,11.5c1.9,0.2,1.9-2.8,0-3c-49.3-4.4-98.6-8.2-148-11.5
			C348.6,836.7,348.6,839.7,350.5,839.8L350.5,839.8z"/>
		<path id="Path_78_" class="st2" d="M731,864.7c51.6-0.4,103.3,0.7,154.9,3.3c1.9,0.1,1.9-2.9,0-3c-51.6-2.6-103.2-3.7-154.9-3.3
			C729,861.7,729,864.7,731,864.7z"/>
		<path id="Path_79_" class="st2" d="M440,809.5c25,4.4,50.4,3.8,75.7,3.6c26.8-0.2,53.6,0.4,80.4,1.3c52.9,1.9,105.8,5.4,158.7,7.6
			c30.4,1.3,60.9,2.1,91.3,2.1c1.9,0,1.9-3,0-3c-106,0.3-211.6-10.9-317.5-11c-29.3,0-58.8,1.7-87.8-3.4
			C439,806.3,438,809.2,440,809.5z"/>
		<path id="Path_80_" class="st2" d="M681,788.1c75.2,0.1,150.4,2.3,225.5,6.6c1.9,0.1,1.9-2.9,0-3c-75.1-4.3-150.3-6.5-225.5-6.6
			C679,785.1,679,788.1,681,788.1z"/>
		<path id="Path_81_" class="st2" d="M1020,773.6c-22.2,33.9-45.4,67-69.7,99.3c-1.2,1.5,1.4,3,2.6,1.5
			c24.3-32.3,47.6-65.5,69.7-99.3C1023.7,773.5,1021,772,1020,773.6z"/>
		<path id="Path_82_" class="st2" d="M318.8,836.5c30.8-21.3,62-42.7,96.8-57c1.8-0.7,1-3.6-0.8-2.9c-35.1,14.4-66.5,35.9-97.6,57.3
			C315.6,835,317.1,837.6,318.8,836.5z"/>
		<path id="Path_83_" class="st2" d="M412.6,779.9c79.4-7.3,158.9-12.6,238.5-15.7c79.6-3.1,159.3-4.3,239-3.1
			c22.3,0.3,44.6,0.9,66.8,2.9c21.4,1.9,43.8,4.1,63.8,12.4c1.8,0.7,2.6-2.2,0.8-2.9c-17-7.1-35.7-9.4-53.9-11.4
			c-19.9-2.2-39.9-3.2-59.9-3.7c-39.9-1-79.9-0.9-119.8-0.5c-80,0.7-160,3.6-239.9,8.6c-45.2,2.8-90.4,6.3-135.5,10.5
			C410.6,777.1,410.6,780.1,412.6,779.9L412.6,779.9z"/>
		<path id="Path_84_" class="st2" d="M694.8,887.2c74.5,2.5,149,2.6,223.4-0.2c12.8-0.5,27.1-2,35-13.4c1.1-1.6-1.5-3.1-2.6-1.5
			c-7.9,11.3-23.2,11.6-35.6,12c-17.1,0.5-34.2,1.2-51.4,1.5c-36,0.7-72,0.7-108,0.1c-20.3-0.3-40.6-0.9-60.9-1.5
			C692.8,884.1,692.8,887.1,694.8,887.2L694.8,887.2z"/>
		<path id="Path_85_" class="st2" d="M317.3,833.8c-8.8,7.7-17.6,15.4-26.4,23.1c-1.1,0.9-0.1,2.5,1.1,2.6
			c80.9,7,161.8,14,242.7,19.4c1.9,0.1,1.9-2.9,0-3c-81-5.5-161.9-12.4-242.7-19.4c0.4,0.9,0.7,1.7,1.1,2.6
			c8.8-7.7,17.6-15.4,26.4-23.1C320.8,834.6,318.6,832.5,317.3,833.8L317.3,833.8z"/>
		<path id="Path_86_" class="st2" d="M568.7,846.8c-23.3,20.5-45.2,42.4-65.6,65.7c-1.3,1.4,0.8,3.6,2.1,2.1
			c20.4-23.3,42.4-45.3,65.6-65.7C572.3,847.6,570.2,845.5,568.7,846.8L568.7,846.8z"/>
		<path id="Path_87_" class="st2" d="M569.8,848.9c48.7-4.7,97.7-3.5,146.1,3.7c1.9,0.3,2.7-2.6,0.8-2.9
			c-48.6-7.3-97.9-8.6-146.9-3.8C567.8,846.1,567.8,849.1,569.8,848.9L569.8,848.9z"/>
		<path id="Path_88_" class="st2" d="M714.3,851.6c-16.4,23.5-32.9,47-49.3,70.5c-1.1,1.6,1.5,3.1,2.6,1.5
			c16.4-23.5,32.9-47,49.3-70.5C718,851.5,715.5,850,714.3,851.6L714.3,851.6z"/>
		<path id="Path_89_" class="st2" d="M503.5,916c54,2.7,108.1,5.3,162.1,8c1.9,0.1,1.9-2.9,0-3c-54-2.7-108.1-5.3-162.1-8
			C501.5,912.9,501.5,915.9,503.5,916z"/>
		<path id="Path_90_" class="st2" d="M545.3,897.2c8.4,1.5,16.7,2.9,25.1,4.4c1.9,0.3,2.7-2.6,0.8-2.9c-8.4-1.5-16.7-2.9-25.1-4.4
			C544.3,894,543.5,896.9,545.3,897.2z"/>
		<path id="Path_91_" class="st2" d="M564.8,888c-5.1,5.3-9.9,10.9-14.4,16.8c-1.2,1.5,1.4,3,2.6,1.5c4.4-5.6,9-11,14-16.2
			C568.3,888.8,566.2,886.6,564.8,888L564.8,888z"/>
		<path id="Path_92_" class="st2" d="M579,889.5c0.1-5.2,4-8.6,9.1-8.5c2.5,0,4.8,0.8,7.3,0.4c4.6-0.7,8.6-3.6,10.7-7.6
			c1.5-2.7,1.9-5.8,4.2-8c2.5-2.4,6-3.5,9.4-3.8c3.1-0.3,6.5-0.1,9.5,1c2.5,1,5.1,2.9,5.2,5.9c0.1,2.3-1.3,4.7-3.9,4.8
			c0.1,1,0.3,2,0.4,2.9c2.7-0.4,5.7,2.5,6.5,4.8c0.4,1.1,0.5,2.5,0.4,3.6c-0.1,2.6-1.4,5.3-3.1,7.3c-1.7,2-3.9,3.6-6.4,4.3
			c-2.2,0.6-2.6,0.7-4.2-1.1c-1.8-2.1-1-2.5,0.9-4.1c8.6-7.2,15.7,2.2,24.5,2.5c6,0.2,11.7-3.5,12.9-9.6c0.6-3-0.3-5.7-1.8-8.4
			c-1.7-3-2.7-3.6-2-7.3c-0.5-2.2,0.2-3.3,2.1-3.3c1.1-0.5,2.1-0.5,3.1,0.2c2.4,0.7,3.8,2.3,5.3,4.3c1.1,1.5,3.7,0.1,2.6-1.5
			c-3.1-4.3-8.5-8.4-13.9-5.2c-5.1,3-3.3,8.3-0.8,12.4c2.6,4.4,4.4,9-0.2,13c-5.2,4.5-11.1,1.5-16.2-1c-5.2-2.5-11-2.8-16,0.5
			c-3,1.9-7.4,6.9-4.1,10.5c3.6,3.8,11.1,0.6,14.3-2c4.1-3.3,6.8-8.8,6-14.2c-0.9-5.4-5.1-9.6-10.6-8.7c-1.7,0.3-1.3,3,0.4,2.9
			c6.1-0.1,8.7-7.5,5.5-12.2c-4.4-6.5-15.4-6.6-22-4.2c-3.3,1.2-6.2,3.3-8,6.4c-1.3,2.2-1.7,4.9-3.1,7c-2.2,3.2-6.1,5.1-10,5.1
			c-4.6-0.1-8.2-1.4-12.2,1.6c-3.1,2.3-4.6,5.7-4.6,9.4C576,891.5,579,891.5,579,889.5L579,889.5z"/>
		<path id="Path_93_" class="st1" d="M738.8,326.6c-0.2,23.9-0.5,47.7-0.7,71.6c56.2-1.6,112.4-3.3,168.5-4.9
			c11.5,8.9,22.9,17.8,34.4,26.7c-3-17.6-6.1-35.1-9.1-52.7c-0.9-14.5-1.9-29-2.8-43.5C865.7,324.7,802.2,325.7,738.8,326.6
			L738.8,326.6z"/>
		<path id="Path_94_" class="st1" d="M732.7,149.2c-1.9,34.6-3.8,69.1-5.6,103.7c-9.9,12.3-19.8,24.7-29.7,37
			c11.8-3.2,23.6-6.4,35.4-9.6c70.2-2.4,140.4-4.8,210.6-7.2c-1.9-41.5-3.8-83.1-5.6-124.6C869.3,148.7,801,148.9,732.7,149.2
			L732.7,149.2z"/>
		<path id="Path_95_" class="st3" d="M850.5,195.2c1.4,24.9,19.3,45.4,43.8,50c1.9,0.3,2.7-2.5,0.8-2.9
			c-23.2-4.3-40.3-23.5-41.6-47.1C853.3,193.2,850.3,193.2,850.5,195.2L850.5,195.2z"/>
		<path id="Path_96_" class="st3" d="M895,245.1c9.6,0.7,18.2-13.4,21.7-20.8c4.6-10,6-21,3.9-31.7c-0.4-1.9-3.3-1.1-2.9,0.8
			c1.8,9.3,0.8,18.8-2.8,27.6c-1.8,4.3-4.1,8.4-7.1,12c-2.9,3.6-7.7,9.5-12.8,9.1C893.2,241.9,893.2,244.9,895,245.1L895,245.1z"/>
		<path id="Path_97_" class="st3" d="M903.5,242c4,4.9,9.4,8.3,15.5,10c1.9,0.5,2.7-2.4,0.8-2.9c-5.7-1.6-10.5-4.7-14.2-9.2
			C904.3,238.4,902.3,240.6,903.5,242L903.5,242z"/>
		<path id="Path_98_" class="st3" d="M916,222.7c1.2,1.9,2.5,3.7,4,5.4c1.4,1.5,3.9,2.8,5.1,4.4c3.5,4.7-3.2,13.8-6.1,17.4
			c-1.2,1.5,1.4,3,2.6,1.5c3.3-4.3,7.9-11.5,7.7-17.3c-0.1-1.6-0.7-2.5-1.8-3.6c-3.2-3.4-6.4-5.3-9-9.4
			C917.5,219.5,915,221,916,222.7L916,222.7z"/>
		<path id="Path_99_" class="st3" d="M914.2,225.7c-0.5,4.8-1.7,9.4-3.8,13.8c-0.3,0.7-1,1.6-1.2,2.3c-0.5,1.8,0.8-1.1,1.1-1.5
			c1.2-2.1,2.2-4.3,3.2-6.4c-0.9-0.4-1.8-0.8-2.7-1.2c-0.9,2.9-2.4,5.1-4.8,7.1c0.8,0.6,1.6,1.2,2.4,1.8c2.1-3.5,4.1-7,6.2-10.6
			c1-1.7-1.5-3-2.6-1.5c-2.2,3-4.4,6-6.6,8.9c-1,1.4,1.2,3.1,2.4,1.8c2.4-2.8,4.2-5.8,5.4-9.2c0.7-1.8-2.2-2.6-2.9-0.8
			c-1.1,3-2.6,5.5-4.7,7.9c0.8,0.6,1.6,1.2,2.4,1.8c2.2-3,4.4-6,6.6-8.9c-0.9-0.5-1.7-1-2.6-1.5c-2.1,3.5-4.1,7-6.2,10.6
			c-0.9,1.6,1.1,2.8,2.4,1.8c2.8-2.2,4.6-5,5.6-8.4c0.5-1.6-2-2.7-2.7-1.2c-1.1,2.1-2.2,4.3-3.2,6.4c-0.6,1.2-1.6,2.7-1.4,4.1
			c0.1,1.7,1.8,3.2,3.6,2.6c2.4-0.8,3.6-5.2,4.4-7.3c1.6-4,2.5-8.2,3-12.5C917.3,223.8,914.3,223.8,914.2,225.7L914.2,225.7z"/>
		<path id="Path_100_" class="st3" d="M886.3,240.6c-8.3-1.3-15.3,4.1-20.9,9.7c-6.2,6.2-10.8,13.7-12.4,22.3
			c-0.4,1.9,2.5,2.7,2.9,0.8c1.3-7.1,4.7-13.3,9.5-18.7c4.8-5.5,12.2-12.5,20.1-11.2C887.5,243.8,888.3,240.9,886.3,240.6
			L886.3,240.6z"/>
		<path id="Path_101_" class="st3" d="M876.3,198.7c3.1,8.1,6.6,16.1,10.3,23.9c0.6,1.2,2.4,0.8,2.7-0.4c0.9-3.6,1.3-7.1,1.1-10.8
			c-0.1-1.9-3.1-1.9-3,0c0.2,3.4-0.1,6.7-1,10c0.9-0.1,1.8-0.2,2.7-0.4c-3.6-7.6-7-15.3-10-23.2
			C878.5,196.1,875.7,196.9,876.3,198.7L876.3,198.7z"/>
		<path id="Path_102_" class="st3" d="M862.5,209.6c-0.7-1.3,0.6-2.7,1.8-3.1c1.8-0.6,3.7,0.1,5.5,0.6c1.8,0.6,2.6-2.3,0.8-2.9
			c-2.9-0.9-6.4-1.6-9,0.4c-2,1.6-2.9,4.2-1.6,6.5C860.8,212.8,863.3,211.3,862.5,209.6L862.5,209.6z"/>
		<path id="Path_103_" class="st3" d="M893.8,202.8c1-4.4,5.9-6.3,9.4-3.1c1.4,1.3,3.6-0.8,2.1-2.1c-5-4.6-12.9-2.3-14.4,4.4
			C890.5,203.9,893.5,204.7,893.8,202.8L893.8,202.8z"/>
		<path id="Path_104_" class="st3" d="M900.3,206.1c-0.1,0.1-0.3,0.3-0.4,0.4c-0.6,0.6-0.6,1.5,0,2.1c0.6,0.6,1.5,0.6,2.1,0
			c0.1-0.1,0.3-0.3,0.4-0.4c0.6-0.6,0.6-1.5,0-2.1C901.8,205.5,900.8,205.5,900.3,206.1z"/>
		<path id="Path_105_" class="st3" d="M907,203.3c0.1,0.3,0.3,0.5,0.4,0.8c0.4,0.7,1.4,0.9,2.1,0.5c0.7-0.4,0.9-1.3,0.5-2.1
			c-0.1-0.3-0.3-0.5-0.4-0.8c-0.4-0.7-1.4-0.9-2.1-0.5C906.8,201.6,906.5,202.5,907,203.3z"/>
		<path id="Path_106_" class="st3" d="M906,210.1c0.1,0.1,0.3,0.3,0.4,0.4c0.6,0.6,1.5,0.6,2.1,0c0.6-0.6,0.6-1.5,0-2.1
			c-0.1-0.1-0.3-0.3-0.4-0.4c-0.6-0.6-1.5-0.6-2.1,0C905.5,208.6,905.5,209.5,906,210.1z"/>
		<path id="Path_107_" class="st3" d="M864.8,216.8v0.4c0,0.8,0.7,1.5,1.5,1.5s1.5-0.7,1.5-1.5c0-0.1,0-0.3,0-0.4
			c0-0.8-0.7-1.5-1.5-1.5C865.3,215.3,864.8,215.9,864.8,216.8z"/>
		<path id="Path_108_" class="st3" d="M871.5,214c-0.5,0-0.9,0-1.4,0c0.6,0.5,1.5,0.6,2.1,0s0.6-1.6,0-2.1c-0.9-0.8-2-0.8-2.9,0
			c-0.6,0.5-0.5,1.6,0,2.1C870,214.6,871,214.5,871.5,214L871.5,214z"/>
		<path id="Path_109_" class="st3" d="M873.2,219.1c0-0.1,0-0.3,0-0.4c0-0.8-0.7-1.5-1.5-1.5c-0.8,0-1.5,0.7-1.5,1.5v0.4
			c0,0.8,0.7,1.5,1.5,1.5C872.5,220.5,873.2,219.9,873.2,219.1z"/>
		<path id="Path_110_" class="st3" d="M865.8,192.2c-2.5-1.6-5.7-0.8-7.5,1.5c-0.5,0.6-0.1,1.7,0.5,2.1c0.8,0.5,1.6,0.1,2.1-0.5
			c0.8-1,2.3-1.1,3.3-0.4C866,195.8,867.5,193.2,865.8,192.2L865.8,192.2z"/>
		<path id="Path_111_" class="st3" d="M889.8,188.8c1.2-0.5,2.5-0.8,3.9-0.9c1.9-0.1,1.9-3.1,0-3c-1.9,0.1-3.7,0.5-5.4,1.3
			c-0.7,0.3-0.9,1.4-0.5,2.1S889,189.1,889.8,188.8L889.8,188.8z"/>
		<path id="Path_112_" class="st3" d="M890.5,230.8c4.4,0.4,8.5-2.5,9.9-6.7c0.6-1.8-2.3-2.6-2.9-0.8c-1,3-3.9,4.8-7,4.5
			C888.5,227.6,888.5,230.6,890.5,230.8z"/>
		<path id="Path_113_" class="st3" d="M929,234.4c3.3-0.2,6.4,0.5,9.3,2.1c1.7,0.9,3.2-1.7,1.5-2.6c-3.4-1.8-7-2.7-10.8-2.5
			C927.2,231.5,927.2,234.5,929,234.4z"/>
		<path id="Path_114_" class="st3" d="M855,162.4c-8.4,3.8-14.9,11.2-17.2,20.2c-1.4,5.5-0.4,10.9-0.6,16.5
			c-0.3,6.3-3.2,11.9-5.1,17.8c-5.5,17.1,3.9,35.9,21.3,41.1c1.9,0.5,2.6-2.3,0.8-2.9c-8.3-2.5-15-8.6-18.5-16.5
			c-3.8-8.7-2.3-16.9,0.9-25.5c1.4-3.7,2.8-7.4,3.3-11.4c0.6-4.8-0.4-9.6,0.1-14.4c0.9-9.9,7.6-18.3,16.5-22.3
			C858.3,164.2,856.8,161.7,855,162.4L855,162.4z"/>
		<path id="Path_115_" class="st3" d="M852.8,195c10.7-5,18.7-13.7,22.9-24.7c0.7-1.8-2.2-2.6-2.9-0.8
			c-3.9,10.2-11.6,18.3-21.5,22.9C849.5,193.2,851,195.8,852.8,195z"/>
		<path id="Path_116_" class="st3" d="M877,169.7c3.3,5.8,10.2,8.4,16.3,10.4c7.7,2.6,15.8,3.7,23.9,3.6c1.9,0,1.9-3,0-3
			c-6.7,0.1-13.3-0.7-19.7-2.5c-6.2-1.7-14.5-4.1-17.9-10.1C878.7,166.5,876,168,877,169.7L877,169.7z"/>
		<path id="Path_117_" class="st3" d="M917.8,185.4c2.3-4.1,8.2-3.6,9.6,1.1c1.4,4.6-2.4,8.4-6.8,8.9c-1.9,0.2-1.9,3.2,0,3
			c6.7-0.8,12.3-7.1,9.2-13.9c-2.9-6.2-11.3-6.3-14.6-0.5C914.3,185.5,916.8,187,917.8,185.4L917.8,185.4z"/>
		<path id="Path_118_" class="st3" d="M919.8,196.5c-2.2,12.8-0.9,30.1,10.1,38.8c1.5,1.2,3.6-0.9,2.1-2.1c-10-7.9-11.4-24-9.3-35.8
			C923,195.4,920.2,194.6,919.8,196.5L919.8,196.5z"/>
		<path id="Path_119_" class="st3" d="M854.5,165.8c6.6-3.4,13.6-7.1,21.2-7c6.5,0.1,11.9,3.1,18.5,1.9c6.9-1.2,13.2-4.4,20.4-4.8
			c7.4-0.4,15.4,0.8,20.6,6.5c1.3,1.4,3.4-0.7,2.1-2.1c-10.1-11-26.3-7.3-38.8-3.7c-5,1.5-9.4,1.9-14.5,0.6
			c-3.6-0.9-6.9-1.6-10.7-1.3c-7.2,0.7-13.9,4-20.2,7.3C851.3,164.1,852.8,166.7,854.5,165.8z"/>
		<path id="Path_120_" class="st3" d="M853.5,255.4c-0.3,0.1-0.7,0.2-1,0.2c-1.6,0.4-1.3,2.4,0,2.9c2.4,1,4.9,1.3,7.5,1
			c1.9-0.2,1.9-3.2,0-3c-2.3,0.3-4.5,0-6.7-0.9v2.9c0.3-0.1,0.7-0.2,1-0.2C856,257.9,855.3,255,853.5,255.4z"/>
		<path id="Path_121_" class="st3" d="M750.7,185.7c1.5,2.3,5.1,1.8,5.6-1c0.2-0.9-1.2-1.3-1.4-0.4c-0.3,1.4-2,1.9-2.9,0.7
			C751.5,184.2,750.2,184.9,750.7,185.7L750.7,185.7z"/>
		<path id="Path_122_" class="st3" d="M762.2,184.6c0.6,1,1.3,2.1,2.6,2.3c1.1,0.2,2.1-0.3,2.5-1.4c0.3-0.9-1.1-1.3-1.4-0.4
			c-0.2,0.4-0.8,0.3-1.1,0.1c-0.5-0.3-0.8-0.9-1.1-1.5C763,183,761.7,183.7,762.2,184.6L762.2,184.6z"/>
		<path id="Path_123_" class="st3" d="M759,187.3c0.1,0.2,0.2,0.4,0.3,0.6v-0.1c-0.1,0.2-0.1,0.4-0.2,0.5c0,0,0-0.1,0.1-0.1
			c-0.2,0.1-0.4,0.1-0.5,0.2h0.1c-0.2-0.1-0.4-0.2-0.6-0.4c-0.2-0.3-0.3,0.3-0.3,0.5c0,0.4,0.1,0.9,0.1,1.3c0,0.4,0,0.8-0.2,1.1
			c-0.1,0.2-0.5,0.5-0.7,0.3c-0.7-0.6-1.8,0.4-1.1,1.1c0.7,0.6,1.5,0.6,2.3,0.1s1.1-1.4,1.1-2.4c0-0.7-0.1-1.2,0.1-1.8
			c0.1-0.4,0.1-0.7-0.1-1c-0.6-0.8-1.5-0.2-1.6,0.6c0,0.2,0.2,0.5,0.4,0.6h0.1C759,189.1,759.8,187.8,759,187.3L759,187.3z"/>
		<path id="Path_124_" class="st3" d="M758.3,187.9c0.3,1.4-0.1,2.9,1,4.1c0.8,0.9,2,1.1,3,0.3c0.7-0.6-0.3-1.7-1.1-1.1
			c-0.6,0.5-1.2-1-1.2-1.3c-0.1-0.8-0.1-1.6-0.2-2.4C759.5,186.6,758,187,758.3,187.9L758.3,187.9z"/>
		<path id="Path_125_" class="st3" d="M752.5,180.8h2.2c1,0,1-1.5,0-1.5c-0.7,0-1.5,0-2.2,0C751.5,179.3,751.5,180.8,752.5,180.8z"
			/>
		<path id="Path_126_" class="st3" d="M763.3,181.1c0.7,0,1.3,0.1,1.9,0.5c0.8,0.5,1.6-0.8,0.8-1.3s-1.7-0.7-2.6-0.7
			C762.3,179.6,762.3,181.1,763.3,181.1L763.3,181.1z"/>
		<path id="Path_127_" class="st3" d="M758.3,197.9c-9.8,0.6-8.9-9.8-11.2-16.2c-0.6-1.9-1.7-3.5-2.4-5.4c-2.6-7.4,3.1-2.2,5,0.5
			c0.6,0.8,1.9,0,1.3-0.8c-1.1-1.6-5.1-7.5-7.5-6.8c-2.5,0.7-0.9,6-0.3,7.5c1.1,3,2.6,5.4,3.2,8.6c0.5,2.9,0.6,5.9,2.1,8.5
			c2,3.6,5.6,5.8,9.7,5.5C759.3,199.4,759.3,197.9,758.3,197.9L758.3,197.9z"/>
		<path id="Path_128_" class="st3" d="M751.5,177.3c4.8-2.6,9.8-2.8,14.7-0.5c0.4,0.2,0.8,0.1,1-0.3c1.3-2.4,2.9-4.2,5.1-5.8
			c-0.4-0.2-0.9-0.4-1.3-0.5c0.2,5.5,0.4,11.3-0.5,16.7c-1.3,7.6-6.3,10.4-13.5,11.3c-0.9,0.1-1,1.6,0,1.5
			c5.9-0.8,11.3-2.2,13.8-8.1c2.7-6.4,2-14.6,1.7-21.4c0-0.7-0.8-0.9-1.3-0.5c-1.4,1.1-3,4-4.5,4.8c-1.7,0.9-3.7-0.4-5.6-0.6
			c-3.7-0.4-7.2,0.5-10.5,2.2C749.8,176.5,750.5,177.8,751.5,177.3L751.5,177.3z"/>
		<path id="Path_129_" class="st3" d="M750.7,195.5c-2.7,4.4-1.7,9.7-0.9,14.6c1.2,7.5,3.4,14.8,5.6,22c0.3,0.9,1.7,0.5,1.4-0.4
			c-1.6-5.4-3.3-10.9-4.5-16.4c-1.3-5.7-3.6-13.7-0.3-19C752.5,195.5,751.2,194.7,750.7,195.5L750.7,195.5z"/>
		<path id="Path_130_" class="st3" d="M755.3,231.5c-1.9,0.3-8,2.3-6.1,5.3c0.7,1.1,2.2,1.3,3.4,1.4c2.3,0.2,4.6-0.2,6.8-0.9
			c0.9-0.3,0.5-1.7-0.4-1.4c-2,0.6-5.2,1.6-7.3,0.8c-0.4-0.2-1.2-0.9-1-1.4c0.1-0.3,1-0.7,1.4-0.9c1.2-0.6,2.4-1.1,3.7-1.3
			C756.7,232.7,756.3,231.3,755.3,231.5L755.3,231.5z"/>
		<path id="Path_131_" class="st3" d="M759.7,208.3c0.7,8.2,1.6,16.3,2.8,24.5c0.1,1,1.6,0.5,1.4-0.4c-1.2-8-2.1-16-2.8-24.1
			C761.2,207.3,759.7,207.3,759.7,208.3z"/>
		<path id="Path_132_" class="st3" d="M763,232.2c-2.2,0.3-6.1,2.2-4.1,5.1c2.2,3.1,8.4,0.5,11-0.5c0.9-0.3,0.5-1.8-0.4-1.4
			c-1.7,0.7-3.4,1.3-5.2,1.6c-0.8,0.1-2.3,0.4-3.1,0c-1.3-1.5-1.2-2.5,0.3-2.9c0.5-0.2,1-0.3,1.5-0.3C764,233.6,764,232.1,763,232.2
			L763,232.2z"/>
		<path id="Path_133_" class="st3" d="M770.3,191.6c4,2.4,4.9,6.5,6.7,10.5c1.3,2.9,2.9,4.9,5.3,7c3.5,3,6.7,5.3,8,10.1
			c1.3,5,0.2,10.2-1.2,15c-0.3,0.9,1.2,1.3,1.4,0.4c2.4-8.3,3.3-17.4-3.7-23.8c-1.6-1.5-3.5-2.7-5-4.2c-2.2-2.3-3.3-4.9-4.4-7.8
			c-1.4-3.5-2.9-6.5-6.2-8.5C770.2,189.8,769.5,191.1,770.3,191.6L770.3,191.6z"/>
		<path id="Path_134_" class="st3" d="M782.3,216.7c-3.3-0.5-6,2.3-7,5.4c-1.4,4.2,2.2,8.4,4.6,11.4c0.2-0.4,0.4-0.9,0.5-1.3
			c-3.2,0.3-5.8,1.3-8.4,3.2c-0.3,0.2-0.5,0.7-0.3,1c2.5,3.2,8.2,1.8,11.7,1.8c3.7-0.1,7.4-0.4,7.3-5.1c0-1-1.5-1-1.5,0
			c0.1,4.8-9.4,3.7-12,3.7c-0.6,0-1.1,0-1.7,0c-1.9-0.3-2.3-0.7-1.2-1.2c0.5-1.3,5-1.8,6.1-1.9c0.7-0.1,0.9-0.8,0.5-1.3
			c-1.3-1.7-3.1-3.7-3.8-5.8c-1-2.7,0.2-9.2,4.8-8.5C782.8,218.3,783.3,216.9,782.3,216.7L782.3,216.7z"/>
		<path id="Path_135_" class="st3" d="M768.8,223.6c0.4,4,0.6,8,0.7,12c0,1,1.5,1,1.5,0c-0.1-4-0.3-8-0.7-12
			C770.3,222.7,768.8,222.7,768.8,223.6z"/>
		<path id="Path_136_" class="st3" d="M770.5,232.8c3.1,1.5,6.4,1.8,9.6,0.8c0.9-0.3,0.5-1.7-0.4-1.4c-2.9,0.8-5.8,0.6-8.5-0.7
			C770.3,231.1,769.5,232.4,770.5,232.8L770.5,232.8z"/>
		<path id="Path_137_" class="st3" d="M791.5,227.9c2.8-1.9,4.8-4.4,5.5-7.8c1.1-5.4-2.3-10.4,0.1-15.7c1.9-4.1,5.1-7.2,6-11.7
			c1-5.1-1-10.3,0.2-15.4c0.3-1.2,0.7-2.8,1.6-3.8c0.9-2,2.3-1.5,4,1.6c-0.2,0.5-0.4,1-0.6,1.5c-0.3,2.5-2.2,5.1-2.7,7.7
			c-0.4,2.3-0.2,4.6-0.5,6.9c-0.4,3.3-2,5.9-3.5,8.9c-2.1,4.3-1.7,8.1-1.5,12.8c0.3,7.1-2.5,13-8.9,16.4c-0.9,0.5-0.1,1.8,0.8,1.3
			c4.2-2.3,7.5-5.8,8.9-10.4c2.2-7-0.8-13.7,2.7-20.6c1.3-2.7,2.6-5,3-8c0.5-3.5,0.2-6.5,1.3-10c0.8-2.5,5.3-9.3,1.9-11.7
			c-2.2-1.5-5.1,1.1-6.2,2.7c-3,4.2-2.1,9.6-1.9,14.5c0.2,4.5-0.6,8-3,11.8c-1.3,2-2.7,4-3.5,6.3c-2.7,7.8,4.3,15.5-4.4,21.5
			C790,227.2,790.8,228.5,791.5,227.9z"/>
		<path id="Path_138_" class="st3" d="M825.5,254c-3.5-0.7-6.6,0.4-9.4,2.6c-2,1.5-4.6,3.7-4.2,6.5c1.2,7.3,12.7,3,16.3,0.6
			c1.6-1.1,0.1-3.7-1.5-2.6c-1.5,1-3,1.8-4.7,2.3c-1.1,0.3-2.2,0.6-3.3,0.6c-1.5,0.1-2.1,0.2-2.9-1.3s-0.4-1.5,0.7-2.6
			c0.7-0.7,1.4-1.2,2.2-1.8c1.8-1.2,3.8-1.9,6-1.5C826.5,257.3,827.3,254.4,825.5,254z"/>
		<path id="Path_139_" class="st3" d="M822.5,253.1c-0.6-4.5-1.9-8.8-4.2-12.8c-1.5-2.6-4.8-8.3-8.3-8.7c-7.6-0.9,0.6,19,1.9,21.7
			c0.9,1.7,3.4,0.2,2.6-1.5c-1.5-3.1-2.7-6.2-3.5-9.5c-0.4-1.7-1.2-4.2-1-5.8c0-0.5-0.1-0.9-0.1-1.4c0.8,0.4,1.5,1,2.1,1.7
			c4.2,4.3,6.7,10.4,7.5,16.3C819.8,254.9,822.8,255,822.5,253.1z"/>
		<path id="Path_140_" class="st3" d="M814.5,251.7c-2.2-4.2-11.3-18.4-17.5-12.9s4.9,17.4,8.8,21c1.4,1.3,3.5-0.8,2.1-2.1
			c-2.1-2-4.1-4.1-5.7-6.4c-0.9-1.3-5.3-7.8-3.8-9.2l3.6-0.6c0.9,0.6,1.7,1.3,2.5,2c0.9,0.8,1.8,1.8,2.7,2.7c1.9,2.1,3.4,4.5,4.7,7
			C812.8,255,815.5,253.5,814.5,251.7L814.5,251.7z"/>
		<path id="Path_141_" class="st3" d="M805.7,258.6c-3.4-2.8-8.4,0-8.1,4.3c0.4,5.8,6.9,7,11.4,5.7c1.9-0.5,1.1-3.4-0.8-2.9
			c-2.4,0.7-5.7,0.9-7.2-1.7c-0.6-1-0.7-2.2,0.2-3c0.6-0.6,1.7-0.9,2.4-0.3C805,262,807,259.9,805.7,258.6z"/>
		<path id="Path_142_" class="st3" d="M799.2,262.9c-4.2,1.3-4.2,6.3-1.8,9.3c2.4,3,7,5,10.4,2.4c1.5-1.2-0.6-3.3-2.1-2.1
			c-1.6,1.2-4.2-0.4-5.3-1.5c-1.2-1.2-2.8-4.4-0.3-5.2C801.8,265.2,801,262.3,799.2,262.9L799.2,262.9z"/>
		<path id="Path_143_" class="st3" d="M823.8,254.2c7.3,0,9.5,13.7,8.1,18.8c-0.5,1.9,2.4,2.7,2.9,0.8c2-7.2-1.4-22.6-11-22.6
			C821.8,251.2,821.8,254.2,823.8,254.2z"/>
		<path id="Path_144_" class="st0" d="M752.3,358.4h103.5c1.9,0,1.9-3,0-3c-34.5,0-69,0-103.5,0
			C750.5,355.4,750.5,358.4,752.3,358.4z"/>
		<path id="Path_145_" class="st0" d="M778.8,371.8h95.3c1.9,0,1.9-3,0-3c-31.8,0-63.6,0-95.3,0C777,368.8,777,371.8,778.8,371.8z"
			/>
		<path id="Path_146_" class="st0" d="M868.3,357.9h12c1.9,0,1.9-3,0-3c-4,0-8,0-12,0C866.5,354.9,866.5,357.9,868.3,357.9z"/>
		<path id="Path_147_" class="st0" d="M902.5,366.9c-3.7-1.7-6.5-4.7-7.5-8.7c-0.5-1.9-0.9-4.7,0.4-6.4c2.5-3.5,5.5,1.3,6.3,3.8
			c0.4,1.3,2.6,1.5,2.9,0c0.1-0.7,0.3-1.4,0.5-2.1c0.8-3,2.7-2.7,5.8,0.7c0.5,1.8-0.7,4.8-1.5,6.3c-1.7,3.4-4.5,5.8-7.9,7.5
			c-1.7,0.8-0.2,3.4,1.5,2.6c6.4-3,13.4-11.8,10.2-19.3c-1-2.3-3.4-4.1-6-3.7c-3.5,0.5-5,4.2-5.6,7.2h2.9
			c-1.7-5.5-8.9-11.9-12.2-3.8c-2.9,7.1,2.3,15.5,8.7,18.5C902.7,370.3,904.2,367.7,902.5,366.9L902.5,366.9z"/>
		<path id="Path_148_" class="st2" d="M482.5,734.3c-2.3,15.6-4.6,31.3-6.9,46.9c-42.3,12.9-63,21.3-62.2,25c1,4.6,33.6,2.4,98-6.6
			c0.9-22.4,1.9-44.7,2.8-67.1C503.5,733.1,493,733.7,482.5,734.3L482.5,734.3z"/>
		<path id="Path_149_" class="st3" d="M503,591.2c-2.1,1.6-3.3,3.4-7.8,12.1c-3.6,6.9-5.3,10.4-6.5,13c-8.1,18.4-16,47.3-16,47.3
			c-6.3,22.9-9.5,34.3-11.7,46.4c-3.2,17.1-4.5,31.6-5.2,42.1c5.9,2.7,13,5.4,21.3,7.4c19.6,4.7,36.5,3.3,47.7,1.3
			c2-14.1,4.8-29.4,8.7-45.5c3.4-14.4,7.3-27.7,11.3-39.9c4.3,2.7,10.6,6.9,18.2,12.1c24.9,17.3,32.7,25.7,47.3,35.1
			c9.6,6.2,23.8,14,43.4,20c4.5-0.6,16.8-2.8,27.3-13c15.8-15.5,14.2-36.5,13.9-39.5c-6.6-7-15.9-16.4-27.8-26.5
			c-21-17.8-39.1-28.7-52-36.4c-10.4-6.2-22-11.9-45.1-23.4c0,0-27.1-13.4-52-15.6C513.5,587.8,507.6,587.6,503,591.2L503,591.2z"/>
		<path id="Path_150_" class="st2" d="M457,750.8c2.6-26.2,7.4-52.1,14.3-77.4c3.4-12.4,7.3-24.7,11.7-36.9
			c4.4-12.1,8.8-24.8,15-36.2c3.7-6.8,8.7-9.1,16.2-9.4c6.8-0.3,13.6,0.6,20.2,2.2c12.1,2.8,23.8,7.5,35.2,12.4
			c21.6,9.2,42.4,20.5,61.9,33.7c22.2,15,42.7,32.3,61.2,51.7c1.3,1.4,3.5-0.7,2.1-2.1c-35-36.5-77.2-65.9-123.7-85.8
			c-11.4-4.9-23-9.5-35.1-12.5c-10-2.4-25.5-5.7-34.6,0.8c-3.9,2.8-6.1,7.3-8.1,11.6c-2.6,5.7-5,11.5-7.4,17.3
			c-5.3,13.1-10,26.4-14.1,40c-8.9,29.5-14.9,59.9-17.9,90.6C453.8,752.7,456.8,752.7,457,750.8L457,750.8z"/>
		<path id="Path_151_" class="st2" d="M456.4,752.2c20.6,11.6,44.8,14.9,67.8,9.2c1.9-0.5,1.1-3.4-0.8-2.9
			c-22.2,5.5-45.6,2.4-65.5-8.9C456.1,748.7,454.6,751.2,456.4,752.2L456.4,752.2z"/>
		<path id="Path_152_" class="st2" d="M527.2,759.2c3.5-28.5,9.9-56.6,18.9-83.9c0.6-1.8-2.3-2.6-2.9-0.8
			c-9.1,27.6-15.4,55.9-19,84.7C524,761.1,527,761.1,527.2,759.2L527.2,759.2z"/>
		<path id="Path_153_" class="st2" d="M536.8,672.4c40.1,20.4,70,59.6,115.1,70.1c1.9,0.4,2.7-2.5,0.8-2.9
			c-44.8-10.5-74.6-49.5-114.4-69.8C536.5,668.9,535,671.5,536.8,672.4L536.8,672.4z"/>
		<path id="Path_154_" class="st4" d="M491,762.4c10.2-32.4,21.4-65.4,33.7-99c2.9-8,5.9-15.9,8.9-23.8c20.9,11,41.9,22,62.8,33
			c29.2,15.4,58.4,30.9,87.6,46.5c-0.8,3.7-3.7,13.8-12.8,19.2c-6.8,4-14.3,3.7-22.3,2.1c-24.8-5-40.4-20-71.6-43.3
			c-7.1-5.3-18-13.3-31.9-22.7c-2.7,7.6-5.3,15.5-7.8,23.8c-6.7,22.4-11,43.5-13.8,62.8c-5.8,1.5-13.5,2.8-22.3,2.5
			C497.5,763.3,494,762.9,491,762.4L491,762.4z"/>
		<path id="Path_155_" class="st4" d="M542.8,673.3c-2.5-1-12.6,17.8-15.6,23.4c-7.7,14.3-17.7,35.4-27,63.5
			c1.9,0.8,4.3,1.7,7.1,2.1c7.4,1.3,13.4-0.5,16.7-1.8c5.3-27.8,10.7-49.9,14.9-65.6C541.5,685.1,544.5,674.1,542.8,673.3z"/>
		<path id="Path_156_" class="st2" d="M386.3,746.4c-6.8,17.8-13.7,35.7-20.5,53.5c-39.9,13.3-59.3,22.1-58.4,26.4
			c1.1,5,29.7,4,85.8-3.1c6.7-21.7,13.4-43.3,20.2-65C404.3,754.3,395.3,750.4,386.3,746.4z"/>
		<path id="Path_157_" class="st3" d="M443.5,572.5c-7.7,5.4-12.1,11.8-14.3,15.2c-9.6,14.5-14.5,21.8-17.8,28.2
			c-9.4,18.1-15.4,33.3-18.2,40.8c-9.5,25.1-14.3,45.5-18.7,63.8c-3.2,13.7-5.5,25.1-6.9,33c4,4.8,9.7,10.5,17.3,15.6
			c16,10.7,32.1,13.2,40.8,13.9c7.3-21.1,14.2-38.9,20-52.9c6.1-15,10.6-25,18.7-36.4c5.8-8.3,11.5-14.5,15.6-18.7
			c4.5,6.3,11,14.8,19.5,24.3c10.5,11.7,29.7,32.8,60.7,51.2c25.1,14.9,44.8,20.2,64.6,25.6c20.6,5.6,26.9,5,31.7,2.2
			c19.7-11.6,9.7-57.9,9.1-60.7c-19.3-14.8-33.6-27.9-43.4-37.3c-8.8-8.5-18.7-18.8-36-34.3c-4.6-4.1-9.4-8.4-16-13.9
			c-3.1-2.6-14.6-12-34.3-25.6c0,0-25-17.3-49.4-29.9c0,0-6.2-3.2-16.9-6.5c-8.9-2.7-12.6-2.9-16-2.2
			C452.5,568,449,568.8,443.5,572.5L443.5,572.5z"/>
		<path id="Path_158_" class="st2" d="M440.6,572.8c-44.1,49-62.7,114.2-74.9,177.5c-0.4,1.9,2.5,2.7,2.9,0.8
			c12.1-62.8,30.4-127.6,74.1-176.2C444.1,573.5,442,571.3,440.6,572.8L440.6,572.8z"/>
		<path id="Path_159_" class="st2" d="M366.8,753.8c14.6,16.9,34.7,28.2,56.7,31.8c1.9,0.3,2.7-2.6,0.8-2.9
			c-21.6-3.5-41.1-14.5-55.4-31C367.6,750.2,365.5,752.3,366.8,753.8z"/>
		<path id="Path_160_" class="st2" d="M426.4,784.2c6.4-19.9,14-39.3,23-58.2c8.2-17.1,16.6-36.8,31.3-49.4c1.5-1.3-0.7-3.4-2.1-2.1
			c-14.9,12.8-23.5,32.7-31.7,50c-9.1,19.1-16.8,38.8-23.3,58.9C422.9,785.2,425.8,786,426.4,784.2L426.4,784.2z"/>
		<path id="Path_161_" class="st2" d="M470,663.8c41.1,56.6,97.1,107.4,169.1,117c1.9,0.3,1.9-2.7,0-3
			c-70.8-9.4-126-59.8-166.5-115.5C471.5,660.8,468.9,662.3,470,663.8z"/>
		<path id="Path_162_" class="st2" d="M443.1,574.8c16.5-12.1,37.5,1.3,52.7,9.5c15.7,8.4,30.8,17.7,45.5,27.8
			c29.6,20.5,56.9,44.3,81.3,70.8c1.3,1.4,3.4-0.7,2.1-2.1c-40.2-43.7-88.5-80.4-141.9-106.5c-12.8-6.3-28.5-11.3-41.2-2
			C440.1,573.3,441.6,575.9,443.1,574.8L443.1,574.8z"/>
		<path id="Path_163_" class="st5" d="M390.4,769.2c6.6-13.6,18.2-37.6,32.5-67.9c27.5-57.9,32.1-69.1,44.7-73.4
			c21.8-7.3,42.5,14.6,90.4,48.8c26.8,19.2,63.7,43.3,110.8,67.6c0.9,5.2,2.8,19.4-5.5,28.4c-3.7,3.9-12.1,9.9-38.1,5.5
			c-10-1.7-56.8-10.6-113.6-67.2c-14.3-14.2-24.9-27.2-31.9-36.4c-2.9,3.4-7.3,8.9-12.1,15.9c-8.4,12.4-14,23.7-27,55
			c-4.2,10-9.4,22.8-15.2,37.7c-3.8,0.2-11,0.2-19-3.1C398.1,777,393,772,390.4,769.2z"/>
		<path id="Path_164_" class="st4" d="M471.8,661.2c3.9,2,9.6,5,16.3,9c42.3,25.2,43.3,40.5,74.8,59.2
			c24.5,14.5,33.7,11.1,58.9,30.1c9.8,7.4,17.1,14.5,21.8,19.4c-9.7-0.8-23.1-2.8-38.4-7.6c-20-6.3-33.8-14.6-44-20.8
			c-5.1-3.1-26.3-16.2-49.5-39.5C500,699.5,485.5,683.1,471.8,661.2L471.8,661.2z"/>
		<path id="Path_165_" class="st4" d="M476.3,675c-1.4-1.8-11.9,2.7-21.1,9.7c-16.6,12.5-21.3,27-36.7,55.4
			c-4.5,8.3-11.3,20.4-20.4,34.6c8.9,3.6,17.8,7.2,26.7,10.7c2-5.4,17.3-46.3,28.7-71c3.7-7.9,5.7-12.3,9.3-18.3
			C470.8,682.9,477.5,676.7,476.3,675L476.3,675z"/>
		<path id="Path_166_" class="st3" d="M891.3,503.3c2.6,1.4,2.5,2.9,5.8,5.7c2.7,2.3,3.7,2,4.8,3.9c1.2,2.1,1.4,4.5,1.4,6.1
			c1.1,0,3.1,0.3,5.2,1.8c0.6,0.4,4.7,3.3,5.8,9.6c0.8,4.3-0.2,7.9-0.7,9.2c1.1,1,2.8,2.8,3.4,5.7c0.8,3.6-0.3,6.9-1.7,10.5
			c-4.1,10.1-7.8,14.3-12,22.8c-1.3,2.5-3,6.4-4.8,11.4c-0.1,3.8-0.1,10,0.7,17.5c1.2,11.2,3.4,19.3,4.1,21.9
			c3.5,13,9.7,43.4,10.3,71.3c0.3,14.3,0.6,37.2-9.3,60.6c-3.7,8.8-9.2,21.2-20.3,26.3c-1.8,0.8-14.7,6.7-23.7-2.6
			c-3.3-3.4-5-7.6-5.8-10.5c-0.2-1.5-0.4-3.8-0.3-6.6c0.3-12.1,5.9-20.8,7.9-24.1c6.8-11.5,8.9-24.3,12.4-46
			c2.2-13.4,1.7-25,0.7-47.8c-0.7-15.6-2.2-36.7-5.5-61.8c-1.7-0.5-3.9-1.5-5.5-3.9c-2.4-3.7-1-7.1-2.8-13.6
			c-1.4-4.9-2.5-4-4.8-10.5c-1.7-4.7-3.3-9-2.4-14c0.2-1,1.1-6.9,4.5-8.3c4.3-1.9,9.1,4.9,10.3,6.6c2.4,3.4,3.6,7,4.1,9.2
			c2.4-4,4.9-8.8,7.2-14.5c1.1-2.6,2-5.1,2.8-7.5c-0.4-2.2-0.9-5.4-1.3-9.3c-0.5-5.2-0.7-7.9-0.1-11.3c0.4-2.3,1.4-7.4,4.5-8.8
			C888,501.6,890.2,502.7,891.3,503.3L891.3,503.3z"/>
		<path id="Path_167_" class="st2" d="M901,586.6c4.9-8.8,10.7-17.6,14.7-26.9c2.9-6.8,4.1-15-0.4-21.4c-1.1-1.6-3.7-0.1-2.6,1.5
			c5.2,7.3,1.7,16.4-2.1,23.5c-4,7.3-8.1,14.5-12.2,21.8C897.5,586.8,900,588.3,901,586.6z"/>
		<path id="Path_168_" class="st2" d="M908.2,554.9c7.3-9.7,13.2-33.1-3.8-36.9c-1.9-0.4-2.7,2.5-0.8,2.9c14.8,3.3,8.1,24.3,2,32.5
			C904.5,554.9,907,556.4,908.2,554.9L908.2,554.9z"/>
		<path id="Path_169_" class="st2" d="M900.3,546c6.9-9.9,7.4-23.5,2.1-34.2c-0.9-1.7-3.4-0.2-2.6,1.5c4.8,9.8,4.2,22.2-2.1,31.2
			C896.5,546,899.2,547.5,900.3,546z"/>
		<path id="Path_170_" class="st2" d="M894.3,538.3c2.8-8.8,3.7-18.4,1.7-27.5c-1.1-4.9-6-13.5-12.1-8.8c-5.7,4.4-3.1,16.5-2.5,22.4
			c0.6,5.9-0.1,10.1-3.2,15.2c-2.7,4.4-4.9,9-6.6,13.9c-0.7,1.8,2.2,2.6,2.9,0.8c2.3-6.5,6.4-11.8,9.1-18c2.5-5.8,0.8-12.1,0.4-18.2
			c-0.2-2.8-1-7.3,0.1-10c0.1-2.1,1.4-2.5,3.9-1.4c2.8-1.1,4.4-0.3,4.7,2.5c0.7,1.9,1,4.1,1.2,6.1c0.8,7.5,0,14.9-2.3,22.1
			C891,539.4,893.8,540.2,894.3,538.3L894.3,538.3z"/>
		<path id="Path_171_" class="st2" d="M903.5,513.3c-1.2-4.6-6.4-8.3-10.9-5.2c-1.6,1.1-0.1,3.7,1.5,2.6c2.8-1.9,5.7,0.6,6.5,3.4
			C901,516,904,515.2,903.5,513.3z"/>
		<path id="Path_172_" class="st2" d="M873.5,551.1c-1.6-5.9-5.5-13.4-12.1-14.6c-6.3-1.2-8.5,4.9-8.7,10c-0.5,9.6,4.6,16.2,7.1,25
			c2,7.1,1.4,14.2,8.6,18.4c1.7,1,3.2-1.6,1.5-2.6c-5.4-3.1-5.6-8.5-6.7-14c-0.8-4.4-2.9-8.1-4.7-12.2c-2.1-4.7-4.4-12-2.6-17.1
			c0.1-0.5,0.2-0.9,0.3-1.4c2.3-0.7,4.6-1.5,6.8-2.2c1.3,0.4,2.9,2.5,3.8,3.5c1.9,2.4,3,5,3.7,8C871,553.8,874,553,873.5,551.1
			L873.5,551.1z"/>
		<path id="Path_173_" class="st2" d="M867.8,588.4c4.2,34.7,8.7,70.7,5.6,105.6c-1.5,16.5-5.6,31.8-12.2,46.9
			c-5.4,12.4-9.3,24.1-6.7,37.7c0.4,1.9,3.3,1.1,2.9-0.8c-2.9-15.2,3.3-27.7,9-41.3c6-14.1,9-29.1,10.2-44.3
			c2.7-34.4-1.6-69.7-5.7-103.8C870.5,586.5,867.5,586.5,867.8,588.4L867.8,588.4z"/>
		<path id="Path_174_" class="st2" d="M898,584c-2.4,6.9-1.2,14.6-0.4,21.7c0.9,7.5,2.1,15,3.5,22.4c3.1,16.3,7,32.4,9.1,48.9
			c2.1,16.2,2.2,32.6,0.4,48.8c-1.8,16.1-4.9,33.7-13.9,47.5c-4.3,6.6-10.7,13-18.8,14.5c-8.7,1.7-16.6-3.5-20.7-11
			c-0.9-1.7-3.5-0.2-2.6,1.5c5.8,10.5,17.7,15.7,29,10.7c13.4-5.9,20.5-20.9,24.4-34.2c10.3-35,7.4-71.5,0.3-106.8
			c-2-10-4.2-20-5.8-30.1c-0.9-5.4-1.6-10.8-2.2-16.2c-0.5-5.7-1.3-11.7,0.6-17.2C901.7,583,898.8,582.2,898,584L898,584z"/>
		<path id="Path_175_" class="st6" d="M907.8,521.7c0.3,5,0.3,11.4-0.9,18.4c-3.2,19.2-12.7,31.3-17.1,36.1
			c-0.1,5.7-0.3,14.5,0,25.1c1.2,47.6,8.6,70.9,9.8,93.2c1.2,21.7-2.8,53.4-27.8,94.4c3.3,0.3,8.5,0.3,13.9-2.6
			c4.9-2.6,12.5-8.6,19.4-28.7c6.3-18.4,13.2-52.1,5.5-90.7c-3.4-16.8-8.6-30-11.3-58.2c-0.7-7.5-1-13.8-1.2-18.1
			c1.7-4,4.2-9.5,7.8-15.5c5.9-9.9,9.7-13.2,10.7-20.3c0.7-5-0.3-10.1-2.3-15.1c0.2-1.3,1-6.6-1.4-11.8
			C911.3,524.2,909,522.4,907.8,521.7L907.8,521.7z"/>
		<path id="Path_176_" class="st7" d="M897.8,598c-0.5,0.1,1.1,17.5,4.3,52.3c2.9,30.7,4.3,46,4.3,47.2c1,45.6-13,77.8-10.7,78.9
			c1.6,0.8,9.6-15.4,14.2-35c6.3-27.1,3.8-50.6,2.3-64.1c-1.4-11.9-1.9-8.6-9-49C899.7,608,898.3,597.9,897.8,598L897.8,598z"/>
		<path id="Path_177_" class="st8" d="M651.5,692.5c-9.5,19.3-12.2,36.3-14.7,52.9c-1.4,9.1-2.8,22-2.7,37.6
			c31.2,8.3,59,12.8,81.8,15.2c29.6,3.2,20.9-0.7,95.6,1.9c37.3,1.3,56.5,2.6,61.8-7.6c4.4-8.6-6.4-17.2-7-37
			c-0.5-15.9,5.8-28.9,10.8-37c-29.5-11.9-63.6-23.7-102-33.7c-38.2-10-73.6-16.4-105.1-20.4C665,670.3,657.8,679.7,651.5,692.5z"/>
		<path id="Path_178_" class="st4" d="M654,689.1c7.3,14.6,22.7,39.6,51.4,53.6c11.2,5.5,23.9,9,61.3,10.9
			c24.2,1.2,57.8,1.8,98.5-1.5c-0.6,8.7,1.2,14.9,2.9,19c2.6,6.1,6.2,9.6,5.8,16c-0.1,1.5-0.3,5.3-2.9,8.4
			c-3.6,4.2-9.5,4.6-12.4,4.7c-28.8,1.4-38.7,0.4-38.7,0.4c-24.2-2.6-45.7-2-63.5-1.5c-7.7,0.2-11.8,0.5-20.1,0.4
			c-4.6-0.1-17.3-0.4-35.7-2.9c-27.1-3.7-52.1-10-66-13.9c-0.3-17.9,1.3-32.7,2.9-43.4c2.5-16.4,5.5-25.5,6.6-28.4
			C647.3,701.7,651,694.3,654,689.1L654,689.1z"/>
		<path id="Path_179_" class="st6" d="M643,715.3c3.9,7.9,10.6,19.1,21.9,29.5c19,17.4,39.5,22,63.8,27.7
			c51.5,12.2,104,26.1,103.6,28.4c-0.2,1.4-19.8-1.8-53.6-2.2c-8.2-0.1-13.5-0.2-21.2,0c-15,0.3-19.1,1.1-28.1,0.7
			c-9.7-0.4-16.8-1.8-24.4-3.3c-30.5-6.1-60.9-12.8-70.7-15c0.1-6.4,0.5-13.1,1.1-20.1C637,744.3,639.8,728.9,643,715.3L643,715.3z"
			/>
		<path id="Path_180_" class="st9" d="M935,773.7c-21.2,3-33.3,3.6-53.1,9.2c-9.2,2.6-16.6,5.3-21.5,7.3c-3.1-8.7-6.8-22.8-5.2-40
			c0.9-10.2,3.4-18.7,6-25.1c5.5,1.4,12.4,2.7,20.5,3.2c10.1,0.6,18.7-0.2,25.2-1.3c2.5-9,4.9-17.9,7.4-26.9
			c4.5-1.2,9.1-2.5,13.6-3.7c0.4-2.5,0.9-5,1.3-7.5c5.6,2.6,14.5,6.8,25.6,11.5c20.9,9,23.9,9.3,28.4,13.3
			c12.1,10.9,17.9,32.6,9,45.1C986.8,766.3,969.5,768.8,935,773.7z"/>
		<path id="Path_181_" class="st2" d="M927.5,688.7c-0.7,4.7-1,9.4-0.8,14.2c0.1,1.9,3.1,1.9,3,0c-0.2-4.5,0.1-8.9,0.7-13.4
			C930.7,687.6,927.8,686.8,927.5,688.7L927.5,688.7z"/>
		<path id="Path_182_" class="st2" d="M960.2,714.2c0.8,3.7-1.5,7-4.7,8.5c-1.8,0.8-0.2,3.4,1.5,2.6c4.6-2.1,7.1-7,6.1-11.9
			C962.7,711.5,959.8,712.3,960.2,714.2L960.2,714.2z"/>
		<path id="Path_183_" class="st2" d="M948.8,713.2c1.1,0.1,2.3,0.4,3.2,1.2c0.2,0.2,0.4,0.4,0.6,0.6c0.6-0.5,0.7-0.8,0.2-0.7
			c-0.3-0.2-1.1-0.2-1.4-0.3c-0.5-0.2-1-0.3-1.5-0.6c-0.3-0.1-0.5-0.3-0.8-0.5c-0.8,0.5-0.9,0.9-0.2,1.1c0.4,0.4,1.2,0.8,1.7,1.1
			c0.6,0.4,1.1,0.7,1.7,1.1c1.6,1,2.8-1.1,1.8-2.4c-0.6-0.8-1.3-1.2-2.2-1.6c-1.8-0.7-2.6,2.2-0.8,2.9c0.4,0.2,0.6,0.5,0.9,0.8
			c0.6-0.8,1.2-1.6,1.8-2.4c-1.4-0.9-2.7-1.9-4.1-2.6c-1.1-0.6-2.5-0.4-3.2,0.7c-1.8,2.7,2.1,4.6,4.1,5.2c1.1,0.3,2.4,0.6,3.5,0.2
			c1.2-0.4,1.8-1.7,1.4-2.9c-0.8-2.6-4.3-3.7-6.7-3.9C946.8,710.1,947,713.1,948.8,713.2L948.8,713.2z"/>
		<path id="Path_184_" class="st1" d="M978.2,709.6c4.3,1.2,11.4,3.8,18.3,9.2c2.4,1.9,7.6,6,10.7,11.9c5.9,11.2,3.2,26.9-7.1,37.3
			c-10.1,10.1-26.3,13.7-41.4,9.2C965.2,754.7,971.7,732.2,978.2,709.6z"/>
		<path id="Path_185_" class="st2" d="M983,671.3c-9.4,34.8-18.8,69.6-28.2,104.4c-1.5,5.6,7.2,8,8.7,2.4
			c9.4-34.8,18.8-69.6,28.2-104.4C993.3,668.1,984.5,665.7,983,671.3z"/>
		<path id="Path_186_" class="st10" d="M962.7,754.4c-1.6-6.6-5.8-10.8-10.7-15.7c-10.4-10.4-15-8.3-21.5-15.5
			c-10.2-11.5-2.1-20.7-12.2-31.1c-8.6-8.8-21.6-9.5-24.6-9.6c-2.9-0.1-14.6-0.2-23.6,7.5c-7.8,6.7-10.7,16.8-9.3,17.6
			c0.5,0.3,2-0.4,6.8-5.5c-1.5,1.5-3.3,3.9-4.4,7.1c-1.2,3.8-1,7.5-0.4,7.6c0.5,0.1,0.7-2,2.8-3.4c1.2-0.8,2.6-1.1,3.6-1.1
			c-2.6,2.8-5,6.5-4.2,10.3c2,10.6,25.8,15.5,33.7,17.1c25.6,5.3,40.6,0.2,48.6,9.8c0.7,0.8,3.9,4.7,2.7,8.3
			c-1.6,4.6-9.9,7.2-14.9,5c-4.3-1.9-4.9-6.8-5.8-6.6c-1.1,0.3-0.5,8.5,4.3,16c1.8,2.7,3.2,4.9,6.1,6.4c5.1,2.5,11.6,1.2,15.5-1.2
			C963.5,772.7,964.5,761.6,962.7,754.4L962.7,754.4z"/>
		<path id="Path_187_" class="st11" d="M928,759.5c0-1.5,0.2-3.7,0.8-3.7c0.3,0,0.6,0.6,0.6,0.5c0,0-2.2-2.1-2.2-4.4
			c0-1.1,0.5-2,0.9-2.5c-9.6,2.8-21,5.5-34,7.3c-14.3,2-27.1,2.5-38,2.3c-0.5,4.1-0.8,9.9,0.6,16.8c1.1,5.6,3,10.2,4.7,13.6
			c15.5-6.7,27.5-9.5,35.6-10.9c3.8-0.6,12.8-2,17.2-2.6c8-1.2,14.6-2.1,19.1-2.7c-0.5-0.7-1.3-1.8-2.1-3.2
			C930.2,768.1,928,764.2,928,759.5L928,759.5z"/>
		<path id="Path_188_" class="st12" d="M1010,744.3c-3.2,8.9-11.9,14.8-21.4,14.7c-11.2-0.2-17.8-8.8-18.4-9.6
			c-2.6,9.6-5.1,19.3-7.7,28.9c2.4,0.5,5.7,1,9.7,0.9c12.6-0.3,21.2-6,23-7.3c2.8-1.9,12-8.9,14.3-20.8
			C1010,748.3,1010,745.9,1010,744.3L1010,744.3z"/>
		<path id="Path_189_" class="st3" d="M831.7,539.1c4.4,6.1,9.4,12.5,15.2,19.1c7.8,8.9,15.5,16.4,22.7,22.7
			c10.3-10,21.2-20.1,32.7-30.4c10.9-9.8,21.7-19,32.3-27.7c-2.5-5.1-5.9-11-10.4-17c-8.8-11.7-18.5-19.5-25.9-24.5
			c-16.9,11.9-34.7,26.1-52.3,43.2C841,529.5,836.3,534.3,831.7,539.1L831.7,539.1z"/>
		<path id="Path_190_" class="st2" d="M852,521.8c14.3-14.2,29.6-27.3,45.9-39.1c1.5-1.1,0.1-3.7-1.5-2.6
			c-16.5,12-32.1,25.2-46.5,39.6C848.5,521.1,850.5,523.2,852,521.8z"/>
		<path id="Path_191_" class="st2" d="M897.2,482.1c14.4,10.9,26.5,24.4,35.9,39.8c1,1.6,3.6,0.1,2.6-1.5
			c-9.7-15.9-22.2-29.6-37-40.9C897.2,478.4,895.7,481,897.2,482.1z"/>
		<path id="Path_192_" class="st2" d="M851.5,518.3c-7.3,6.3-14.3,13-20.9,20.1c-1.3,1.4,0.8,3.5,2.1,2.1
			c6.6-7.1,13.5-13.8,20.9-20.1C855,519.1,853,517,851.5,518.3z"/>
		<path id="Path_193_" class="st2" d="M831,541.2c11.4,14,23.6,27.2,36.7,39.7c1.4,1.3,3.5-0.8,2.1-2.1
			c-13-12.5-25.3-25.7-36.7-39.7C831.8,537.5,829.7,539.7,831,541.2z"/>
		<path id="Path_194_" class="st2" d="M871,581.5c21.1-20.1,42.8-39.5,65-58.3c1.5-1.2-0.7-3.4-2.1-2.1
			c-22.2,18.8-43.9,38.3-65,58.3C867.5,580.7,869.5,582.8,871,581.5z"/>
		<path id="Path_195_" class="st2" d="M843.3,540.2c6.8,8.8,13.9,17.4,21.2,25.7c1.3,1.5,3.4-0.7,2.1-2.1
			c-7.3-8.4-14.4-17-21.2-25.7C844.3,536.5,842.3,538.7,843.3,540.2z"/>
		<path id="Path_196_" class="st2" d="M845.5,540.2c15.2-16.7,33.1-30.4,50.9-44.1c1.5-1.2,0-3.8-1.5-2.6
			c-18.1,13.8-36.2,27.7-51.5,44.5C842,539.5,844.3,541.6,845.5,540.2z"/>
		<path id="Path_197_" class="st2" d="M896.8,496.1c9.2,6.9,17.6,14.6,25.3,23.1c1.3,1.4,3.4-0.7,2.1-2.1
			c-7.9-8.7-16.5-16.5-25.9-23.6C896.7,492.4,895.2,495,896.8,496.1z"/>
		<path id="Path_198_" class="st2" d="M866.3,566.7c5.1-0.2,9-2.7,13-5.7c5.2-4,10.3-8.1,15.3-12.4c10.6-8.9,20.7-18.3,30.4-28
			c1.4-1.4-0.8-3.5-2.1-2.1c-8.4,8.5-17.2,16.6-26.2,24.5c-4.4,3.8-8.9,7.5-13.4,11.2c-4.9,3.9-10.3,9.4-17,9.6
			C864.5,563.7,864.5,566.7,866.3,566.7L866.3,566.7z"/>
		<path id="Path_199_" class="st7" d="M892.2,483c-2.4,4.5-5.9,11-10,18.9c-10.2,19.8-15.4,29.8-17,36.1c-2.1,8.2-3.7,22.6,4.8,42.9
			c-12.7-13.5-25.4-27.1-38.1-40.6C852,521.2,872,502.1,892.2,483L892.2,483z"/>
		<path id="Path_200_" class="st0" d="M881.8,515.4c4.8,4.9,9.3,10.1,13.5,15.5c1.2,1.5,3.3-0.6,2.1-2.1
			c-4.2-5.4-8.7-10.6-13.5-15.5C882.5,511.9,880.5,514,881.8,515.4z"/>
		<path id="Path_201_" class="st0" d="M883,515c2.3-1.5,4.7-2.9,7-4.4c1.2-0.8,2.5-2,3.9-2.4c1.9-0.7,0.7-1.1,2.2-0.3
			c1.8,0.9,3.8,4.8,5.1,6.4c1.9,2.4,3.7,4.7,5.6,7.1c1.2,1.5,3.3-0.6,2.1-2.1c-2.4-3.1-4.9-6.2-7.3-9.3c-1.2-1.6-3.1-5.4-5.2-5.9
			c-1.5-0.3-2.8,0.7-4,1.5c-3.7,2.2-7.3,4.6-10.9,6.8C879.8,513.5,881.3,516.1,883,515L883,515z"/>
		<path id="Path_202_" class="st0" d="M897,530.8c4.2-1.8,7.9-4.4,11.1-7.6c1.4-1.4-0.8-3.5-2.1-2.1c-3.1,3-6.6,5.4-10.5,7.1
			C893.8,529,895.3,531.6,897,530.8z"/>
		<path id="Path_203_" class="st0" d="M890.3,520.7c1.3-1.3,2.5-2.6,4.5-2.3c1.1,0.2,1.5,0.4,2.7,0.2c1-0.2,1.3-1.4,0.9-2.2
			c-0.9-1.5-1.7,1-1.7,1.9c0,0.8,0.3,1.7,0.9,2.3c1.5,1.6,3.7,1.2,5.5,0.4c1.8-0.7,1-3.6-0.8-2.9c-0.7,0.3-1.4,0.5-2.2,0.6
			c-0.3-0.7-0.3-1.4,0-2.1c0-0.7,0.1-1.3-0.1-2c-0.3-1-1.1-1.9-2.2-2c-3.2-0.4-3.2,3.4-2,5.4c0.3-0.7,0.6-1.5,0.9-2.2
			c-0.8,0.1-1.8-0.5-2.6-0.5c-0.6,0-1.3,0.2-1.9,0.4c-1.6,0.6-2.8,1.8-3.9,3C886.8,520,889,522.1,890.3,520.7L890.3,520.7z"/>
		<path id="Path_204_" class="st0" d="M888.8,514.3c1.4,0.1,2.7,0,4-0.3c1.9-0.4,1.1-3.3-0.8-2.9c-1.1,0.2-2.1,0.3-3.2,0.2
			c-0.8-0.1-1.5,0.7-1.5,1.5C887.3,513.7,888,514.2,888.8,514.3L888.8,514.3z"/>
		<path id="Path_205_" class="st0" d="M865.8,528.7c4.6,5.3,9.2,10.5,13.9,15.6c1.3,1.4,3.4-0.7,2.1-2.1
			c-4.7-5.1-9.4-10.3-13.9-15.6C866.8,525.1,864.7,527.2,865.8,528.7z"/>
		<path id="Path_206_" class="st0" d="M868.3,529.1c1-1.8,1.5-3.3,3.6-3.4c1.8-0.1,2.9,1.3,4.1,2.4c1.7,1.5,3.1,3.3,4.8,4.9
			c1.3,1.2,2.7,2.4,4.2,3.4c1.3,0.9,2.5,1.4,1.1,3.1c-0.8,1-2.9,1.4-4.1,1.8c-1.8,0.6-1,3.5,0.8,2.9c2.7-0.9,7-2.3,7.9-5.5
			c0.4-1.3,0.1-1.9-0.8-2.8c-1.9-1.7-4.5-2.8-6.4-4.6c-3.2-2.9-6-7.2-10.1-8.9c-3.9-1.5-5.9,2.1-7.6,5.1
			C864.8,529.2,867.3,530.8,868.3,529.1z"/>
		<path id="Path_207_" class="st3" d="M837.8,517.5c-3.4,1.4-3.2,2.9-7.5,5.7c-3.5,2.3-4.7,2-6.1,3.9c-1.6,2.1-1.8,4.5-1.8,6.1
			c-1.4,0-3.9,0.3-6.6,1.8c-0.8,0.4-6,3.3-7.5,9.6c-1,4.3,0.3,7.9,0.9,9.2c-1.4,1-3.5,2.8-4.4,5.7c-1.1,3.6,0.3,6.9,2.2,10.5
			c5.2,10.1,9.9,14.3,15.3,22.8c1.6,2.5,3.9,6.4,6.1,11.4c0.1,3.8,0.1,10-0.9,17.5c-1.5,11.2-4.4,19.3-5.3,21.9
			c-4.5,13-12.4,43.4-13.2,71.3c-0.4,14.3-0.8,37.2,11.8,60.6c4.7,8.8,11.7,21.2,25.9,26.3c2.2,0.8,18.7,6.7,30.2-2.6
			c4.2-3.4,6.3-7.6,7.5-10.5c0.3-1.5,0.5-3.8,0.4-6.6c-0.4-12.1-7.6-20.8-10.1-24.1c-8.7-11.5-11.3-24.3-15.8-46
			c-2.8-13.4-2.2-25-0.9-47.8c0.9-15.6,2.7-36.7,7-61.8c2.1-0.5,5-1.5,7-3.9c3-3.7,1.2-7.1,3.5-13.6c1.7-4.9,3.1-4,6.1-10.5
			c2.2-4.7,4.1-9,3.1-14c-0.2-1-1.5-6.9-5.7-8.3c-5.4-1.9-11.6,4.9-13.1,6.6c-3.1,3.4-4.5,7-5.3,9.2c-3.1-4-6.3-8.8-9.2-14.5
			c-1.3-2.6-2.5-5.1-3.5-7.5c0.5-2.2,1.2-5.4,1.7-9.3c0.6-5.2,0.9-7.9,0.1-11.3c-0.6-2.3-1.8-7.4-5.7-8.8
			C841.8,515.7,839.2,516.8,837.8,517.5L837.8,517.5z"/>
		<path id="Path_208_" class="st2" d="M828.3,599.2c-5-7-10.1-14-15-21.1c-4.7-6.8-10.2-16.4-3.4-23.9c1.3-1.4-0.8-3.6-2.1-2.1
			c-5.3,5.8-4.7,13.7-1.4,20.4c5,10,12.9,19.1,19.4,28.2C826.8,602.3,829.3,600.8,828.3,599.2z"/>
		<path id="Path_209_" class="st2" d="M818.8,567.2c-4.8-5-8.8-11.8-8.7-18.9c0.1-6.9,5.1-12.1,11.7-13.2c1.9-0.3,1.1-3.2-0.8-2.9
			c-7.1,1.2-12.8,6.7-13.8,13.9c-1.2,8.6,3.7,17.3,9.5,23.3C818,570.8,820.2,568.6,818.8,567.2L818.8,567.2z"/>
		<path id="Path_210_" class="st2" d="M829,558.3c-7.7-8.6-8.6-21.2-2.5-30.9c1-1.6-1.6-3.1-2.6-1.5c-6.9,10.9-5.6,25,2.9,34.5
			C828.2,561.9,830.3,559.8,829,558.3z"/>
		<path id="Path_211_" class="st2" d="M837,551.7c-3.2-7.8-4.4-16.5-2.4-24.8c1.1-4.7,7.1-13.6,11.9-6.4c2,3,1.3,7.5,1,10.9
			c-0.5,6.4-2.8,13.4,0.5,19.4c1.6,2.8,4,5.2,5.8,7.8c2.3,3.2,4.1,6.7,5.8,10.3c0.8,1.8,3.4,0.2,2.6-1.5c-2.1-4.6-4.7-8.9-7.8-12.9
			c-1.8-2.4-4.1-4.6-4.9-7.6c-0.8-2.9,0-6.1,0.3-9.1c0.8-6.1,3.3-17.5-3.3-21.6c-5.9-3.7-12.2,1.8-14.1,7.2
			c-3.4,9.3-2,20.2,1.6,29.2C834.8,554.3,837.8,553.5,837,551.7z"/>
		<path id="Path_212_" class="st2" d="M825.5,528.3c1.2-3.5,5.6-5.1,8.9-3.4c1.7,0.9,3.2-1.7,1.5-2.6c-5-2.7-11.4-0.1-13.3,5.2
			C821.8,529.3,824.8,530.1,825.5,528.3z"/>
		<path id="Path_213_" class="st2" d="M863.8,566.1c1.1-3.2,2.7-6,5.1-8.3c1-0.9,2.1-1.8,3.3-2.5c2.8-1.6,4-1.6,7.1-0.5
			c3.6,1.3,4.1,2.1,4.4,5.9c0.1,1.2,0.1,2.4,0,3.6c-0.3,3.8-1.7,7.4-3.5,10.7c-2.1,3.8-4.7,7.3-5.9,11.6c-1.8,6.5-1.9,11.8-8.9,14.9
			c-1.8,0.8-0.2,3.4,1.5,2.6c3-1.3,5.5-3.3,7.2-6.1c2.3-3.7,2.1-8.1,3.5-12.1c1.6-4.4,4.7-8.1,6.7-12.3c1.8-4,2.7-8.4,2.4-12.8
			c-0.4-6-3.9-11-10.5-10c-7.5,1.1-13,7.8-15.3,14.6C860.2,567.1,863,567.9,863.8,566.1L863.8,566.1z"/>
		<path id="Path_214_" class="st2" d="M864.3,602.2c-2.8,18.2-5.1,36.5-6.7,54.8c-1.4,16.4-2.3,32.9-0.7,49.4
			c1.5,15.1,5.3,29.8,12.4,43.2c7.2,13.7,16.1,26.2,12.1,42.5c-0.5,1.9,2.4,2.7,2.9,0.8c3.4-14.1-1.8-25.6-8.5-37.7
			c-8-14.3-13.4-28.9-15.5-45.3c-2-16.4-1.3-32.9,0-49.3c1.6-19.2,3.9-38.4,6.9-57.5C867.5,601.1,864.7,600.3,864.3,602.2
			L864.3,602.2z"/>
		<path id="Path_215_" class="st2" d="M825.8,599.3c2,4.4,1.5,9.3,1,14c-0.6,5.3-1.4,10.6-2.5,15.9c-1.8,9.3-4.3,18.5-6.7,27.7
			c-4.7,18.1-9.2,36.2-9.8,54.9c-0.6,18.5,1.8,37.6,7.9,55.1c5.1,14.6,14.1,28.7,28.6,35.2c13.7,6.1,30.6,3.2,39.4-9.6
			c1.1-1.6-1.5-3.1-2.6-1.5c-9.7,14-29,13.7-42,4.7c-14-9.7-20.4-26.4-24.2-42.3c-4.2-17.6-5.3-36-3.3-53.9c2-17.6,7-34.6,11.3-51.7
			c2.3-9.2,4.5-18.4,5.8-27.8c1.1-7.3,2.6-15.3-0.6-22.2C827.7,596,825,597.6,825.8,599.3L825.8,599.3z"/>
		<path id="Path_216_" class="st6" d="M816.7,535.8c-0.4,5-0.4,11.4,1.1,18.4c4.1,19.2,16.2,31.3,21.7,36.1c0.2,5.7,0.3,14.5,0,25.1
			c-1.5,47.6-10.9,70.9-12.5,93.2c-1.5,21.7,3.6,53.4,35.4,94.4c-4.3,0.3-10.8,0.3-17.7-2.6c-6.2-2.6-15.9-8.6-24.7-28.7
			c-8-18.4-16.8-52.1-7-90.7c4.3-16.8,11-30,14.4-58.2c0.9-7.5,1.3-13.8,1.5-18.1c-2.2-4-5.4-9.5-10-15.5
			c-7.5-9.9-12.4-13.2-13.6-20.3c-0.9-5,0.3-10.1,2.9-15.1c-0.3-1.3-1.2-6.6,1.8-11.8C812.2,538.4,815.3,536.6,816.7,535.8
			L816.7,535.8z"/>
		<path id="Path_217_" class="st7" d="M829.5,612.1c0.7,0.1-1.4,17.5-5.5,52.3c-3.7,30.7-5.5,46-5.5,47.2
			c-1.3,45.6,16.5,77.8,13.6,78.9c-2.1,0.8-12.2-15.4-18.1-35c-8.1-27.1-4.9-50.6-2.9-64.1c1.7-11.9,2.4-8.6,11.4-49
			C827,622.1,828.8,612,829.5,612.1z"/>
		<path id="Shape" class="st3" d="M350,897.9c-0.9-2.4-2.6-5.9-5.6-9.4c-3.3-3.9-6.1-5.3-8.3-6.9c-3.9-3-5.4-6.7-11.8-34.4
			c-3-13.2-3.3-14.7-2.8-17.4c1.3-7,5-9.4,6.9-18.4c0.9-4.3,0.9-7.4,0.7-13.2c-0.3-8.8-0.5-17.8-4.2-28.1c-3.3-9.5-7.1-20-17-24.7
			c-6.9-3.2-13.7-2.1-19.8-1c-12.3,2.2-15,6.8-27.8,12.5c-6.4,2.8-24.8,11-46.6,9.7c-9.7-0.6-15.1-2.7-21.2,1
			c-6.4,4-9.1,11.6-11.1,17.4c-2.5,7.1-3.1,13.3-3.1,17.4c-1.3,4.3-3.3,10.8-5.6,18.8c-6.4,22.8-6.4,27-10.8,39.3
			c-4.4,12.5-7.2,20.3-13.9,29.2c-2.2,2.9-2.3,2.6-22.6,22.2c-10.4,10-15.9,15.5-18.4,24.7c-1,3.6-2.6,9.3,0.3,13.2
			c0.9,1.1,3.8,4.4,21.5,3.8c8.2-0.3,9.3-1,17.7-1.7c15.5-1.3,27.6,0,33.7,0.7c5.8,0.6,10.6,1.5,13.9,2.1c3.2,0.3,8,0.9,13.6,2.4
			c10.1,2.8,13.2,5.9,22.2,9.7c5.5,2.3,16.8,7,30.6,6.6c9.4-0.3,17-2.8,21.9-4.9c7.2,1.1,13.1,0.6,17,0c6.8-1.1,12-3.3,16.3-5.2
			c5.2-2.3,4.9-2.8,11.5-5.9c11.5-5.6,13.4-4.6,16.7-7.6c2.4-2.2,4.6-5.7,5.9-20.2C350.8,921.9,351.3,911.1,350,897.9L350,897.9z
			 M184.8,925.5c0.8,5.5,2.4,9.9,0,12.3c-3.1,3-8.4-1.3-21.8-0.6c-2.2,0.1-3.5,0.3-10,0.8c-5.7,0.4-5.5,0.3-9.1,0.6
			c-5.8,0.5-6.3,0.8-8.7,0.6c-4.3-0.4-6.5-0.5-8.3-2.1c-2.9-2.5-3.4-7.1-2.8-10.2c1-6.2,6.1-8.8,15.2-16.3
			c3.8-3.1,9.3-7.9,15.5-14.6c3.7-4.9,7.3-10,11-15.3c1.7-2.5,3.3-4.9,4.9-7.4c1.5-4.1,3.4-9.8,5.3-16.7c5-18.2,5.1-29.5,6.8-29.6
			c2,0,3.7,14.8,4.4,22.9c0.8,10.4,0.6,19,0.2,24.8c1,1.9,2.4,5.1,2.8,9.3c0.5,4.7-0.4,8.5-1.1,10.6
			C183.6,908.1,183.6,918.4,184.8,925.5L184.8,925.5z"/>
		<path id="Path_218_" class="st2" d="M185.3,773c-13.3,21.6-4.8,47-1,70.1c1.1,6.8,1.7,13.6,1.4,20.4c-0.2,3.2-0.6,6.4-0.2,9.7
			c0.4,3,1.5,5.7,2.2,8.6c1.9,7.5-0.8,15.1-2.3,22.4c-1.3,6.3-2.6,12.6-2.8,19c-0.4,10.1,2.1,20.9,9.4,28.2
			c8.1,8.1,19.9,6.8,29.6,11.9c10.1,5.4,19.6,9.9,31.2,11c5.7,0.5,11.6,0.3,17.2-0.7c6-1,11.6-3.9,17.6-4.9
			c5.7-0.9,11.2,1.1,16.9-0.4c6.4-1.6,12.6-5.2,18.6-7.9c6.2-2.8,12.4-5.7,18.7-8.5c4.1-1.9,7.8-3.6,8.8-8.4
			c1.3-6,0.6-13.1,0.7-19.2c0.2-6.4,0.7-12.8,0.3-19.2c-0.2-4.1-0.8-8.2-2.5-11.9c-2.6-5.8-8.1-7.6-11.7-12.4
			c-7.1-9.8-10.7-23.5-12.7-35.3c-0.6-3.7-1-7.4-1.3-11.1c-0.2-3.8,1.1-6.2,2.5-9.5c2-4.7,3.3-9.7,3.9-14.7
			c1.6-11.6,0.1-23.5-2.6-34.8c-2.3-9.6-5.4-20.3-13.1-27.1c-20.2-17.8-46.7,3.1-65.4,11.9c-6.9,3.2-14.1,5.3-21.7,5.3
			c-7.3,0-14.5-1.4-21.8-0.9c-9.7,0.6-19.8,5-23.1,14.7c-0.6,1.8,2.3,2.6,2.9,0.8c4-11.7,17.9-13,28.4-12.4
			c11.2,0.7,21.4,1.4,32-2.8c18.2-7.2,37.1-25.4,58.2-19c11.6,3.5,16.5,14.8,19.5,25.6s4.9,22,4.3,33.2c-0.3,5.5-1.3,11-3.1,16.3
			c-0.8,2.4-1.9,4.8-3.1,7.1c-1.3,2.6-1,4.5-0.8,7.5c0.7,10.8,3,21.4,6.9,31.5c1.7,4.4,3.6,8.8,5.9,13c2.5,4.4,5.9,6.2,9.4,9.6
			c8,7.6,5.9,21.1,5.6,31c-0.2,6.3-0.4,12.6-0.6,18.9c-0.1,4.2-1,6.6-4.6,8.7c-2.9,1.7-6.2,2.9-9.3,4.2c-5.6,2.6-11.3,5.1-16.9,7.7
			c-6.4,2.9-12.8,6.6-20.1,6.2c-4.8-0.2-8.7-0.8-13.4,0.5c-5.8,1.7-11.3,3.8-17.3,4.5c-11.5,1.4-23.4-0.4-33.8-5.4
			c-4.4-2.1-8.5-4.9-13-6.9c-4.7-2.1-9.6-2.6-14.6-3.8c-11.8-2.8-18.1-14-19.1-25.4c-1.2-13.6,4-26.3,5.6-39.6
			c0.9-6.7-2.6-12.3-3.1-18.9c-0.4-6.7,0.7-13.3,0-20.1c-2.5-25.1-15-53-0.5-76.7C188.9,772.8,186.4,771.3,185.3,773L185.3,773z"/>
		<path id="Path_219_" class="st2" d="M187.1,772.7c17.5-2.6,31.2,11.4,38.5,25.6c7,13.4,10.6,28.3,18.3,41.4
			c6.5,11,16,20.2,28.8,23c11.3,2.5,23.8,0.1,33.1-6.9c12.5-9.4,17.9-24.9,20.7-39.7c0.4-1.9-2.5-2.7-2.9-0.8
			c-2.6,13.5-7.2,28-18.2,37c-11.1,9.1-27.5,11-40.4,4.5c-26.7-13.3-26.9-49.6-43.9-71c-8.4-10.6-21.2-18-35-16
			C184.4,770.1,185.3,773,187.1,772.7L187.1,772.7z"/>
		<path id="Path_220_" class="st2" d="M292.9,868.1c0.1,0.2,0.2,0.3,0.3,0.5c0.1-0.6,0.2-1.2,0.2-1.8c-0.2,0.2-0.3,0.3-0.5,0.5
			c0.6-0.1,1.2-0.2,1.8-0.2c-1.7-0.9-2.5-4.7-3.1-6.4c-0.9-2.6-1.5-5.4-2-8.1c-0.3-2.1-1.7-17.8,2.7-16.3c1.3,0.5,2.3,5.9,2.7,7.3
			c0.7,2.7,1.1,5.5,1.4,8.3c0.3,2.7,0.3,5.4,0.4,8c0,1.2,0.1,2.4,0.1,3.6c0,0.6,0,1.2-0.1,1.8c0.2,0.7-0.1,1.2-0.8,1.5
			c0.2-1.9-2.8-1.9-3,0c-0.2,2,1.4,3.6,3.5,3.4c2.9-0.3,3.3-3.5,3.3-5.8c0.2-5.4-0.1-11.1-0.9-16.4c-0.6-4.4-1.5-10.7-4.7-14.1
			c-5.9-6.4-7.9,6.1-8,9.5c-0.3,5.3,0.4,10.6,1.8,15.6c0.9,3,2.2,9.1,5.3,10.7c0.6,0.3,1.3,0.3,1.8-0.2c0.2-0.2,0.3-0.3,0.5-0.5
			c0.5-0.5,0.6-1.3,0.2-1.8c-0.1-0.2-0.2-0.3-0.3-0.5C294.5,864.9,291.9,866.4,292.9,868.1L292.9,868.1z"/>
		<path id="Path_221_" class="st2" d="M268.9,922.3c0.5,16,1.9,32,4.2,47.8c0.3,1.9,3.2,1.1,2.9-0.8c-2.2-15.6-3.6-31.3-4.1-47
			C271.8,920.4,268.8,920.4,268.9,922.3L268.9,922.3z"/>
		<path id="Path_222_" class="st2" d="M271,923c7.1-10,19.8-14.2,30.8-18c12.1-4.2,24.4-7.4,37-9.7c1.9-0.3,1.1-3.2-0.8-2.9
			c-14.4,2.6-28.6,6.5-42.3,11.6c-10.3,3.9-20.8,8.3-27.4,17.5C267.3,923.1,269.9,924.6,271,923z"/>
		<path id="Path_223_" class="st2" d="M271.5,923.6c11.8,6.3,23.3,11.1,36.9,7.5c13-3.5,25.1-10.8,35.3-19.3
			c1.5-1.2-0.6-3.3-2.1-2.1c-9.5,7.9-20.5,14.5-32.3,18.1c-13.4,4.1-24.5-0.3-36.3-6.7C271.3,920.1,269.8,922.7,271.5,923.6
			L271.5,923.6z"/>
		<path id="Path_224_" class="st2" d="M318,921.2c0.8,3.9,1.6,7.9,2.4,11.8c0.4,1.9,3.3,1.1,2.9-0.8c-0.8-3.9-1.6-7.9-2.4-11.8
			C320.5,918.5,317.6,919.3,318,921.2z"/>
		<path id="Path_225_" class="st2" d="M324.8,918.4c0.4,3.7,0.7,7.4,1.1,11.1c0.2,1.9,3.2,1.9,3,0c-0.4-3.7-0.7-7.4-1.1-11.1
			C327.5,916.5,324.5,916.4,324.8,918.4z"/>
		<path id="Path_226_" class="st2" d="M187.9,896.7c-1.9,5.5,0,10.5,6.5,9.4c1.6-0.3,3-1,4.6-1.5c0.9-0.3,2.2-0.8,3.2-0.7
			c5.1,0.7,2.2,2.4,3.5,4.2c1.5,2,2.4,3,5.1,3c3.6-0.1,10.7-3.5,13.1,0.9c0.9,1.8,0,6.6,0,8.8c0,2.6,0.1,5.2,0.1,7.8
			c0.2,11.4,0.5,22.8,0.9,34.1c0.1,1.9,3.1,1.9,3,0c-0.7-17.5-1-35.1-1.1-52.7c0-0.5-0.3-1.1-0.7-1.3c-3.3-1.5-6.6-2.2-10.2-1.7
			c-2.5,0.3-3.6,1.3-6-0.1c-2.3-1.3-1.5-2.1-2.9-3.9c-1.5-1.9-3.7-2.3-6-2c-1.6,0.2-2.9,0.9-4.4,1.4c-0.8,0.3-1.8,0.8-2.7,0.8
			c-2.2-0.1-3.8-3.5-3-5.6C191.4,895.7,188.4,894.9,187.9,896.7L187.9,896.7z"/>
		<path id="Path_227_" class="st2" d="M181.3,797.6c0.1-11.5,3.8-32.3,20.2-28.3c1.9,0.5,2.7-2.4,0.8-2.9c-6.9-1.7-13.7,1.3-18,6.8
			c-5.4,6.8-6,16-6,24.4C178.3,799.6,181.3,799.6,181.3,797.6z"/>
		<path id="Path_228_" class="st2" d="M178.6,791.3c-2.2,4.6,0.9,9.3,3.7,13.1c2.9,4,7.3,7.6,12.5,6.5c2.9-0.6,4.9-3.2,7.8-3.7
			c3.2-0.7,6.3,2.1,9.5,2c6.8-0.3,10.9-6.8,15.8-10.4c1.5-1.1,0.1-3.7-1.5-2.6c-3.9,2.8-6.9,7.2-11.4,9.1c-4.7,2-7.5-1.5-12-1.2
			c-4.5,0.3-7.1,4.9-11.9,3.7c-4-1-12-10.2-9.8-15C181.9,791.1,179.4,789.5,178.6,791.3L178.6,791.3z"/>
		<path id="Path_229_" class="st2" d="M179.4,789.5c-4.8,21-10.4,41.8-16.7,62.3c-3,9.7-5.8,19.8-10.8,28.8
			c-4.3,7.7-10.2,14.2-16.5,20.3c-11,10.6-23.7,20.6-29.9,35c-2.5,5.8-3.2,11.8,2.5,15.9c6.3,4.6,15.6,4.4,22.9,3.7
			c11.2-1.1,22.3-4.6,33.6-3.7c10.8,0.9,21.1,5.3,31.9,2.1c1.8-0.6,1.1-3.4-0.8-2.9c-9.7,2.9-19.2-0.8-28.9-2c-8-1-16,0.3-23.8,1.6
			c-9.4,1.6-20,3.9-29.3,0.6c-5.8-2-8.3-6.3-6.2-12.2c1.4-3.9,3.5-7.6,5.9-10.9c8.5-12.2,20.9-21,30.9-31.9
			c11.2-12.3,16.3-27,21.2-42.7c6.4-20.9,12.1-42,17-63.3C182.8,788.4,179.9,787.6,179.4,789.5L179.4,789.5z"/>
		<path id="Path_230_" class="st2" d="M179.4,822.7c-1.8,18.9-3.8,38.3-13.1,55.3c-4.1,7.6-9.4,14.5-15.6,20.4
			c-5.7,5.4-12.3,9.7-18.2,14.8c-4.4,3.8-10.7,9.5-11.1,15.8c-0.4,5.7,4.4,10.2,9.5,11.7c8.2,2.5,18.1-0.5,26.5-1
			c9.8-0.5,19.7-0.2,29.5,0.8c1.9,0.2,1.9-2.8,0-3c-9.1-1-18.3-1.3-27.5-0.9c-3.9,0.2-7.9,0.5-11.8,0.9c-4.6,0.5-9.5,1.6-14.1,0.7
			c-5.7-1.1-10.6-5.6-8.2-11.8c1.5-3.7,4.7-6.9,7.6-9.6c5.3-5,11.5-8.9,16.9-13.7c10.3-8.9,18.4-20.4,23.5-33
			c6.1-15.1,7.6-31.5,9.2-47.6C182.6,820.8,179.6,820.8,179.4,822.7L179.4,822.7z"/>
		<path id="Path_231_" class="st2" d="M205.3,908c0.9,8.9,2.3,17.6,4.3,26.3c0.4,1.9,3.3,1.1,2.9-0.8c-1.9-8.4-3.3-16.9-4.2-25.6
			C208.1,906.1,205.1,906.1,205.3,908z"/>
		<path id="Path_232_" class="st2" d="M230.3,781.7c16,12.3,41.8,19.4,60.5,9c1.7-0.9,0.2-3.5-1.5-2.6c-17.8,9.8-42.4,2.6-57.4-9
			C230.1,777.9,228.6,780.5,230.3,781.7z"/>
		<path id="Path_233_" class="st2" d="M181.6,794.5c-0.6-7.2,0.8-15.6,5.8-21.1c5-5.4,12.8-4.9,19.6-4.9c12.5,0.2,25.1,1.5,37-2.9
			c1.8-0.7,1-3.6-0.8-2.9c-15.3,5.7-31,1.2-46.7,3.2c-13.7,1.8-18.9,16.2-17.9,28.6C178.6,796.4,181.6,796.5,181.6,794.5
			L181.6,794.5z"/>
		<path id="Path_234_" class="st2" d="M182.1,797.4c1-6.9,3.2-13.4,7-19.3c2-3.1,4.1-6,7.6-7.3c3.4-1.3,7.4-0.8,11-0.8
			c12.1,0.2,24.5,0.6,35.5-5.2c1.7-0.9,0.2-3.5-1.5-2.6c-7.2,3.8-15.1,4.8-23.1,4.9c-6.8,0.1-14.1-1.1-20.8,0.2
			c-11.7,2.3-17.1,19.1-18.6,29.2C178.9,798.4,181.9,799.3,182.1,797.4L182.1,797.4z"/>
		<path id="Path_235_" class="st2" d="M181.3,794.8c0.7-9.1,1.8-20.8,10.8-25.8c4.9-2.7,11.3-2.1,16.7-2.2c4.7,0,9.4,0.1,14.2,0
			c9.1-0.2,18.2-0.9,26.9-3.9c8.3-2.9,16-7.4,23.5-11.9c1.7-1,0.2-3.6-1.5-2.6c-9.1,5.4-18.4,10.9-28.8,13.3
			c-11.5,2.7-23.4,2-35.1,2.1c-8.6,0.1-16.9,0.1-22.7,7.4c-5.3,6.7-6.1,15.4-6.8,23.6C178.1,796.7,181.1,796.7,181.3,794.8
			L181.3,794.8z"/>
		<path id="Path_236_" class="st13" d="M249.6,763.9c4.3,4-1.3,11.6,2.6,18.4c5.1,8.8,19.8,9.9,31,9.4c-5.9,1.6-14.9,5.3-19.9,13.6
			c-8.8,14.6-2.7,39,18.4,56.2c1.9,15,3.8,30.1,5.8,45.1c-5.6,4.9-11.2,9.8-16.8,14.7c0.2,16.8,0.3,33.6,0.5,50.4
			c-5,1.8-12.8,3.8-22,2.6c-9.2-1.1-11.3-4.3-28.9-11.5c-16.3-6.7-18.7-5.6-24.1-10.5c-10-8.9-11.9-21.4-12.1-22.6
			c-1.3-9.2,2.4-10.4,4.2-28.9c0.9-9.6,0.7-17.2,0.5-19.9c-0.4-8.9-1.5-12.2-2.6-22c-1.4-11.7-0.7-14.1-1.6-25.2
			c-2.2-28.6-8.1-33.8-4.2-48.3c1.6-5.9,3.5-13.3,10-17.3c8.1-5.1,14,0.9,31-0.5C237.8,766.2,245.3,759.6,249.6,763.9L249.6,763.9z"
			/>
		<path id="Path_237_" class="st7" d="M194.1,770.7c-11.1,2.1-18.8,19.5-13.6,29.9c1.7,3.4,5.6,7.8,10.5,8.4c4,0.5,5-2.1,11-2.6
			c6.1-0.5,7.2,1.9,12.1,1c3.6-0.6,8.9-3.1,10.5-7.3c2.8-7.5-7.4-16.6-11-19.9C207.9,775.1,201.4,769.3,194.1,770.7z"/>
		<path id="Path_238_" class="st14" d="M187.3,837.4c2.4-0.4,7.9,32.5,19.4,64.6c10.8,29.9,24.5,52.8,35.2,68.2
			c-8.6-4.3-15.9-6.9-21-8.4c-6.7-2-11.6-2.8-18.4-6.3c-5-2.6-8.7-5.4-11-7.3c-2.2-2.8-5.3-7.4-6.3-13.6c-0.4-2.3-0.3-3.4,0.5-13.6
			c1.1-14.8,1.1-15.3,1.6-17.8c1.5-8.2,2.8-8.1,3.1-13.6c0.4-5.2-0.7-6.2-2.1-16.3c-1.2-8.8-1.4-15.5-1.6-19.9
			C186.4,843.4,186.3,837.5,187.3,837.4L187.3,837.4z"/>
	</g>
</g>
</svg>
